{"glyphs":{"0":{"ha":933,"x_min":56,"x_max":876,"o":"m 467 992 q 687 929 596 992 q 827 753 778 867 q 876 486 876 640 q 827 219 876 333 q 687 43 778 106 q 467 -19 596 -19 q 246 43 338 -19 q 105 219 154 106 q 56 486 56 333 q 105 753 56 640 q 246 929 154 867 q 467 992 338 992 m 467 928 q 349 818 388 928 q 310 486 310 708 q 349 154 310 264 q 467 44 388 44 q 585 154 546 44 q 624 486 624 264 q 585 818 624 708 q 467 928 546 928 z "},"1":{"ha":567,"x_min":50,"x_max":517,"o":"m 517 0 l 517 14 l 488 14 q 434 35 457 14 q 411 88 411 57 l 411 992 l 397 992 q 317 953 364 969 q 219 927 269 938 q 124 910 168 917 q 50 903 79 904 l 50 889 l 81 889 q 143 869 119 889 q 167 799 167 849 l 167 89 q 144 36 167 58 q 90 14 122 14 l 61 14 l 60 0 l 517 0 z "},"2":{"ha":885,"x_min":54,"x_max":838,"o":"m 133 656 l 54 888 q 148 944 92 921 q 268 979 204 967 q 394 992 332 992 q 589 958 503 992 q 724 861 675 924 q 774 708 774 799 q 744 581 774 642 q 669 465 715 519 q 567 365 622 411 q 459 280 513 318 q 364 211 406 242 l 639 211 q 713 226 681 211 q 773 272 746 242 q 824 353 800 303 l 838 353 l 749 0 l 57 0 l 57 14 q 177 153 114 82 q 300 299 240 225 q 408 446 360 372 q 485 591 456 519 q 514 731 514 663 q 465 880 514 826 q 332 928 415 933 q 194 853 242 922 q 147 656 147 783 l 133 656 z "},"3":{"ha":810,"x_min":50,"x_max":746,"o":"m 371 989 q 551 962 476 990 q 667 881 626 933 q 708 757 708 829 q 685 658 708 700 q 625 588 663 615 q 544 552 588 561 q 463 554 501 543 q 553 540 504 554 q 645 495 601 526 q 717 412 689 464 q 746 282 746 360 q 704 120 746 192 q 592 1 663 49 q 431 -69 521 -46 q 246 -86 342 -92 q 60 -44 150 -81 l 63 -31 q 224 -10 149 -32 q 359 57 300 13 q 451 163 418 101 q 485 301 485 225 q 446 435 485 385 q 347 510 407 486 q 222 533 288 533 l 225 547 q 344 576 289 546 q 432 662 400 607 q 457 785 464 717 q 430 867 454 835 q 369 913 406 899 q 288 925 332 928 q 167 856 204 919 q 132 672 129 793 l 118 672 l 50 890 q 181 960 99 933 q 371 989 264 988 z "},"4":{"ha":876,"x_min":-6,"x_max":844,"o":"m 438 724 l 669 992 l 683 992 l 683 1 l 438 1 l 438 724 m 669 992 l 683 899 l 203 411 l 743 411 q 800 424 782 411 q 831 461 818 438 l 844 461 l 804 279 l -6 279 l -6 293 l 669 992 m 683 89 q 706 36 683 58 q 760 14 729 14 l 775 14 l 775 0 l 344 0 l 346 14 l 360 14 q 415 35 392 14 q 438 89 438 57 l 683 89 z "},"5":{"ha":796,"x_min":25,"x_max":724,"o":"m 640 764 l 233 732 l 199 596 q 422 615 324 626 q 588 560 519 604 q 690 445 656 515 q 719 286 724 375 q 665 109 715 183 q 535 -10 614 35 q 363 -75 456 -56 q 183 -85 271 -94 q 25 -43 94 -76 l 28 -29 q 116 -21 64 -31 q 225 10 168 -11 q 333 66 282 31 q 417 150 383 101 q 454 264 450 199 q 411 393 460 346 q 277 447 363 440 q 83 413 192 454 l 71 419 l 185 922 l 572 954 q 642 974 617 954 q 682 1024 667 993 l 696 1024 l 640 764 z "},"6":{"ha":906,"x_min":63,"x_max":847,"o":"m 733 1019 l 739 1010 q 519 909 600 967 q 398 776 438 851 q 346 609 358 701 q 333 403 333 517 q 343 211 333 289 q 380 94 353 133 q 461 54 407 54 q 544 89 515 54 q 585 179 574 124 q 597 299 597 235 q 585 421 597 375 q 553 490 574 467 q 504 519 533 513 q 442 519 472 529 q 390 493 411 510 l 381 504 q 446 576 403 549 q 542 611 489 603 q 649 607 596 619 q 748 559 703 594 q 820 463 793 524 q 846 314 847 403 q 803 148 846 224 q 677 27 761 72 q 464 -21 593 -18 q 247 26 336 -22 q 110 174 157 74 q 63 426 63 274 q 104 682 63 567 q 229 878 146 797 q 439 997 313 958 q 733 1019 565 1035 z "},"7":{"ha":775,"x_min":15,"x_max":754,"o":"m 15 679 l 29 679 q 68 742 44 721 q 133 763 92 763 l 567 763 l 485 575 q 439 479 467 536 q 376 357 411 422 q 307 225 342 292 q 240 100 272 158 q 185 0 207 42 l 393 0 q 420 95 403 39 q 459 217 438 151 q 503 347 481 282 q 545 468 525 413 q 582 561 565 524 l 754 972 l 54 969 l 15 679 z "},"8":{"ha":861,"x_min":43,"x_max":817,"o":"m 101 713 q 144 863 101 800 q 260 958 186 925 q 426 992 333 992 q 588 963 514 992 q 707 881 663 935 q 751 756 751 828 q 713 647 751 692 q 616 577 675 601 q 493 550 557 553 l 447 553 q 508 608 486 568 q 538 694 529 647 q 546 776 547 740 q 513 882 544 839 q 422 926 482 925 q 338 892 368 929 q 307 799 307 854 q 325 728 307 758 q 385 667 343 697 q 500 597 428 636 q 617 534 561 564 q 719 469 674 504 q 790 387 764 435 q 817 271 817 339 q 766 113 817 178 q 623 14 715 47 q 408 -19 531 -19 q 277 -7 342 -19 q 160 33 213 6 q 75 108 107 60 q 44 226 43 156 q 68 330 44 286 q 129 402 92 374 q 208 448 167 431 q 285 474 249 465 q 343 486 322 483 l 403 493 q 297 413 339 469 q 253 257 254 356 q 297 105 253 160 q 417 44 340 50 q 506 58 467 42 q 568 107 546 75 q 590 178 590 139 q 578 231 590 207 q 540 279 567 256 q 473 328 514 303 q 374 382 432 353 q 287 430 333 403 q 198 495 240 457 q 128 588 156 533 q 101 713 101 642 z "},"9":{"ha":906,"x_min":58,"x_max":844,"o":"m 172 -53 l 168 -43 q 388 58 307 0 q 508 190 468 115 q 560 357 549 264 q 572 563 572 450 q 563 756 572 678 q 528 873 554 833 q 446 913 501 913 q 362 878 392 913 q 320 788 332 843 q 310 668 308 733 q 321 546 310 592 q 353 477 332 500 q 401 447 375 454 q 466 447 436 438 q 515 474 496 457 l 525 463 q 460 392 503 419 q 364 356 417 364 q 257 360 311 347 q 158 409 203 374 q 85 505 113 444 q 60 653 58 565 q 103 822 61 747 q 231 942 146 897 q 442 988 315 986 q 740 881 635 990 q 844 540 844 771 q 803 285 844 401 q 677 89 761 169 q 468 -30 593 8 q 172 -53 343 -68 z "},"A":{"ha":997,"x_min":-47,"x_max":1046,"o":"m 490 1003 l 957 8 l 665 8 l 388 692 l 490 1003 m 192 101 q 186 54 179 74 q 210 24 193 35 q 244 14 228 14 l 257 14 l 257 0 l -47 0 l -47 14 q -41 14 -47 14 q -35 14 -35 14 q 31 34 -3 14 q 88 101 65 54 l 192 101 m 490 1003 l 492 810 l 149 4 l 42 4 l 403 808 q 420 844 410 818 q 444 900 431 869 q 467 958 457 931 q 478 1003 476 986 l 490 1003 m 619 315 l 619 251 l 218 251 l 218 315 l 619 315 m 626 101 l 913 101 q 969 34 935 54 q 1035 14 1003 14 q 1040 14 1035 14 q 1046 14 1046 14 l 1046 0 l 561 0 l 561 14 l 574 14 q 623 37 601 14 q 626 101 644 60 z "},"Á":{"ha":997,"x_min":-47,"x_max":1046,"o":"m 490 1003 l 957 8 l 665 8 l 388 692 l 490 1003 m 192 101 q 186 54 179 74 q 210 24 193 35 q 244 14 228 14 l 257 14 l 257 0 l -47 0 l -47 14 q -41 14 -47 14 q -35 14 -35 14 q 31 34 -3 14 q 88 101 65 54 l 192 101 m 490 1003 l 492 810 l 149 4 l 42 4 l 403 808 q 420 844 410 818 q 444 900 431 869 q 467 958 457 931 q 478 1003 476 986 l 490 1003 m 619 315 l 619 251 l 218 251 l 218 315 l 619 315 m 626 101 l 913 101 q 969 34 935 54 q 1035 14 1003 14 q 1040 14 1035 14 q 1046 14 1046 14 l 1046 0 l 561 0 l 561 14 l 574 14 q 623 37 601 14 q 626 101 644 60 z "},"Ă":{"ha":997,"x_min":-47,"x_max":1046,"o":"m 490 1003 l 957 8 l 665 8 l 388 692 l 490 1003 m 192 101 q 186 54 179 74 q 210 24 193 35 q 244 14 228 14 l 257 14 l 257 0 l -47 0 l -47 14 q -41 14 -47 14 q -35 14 -35 14 q 31 34 -3 14 q 88 101 65 54 l 192 101 m 490 1003 l 492 810 l 149 4 l 42 4 l 403 808 q 420 844 410 818 q 444 900 431 869 q 467 958 457 931 q 478 1003 476 986 l 490 1003 m 619 315 l 619 251 l 218 251 l 218 315 l 619 315 m 626 101 l 913 101 q 969 34 935 54 q 1035 14 1003 14 q 1040 14 1035 14 q 1046 14 1046 14 l 1046 0 l 561 0 l 561 14 l 574 14 q 623 37 601 14 q 626 101 644 60 z "},"Â":{"ha":997,"x_min":-47,"x_max":1046,"o":"m 490 1003 l 957 8 l 665 8 l 388 692 l 490 1003 m 192 101 q 186 54 179 74 q 210 24 193 35 q 244 14 228 14 l 257 14 l 257 0 l -47 0 l -47 14 q -41 14 -47 14 q -35 14 -35 14 q 31 34 -3 14 q 88 101 65 54 l 192 101 m 490 1003 l 492 810 l 149 4 l 42 4 l 403 808 q 420 844 410 818 q 444 900 431 869 q 467 958 457 931 q 478 1003 476 986 l 490 1003 m 619 315 l 619 251 l 218 251 l 218 315 l 619 315 m 626 101 l 913 101 q 969 34 935 54 q 1035 14 1003 14 q 1040 14 1035 14 q 1046 14 1046 14 l 1046 0 l 561 0 l 561 14 l 574 14 q 623 37 601 14 q 626 101 644 60 z "},"Ä":{"ha":997,"x_min":-47,"x_max":1046,"o":"m 490 1003 l 957 8 l 665 8 l 388 692 l 490 1003 m 192 101 q 186 54 179 74 q 210 24 193 35 q 244 14 228 14 l 257 14 l 257 0 l -47 0 l -47 14 q -41 14 -47 14 q -35 14 -35 14 q 31 34 -3 14 q 88 101 65 54 l 192 101 m 490 1003 l 492 810 l 149 4 l 42 4 l 403 808 q 420 844 410 818 q 444 900 431 869 q 467 958 457 931 q 478 1003 476 986 l 490 1003 m 619 315 l 619 251 l 218 251 l 218 315 l 619 315 m 626 101 l 913 101 q 969 34 935 54 q 1035 14 1003 14 q 1040 14 1035 14 q 1046 14 1046 14 l 1046 0 l 561 0 l 561 14 l 574 14 q 623 37 601 14 q 626 101 644 60 z "},"À":{"ha":997,"x_min":-47,"x_max":1046,"o":"m 490 1003 l 957 8 l 665 8 l 388 692 l 490 1003 m 192 101 q 186 54 179 74 q 210 24 193 35 q 244 14 228 14 l 257 14 l 257 0 l -47 0 l -47 14 q -41 14 -47 14 q -35 14 -35 14 q 31 34 -3 14 q 88 101 65 54 l 192 101 m 490 1003 l 492 810 l 149 4 l 42 4 l 403 808 q 420 844 410 818 q 444 900 431 869 q 467 958 457 931 q 478 1003 476 986 l 490 1003 m 619 315 l 619 251 l 218 251 l 218 315 l 619 315 m 626 101 l 913 101 q 969 34 935 54 q 1035 14 1003 14 q 1040 14 1035 14 q 1046 14 1046 14 l 1046 0 l 561 0 l 561 14 l 574 14 q 623 37 601 14 q 626 101 644 60 z "},"Ā":{"ha":997,"x_min":-47,"x_max":1046,"o":"m 490 1003 l 957 8 l 665 8 l 388 692 l 490 1003 m 192 101 q 186 54 179 74 q 210 24 193 35 q 244 14 228 14 l 257 14 l 257 0 l -47 0 l -47 14 q -41 14 -47 14 q -35 14 -35 14 q 31 34 -3 14 q 88 101 65 54 l 192 101 m 490 1003 l 492 810 l 149 4 l 42 4 l 403 808 q 420 844 410 818 q 444 900 431 869 q 467 958 457 931 q 478 1003 476 986 l 490 1003 m 619 315 l 619 251 l 218 251 l 218 315 l 619 315 m 626 101 l 913 101 q 969 34 935 54 q 1035 14 1003 14 q 1040 14 1035 14 q 1046 14 1046 14 l 1046 0 l 561 0 l 561 14 l 574 14 q 623 37 601 14 q 626 101 644 60 z "},"Ą":{"ha":1004,"x_min":-47,"x_max":1053,"o":"m 493 992 l 947 43 l 664 28 l 390 681 l 493 992 m 493 992 l 496 799 l 149 4 l 42 4 l 407 797 q 424 833 413 807 q 447 889 435 858 q 470 947 460 919 q 481 992 481 975 l 493 992 m 624 315 l 624 251 l 222 251 l 222 315 l 624 315 m 192 101 q 186 54 179 74 q 210 24 193 35 q 244 14 228 14 l 257 14 l 257 0 l -47 0 l -47 14 q -41 14 -47 14 q -35 14 -35 14 q 31 34 -3 14 q 88 101 65 54 l 192 101 m 726 0 q 655 -40 674 -11 q 638 -101 636 -69 q 667 -165 642 -142 q 727 -189 692 -189 q 797 -160 763 -189 l 806 -168 q 768 -247 800 -219 q 693 -278 736 -274 q 610 -264 650 -282 q 545 -209 569 -246 q 529 -117 521 -172 q 561 -47 535 -71 q 621 -3 588 -22 q 647 37 644 14 q 633 101 650 60 l 919 100 q 976 38 943 54 q 1040 15 1010 21 q 1047 15 1040 15 q 1053 14 1053 14 l 1053 0 q 994 3 1033 0 q 906 8 954 6 q 809 9 857 11 q 726 0 761 7 z "},"Å":{"ha":997,"x_min":-47,"x_max":1046,"o":"m 490 992 l 957 8 l 665 8 l 388 681 l 490 992 m 192 101 q 186 54 179 74 q 210 24 193 35 q 244 14 228 14 l 257 14 l 257 0 l -47 0 l -47 14 q -41 14 -47 14 q -35 14 -35 14 q 31 34 -3 14 q 88 101 65 54 l 192 101 m 490 992 l 492 799 l 149 4 l 42 4 l 403 797 q 420 833 410 807 q 444 889 431 858 q 467 947 457 919 q 478 992 476 975 l 490 992 m 619 315 l 619 251 l 218 251 l 218 315 l 619 315 m 626 101 l 913 101 q 969 34 935 54 q 1035 14 1003 14 q 1040 14 1035 14 q 1046 14 1046 14 l 1046 0 l 561 0 l 561 14 l 574 14 q 623 37 601 14 q 626 101 644 60 m 486 1169 q 580 1142 542 1169 q 618 1068 618 1115 q 579 994 618 1024 q 485 965 540 965 q 391 994 431 965 q 351 1067 351 1022 q 391 1141 351 1113 q 486 1169 431 1169 m 485 1140 q 442 1120 460 1140 q 425 1067 425 1100 q 442 1015 425 1036 q 485 994 460 994 q 528 1015 511 994 q 544 1067 546 1036 q 528 1120 546 1100 q 485 1140 511 1140 z "},"Ã":{"ha":997,"x_min":-47,"x_max":1046,"o":"m 490 1003 l 957 8 l 665 8 l 388 692 l 490 1003 m 192 101 q 186 54 179 74 q 210 24 193 35 q 244 14 228 14 l 257 14 l 257 0 l -47 0 l -47 14 q -41 14 -47 14 q -35 14 -35 14 q 31 34 -3 14 q 88 101 65 54 l 192 101 m 490 1003 l 492 810 l 149 4 l 42 4 l 403 808 q 420 844 410 818 q 444 900 431 869 q 467 958 457 931 q 478 1003 476 986 l 490 1003 m 619 315 l 619 251 l 218 251 l 218 315 l 619 315 m 626 101 l 913 101 q 969 34 935 54 q 1035 14 1003 14 q 1040 14 1035 14 q 1046 14 1046 14 l 1046 0 l 561 0 l 561 14 l 574 14 q 623 37 601 14 q 626 101 644 60 z "},"Æ":{"ha":1381,"x_min":-39,"x_max":1351,"o":"m 218 100 q 208 54 203 74 q 231 24 214 35 q 268 14 249 14 l 281 14 l 281 0 l -39 0 l -39 14 q -33 14 -39 14 q -28 14 -28 14 q 35 35 6 14 q 96 101 65 57 l 218 100 m 894 972 l 894 0 l 647 0 l 647 908 l 894 972 m 650 81 l 650 0 l 564 0 l 565 14 q 572 14 565 14 q 578 14 578 14 q 626 34 606 14 q 647 81 646 54 l 650 81 m 1269 65 l 1269 0 l 890 0 l 890 65 l 1269 65 m 1197 506 l 1197 442 l 407 442 l 414 506 l 1197 506 m 1268 972 l 1268 907 l 749 907 l 678 849 l 160 4 l 31 4 l 632 894 q 638 940 649 921 q 603 958 628 958 l 596 958 l 596 972 l 1268 972 m 1351 297 l 1293 0 l 1015 0 l 1064 65 q 1234 126 1161 65 q 1338 297 1307 188 l 1351 297 m 1197 444 l 1197 296 l 1183 296 l 1183 306 q 1146 402 1183 364 q 1049 442 1108 440 l 1049 444 l 1197 444 m 1197 650 l 1197 503 l 1049 503 l 1049 506 q 1146 545 1108 507 q 1183 640 1183 583 l 1183 650 l 1197 650 m 1268 911 l 1268 736 l 1254 736 l 1254 750 q 1213 865 1254 822 q 1097 908 1171 907 l 1097 911 l 1268 911 m 1268 997 l 1268 957 l 1099 972 q 1163 976 1129 972 q 1226 986 1197 981 q 1268 997 1254 992 z "},"B":{"ha":976,"x_min":50,"x_max":936,"o":"m 222 972 l 493 972 q 679 950 596 972 q 813 876 763 928 q 863 732 863 824 q 837 624 863 668 q 772 556 811 579 q 686 529 732 532 q 812 493 756 525 q 902 406 868 461 q 936 275 936 350 q 883 121 936 182 q 738 30 831 60 q 522 0 644 0 l 390 0 q 391 17 390 0 q 392 50 392 33 q 392 67 392 67 l 444 67 q 550 90 503 67 q 625 163 597 113 q 653 293 653 213 q 638 390 653 349 q 597 460 624 432 q 533 501 569 488 q 450 514 496 514 l 450 526 q 511 538 483 526 q 559 572 539 549 q 590 630 579 594 q 601 713 601 665 q 580 828 601 785 q 520 890 558 871 q 432 908 482 908 l 236 908 q 233 925 236 910 q 226 956 229 940 q 222 972 222 972 m 403 972 l 403 0 l 157 0 l 157 972 l 403 972 m 161 101 l 161 0 l 50 0 l 50 14 q 60 14 53 14 q 68 14 67 14 q 130 40 104 14 q 157 101 156 65 l 161 101 m 161 871 l 157 871 q 130 933 156 907 q 68 958 104 958 q 60 958 67 958 q 50 958 53 958 l 50 972 l 161 972 l 161 871 z "},"C":{"ha":1093,"x_min":56,"x_max":1031,"o":"m 1007 406 l 1031 160 q 951 71 1001 111 q 824 6 900 31 q 640 -19 747 -19 q 331 42 463 -18 q 127 214 199 101 q 56 488 56 326 q 126 758 56 644 q 328 931 196 871 q 643 992 460 992 q 847 971 757 992 q 994 922 936 950 l 989 669 l 976 669 q 855 870 938 813 q 663 928 772 928 q 479 875 556 928 q 362 725 403 822 q 321 492 321 628 q 360 255 321 354 q 470 101 399 156 q 640 44 542 47 q 820 78 750 44 q 932 192 890 113 q 996 406 974 272 l 1007 406 z "},"Ć":{"ha":1093,"x_min":56,"x_max":1031,"o":"m 1007 406 l 1031 160 q 951 71 1001 111 q 824 6 900 31 q 640 -19 747 -19 q 331 42 463 -18 q 127 214 199 101 q 56 488 56 326 q 126 758 56 644 q 328 931 196 871 q 643 992 460 992 q 847 971 757 992 q 994 922 936 950 l 989 669 l 976 669 q 855 870 938 813 q 663 928 772 928 q 479 875 556 928 q 362 725 403 822 q 321 492 321 628 q 360 255 321 354 q 470 101 399 156 q 640 44 542 47 q 820 78 750 44 q 932 192 890 113 q 996 406 974 272 l 1007 406 z "},"Č":{"ha":1093,"x_min":56,"x_max":1031,"o":"m 1007 406 l 1031 160 q 951 71 1001 111 q 824 6 900 31 q 640 -19 747 -19 q 331 42 463 -18 q 127 214 199 101 q 56 488 56 326 q 126 758 56 644 q 328 931 196 871 q 643 992 460 992 q 847 971 757 992 q 994 922 936 950 l 989 669 l 976 669 q 855 870 938 813 q 663 928 772 928 q 479 875 556 928 q 362 725 403 822 q 321 492 321 628 q 360 255 321 354 q 470 101 399 156 q 640 44 542 47 q 820 78 750 44 q 932 192 890 113 q 996 406 974 272 l 1007 406 z "},"Ç":{"ha":1093,"x_min":56,"x_max":1031,"o":"m 1007 406 l 1031 160 q 951 71 1001 111 q 824 6 900 31 q 640 -19 747 -19 q 331 42 463 -18 q 127 214 199 101 q 56 488 56 326 q 126 758 56 644 q 328 931 196 871 q 643 992 460 992 q 847 971 757 992 q 994 922 936 950 l 989 669 l 976 669 q 855 870 938 813 q 663 928 772 928 q 479 875 556 928 q 362 725 403 822 q 321 492 321 628 q 360 255 321 354 q 470 101 399 156 q 640 44 542 47 q 820 78 750 44 q 932 192 890 113 q 996 406 974 272 l 1007 406 z "},"Ċ":{"ha":1093,"x_min":56,"x_max":1031,"o":"m 1007 406 l 1031 160 q 951 71 1001 111 q 824 6 900 31 q 640 -19 747 -19 q 331 42 463 -18 q 127 214 199 101 q 56 488 56 326 q 126 758 56 644 q 328 931 196 871 q 643 992 460 992 q 847 971 757 992 q 994 922 936 950 l 989 669 l 976 669 q 855 870 938 813 q 663 928 772 928 q 479 875 556 928 q 362 725 403 822 q 321 492 321 628 q 360 255 321 354 q 470 101 399 156 q 640 44 542 47 q 820 78 750 44 q 932 192 890 113 q 996 406 974 272 l 1007 406 z "},"D":{"ha":1160,"x_min":50,"x_max":1108,"o":"m 565 972 q 856 914 735 972 q 1043 747 978 856 q 1108 486 1108 638 q 1043 226 1108 335 q 856 58 978 117 q 565 0 735 0 l 224 0 l 222 64 q 324 64 275 64 q 413 64 372 64 q 482 64 453 64 q 527 64 511 64 q 543 64 543 64 q 703 115 636 64 q 807 261 771 167 q 843 486 843 356 q 807 711 843 617 q 703 857 771 806 q 543 908 636 908 q 526 908 543 908 q 478 908 510 908 q 406 908 447 908 q 315 908 365 908 q 208 908 264 908 l 208 972 l 565 972 m 403 972 l 403 0 l 157 0 l 157 972 l 403 972 m 161 101 l 161 0 l 50 0 l 50 14 q 59 14 50 14 q 68 14 68 14 q 130 40 104 14 q 157 101 156 65 l 161 101 m 161 871 l 157 871 q 131 933 157 907 q 68 958 104 958 q 60 958 68 958 q 51 958 51 958 l 50 972 l 161 972 l 161 871 z "},"Ð":{"ha":1160,"x_min":50,"x_max":1108,"o":"m 50 518 l 569 518 l 569 454 l 50 454 l 50 518 m 567 972 q 857 914 735 972 q 1044 747 979 856 q 1108 486 1108 638 q 1044 226 1108 335 q 857 58 979 117 q 567 0 735 0 l 225 0 l 224 64 q 325 64 276 64 q 414 64 374 64 q 483 64 454 64 q 528 64 513 64 q 544 64 544 64 q 706 115 638 64 q 813 261 775 167 q 850 486 850 356 q 813 711 850 617 q 706 857 775 806 q 544 908 638 908 q 528 908 544 908 q 480 908 511 908 q 407 908 449 908 q 315 908 365 908 q 210 908 265 908 l 210 972 l 567 972 m 404 972 l 404 0 l 158 0 l 158 972 l 404 972 m 163 101 l 163 0 l 51 0 l 51 14 q 60 14 51 14 q 69 14 69 14 q 131 40 106 14 q 158 101 157 65 l 163 101 m 163 871 l 158 871 q 132 933 158 907 q 69 958 106 958 q 61 958 69 958 q 53 958 53 958 l 51 972 l 163 972 l 163 871 z "},"Ď":{"ha":1160,"x_min":50,"x_max":1108,"o":"m 565 972 q 856 914 735 972 q 1043 747 978 856 q 1108 486 1108 638 q 1043 226 1108 335 q 856 58 978 117 q 565 0 735 0 l 224 0 l 222 64 q 324 64 275 64 q 413 64 372 64 q 482 64 453 64 q 527 64 511 64 q 543 64 543 64 q 703 115 636 64 q 807 261 771 167 q 843 486 843 356 q 807 711 843 617 q 703 857 771 806 q 543 908 636 908 q 526 908 543 908 q 478 908 510 908 q 406 908 447 908 q 315 908 365 908 q 208 908 264 908 l 208 972 l 565 972 m 403 972 l 403 0 l 157 0 l 157 972 l 403 972 m 161 101 l 161 0 l 50 0 l 50 14 q 59 14 50 14 q 68 14 68 14 q 130 40 104 14 q 157 101 156 65 l 161 101 m 161 871 l 157 871 q 131 933 157 907 q 68 958 104 958 q 60 958 68 958 q 51 958 51 958 l 50 972 l 161 972 l 161 871 z "},"Đ":{"ha":1160,"x_min":50,"x_max":1108,"o":"m 565 972 q 856 914 735 972 q 1043 747 978 856 q 1108 486 1108 638 q 1043 226 1108 335 q 856 58 978 117 q 565 0 735 0 l 224 0 l 222 64 q 324 64 275 64 q 413 64 372 64 q 482 64 453 64 q 527 64 511 64 q 543 64 543 64 q 703 115 636 64 q 807 261 771 167 q 843 486 843 356 q 807 711 843 617 q 703 857 771 806 q 543 908 636 908 q 526 908 543 908 q 478 908 510 908 q 406 908 447 908 q 315 908 365 908 q 208 908 264 908 l 208 972 l 565 972 m 403 972 l 403 0 l 157 0 l 157 972 l 403 972 m 161 101 l 161 0 l 50 0 l 50 14 q 59 14 50 14 q 68 14 68 14 q 130 40 104 14 q 157 101 156 65 l 161 101 m 161 871 l 157 871 q 131 933 157 907 q 68 958 104 958 q 60 958 68 958 q 51 958 51 958 l 50 972 l 161 972 l 161 871 z "},"E":{"ha":901,"x_min":50,"x_max":874,"o":"m 403 972 l 403 0 l 157 0 l 157 972 l 403 972 m 767 65 l 813 0 l 399 0 l 399 65 l 767 65 m 718 511 l 718 447 l 399 447 l 399 511 l 718 511 m 789 972 l 789 907 l 399 907 l 399 972 l 789 972 m 874 303 l 817 0 l 529 0 l 579 65 q 703 94 647 65 q 799 176 758 122 q 861 303 839 229 l 874 303 m 718 450 l 718 303 l 704 303 l 704 313 q 667 408 704 369 q 571 447 629 446 l 571 450 l 718 450 m 718 656 l 718 508 l 571 508 l 571 511 q 667 551 629 513 q 704 647 706 590 l 704 656 l 718 656 m 789 911 l 789 733 l 775 733 l 775 747 q 733 864 775 821 q 615 908 690 907 l 615 911 l 789 911 m 789 997 l 789 957 l 619 972 q 684 976 650 972 q 747 986 718 981 q 789 997 776 992 m 161 101 l 161 0 l 50 0 l 50 14 q 59 14 50 14 q 68 14 68 14 q 130 40 104 14 q 157 101 156 65 l 161 101 m 161 871 l 157 871 q 130 933 156 907 q 68 958 104 958 q 59 958 68 958 q 50 958 50 958 l 50 972 l 161 972 l 161 871 z "},"É":{"ha":901,"x_min":50,"x_max":874,"o":"m 403 972 l 403 0 l 157 0 l 157 972 l 403 972 m 767 65 l 813 0 l 399 0 l 399 65 l 767 65 m 718 511 l 718 447 l 399 447 l 399 511 l 718 511 m 789 972 l 789 907 l 399 907 l 399 972 l 789 972 m 874 303 l 817 0 l 529 0 l 579 65 q 703 94 647 65 q 799 176 758 122 q 861 303 839 229 l 874 303 m 718 450 l 718 303 l 704 303 l 704 313 q 667 408 704 369 q 571 447 629 446 l 571 450 l 718 450 m 718 656 l 718 508 l 571 508 l 571 511 q 667 551 629 513 q 704 647 706 590 l 704 656 l 718 656 m 789 911 l 789 733 l 775 733 l 775 747 q 733 864 775 821 q 615 908 690 907 l 615 911 l 789 911 m 789 997 l 789 957 l 619 972 q 684 976 650 972 q 747 986 718 981 q 789 997 776 992 m 161 101 l 161 0 l 50 0 l 50 14 q 59 14 50 14 q 68 14 68 14 q 130 40 104 14 q 157 101 156 65 l 161 101 m 161 871 l 157 871 q 130 933 156 907 q 68 958 104 958 q 59 958 68 958 q 50 958 50 958 l 50 972 l 161 972 l 161 871 z "},"Ě":{"ha":901,"x_min":50,"x_max":874,"o":"m 403 972 l 403 0 l 157 0 l 157 972 l 403 972 m 767 65 l 813 0 l 399 0 l 399 65 l 767 65 m 718 511 l 718 447 l 399 447 l 399 511 l 718 511 m 789 972 l 789 907 l 399 907 l 399 972 l 789 972 m 874 303 l 817 0 l 529 0 l 579 65 q 703 94 647 65 q 799 176 758 122 q 861 303 839 229 l 874 303 m 718 450 l 718 303 l 704 303 l 704 313 q 667 408 704 369 q 571 447 629 446 l 571 450 l 718 450 m 718 656 l 718 508 l 571 508 l 571 511 q 667 551 629 513 q 704 647 706 590 l 704 656 l 718 656 m 789 911 l 789 733 l 775 733 l 775 747 q 733 864 775 821 q 615 908 690 907 l 615 911 l 789 911 m 789 997 l 789 957 l 619 972 q 684 976 650 972 q 747 986 718 981 q 789 997 776 992 m 161 101 l 161 0 l 50 0 l 50 14 q 59 14 50 14 q 68 14 68 14 q 130 40 104 14 q 157 101 156 65 l 161 101 m 161 871 l 157 871 q 130 933 156 907 q 68 958 104 958 q 59 958 68 958 q 50 958 50 958 l 50 972 l 161 972 l 161 871 z "},"Ê":{"ha":901,"x_min":50,"x_max":874,"o":"m 403 972 l 403 0 l 157 0 l 157 972 l 403 972 m 767 65 l 813 0 l 399 0 l 399 65 l 767 65 m 718 511 l 718 447 l 399 447 l 399 511 l 718 511 m 789 972 l 789 907 l 399 907 l 399 972 l 789 972 m 874 303 l 817 0 l 529 0 l 579 65 q 703 94 647 65 q 799 176 758 122 q 861 303 839 229 l 874 303 m 718 450 l 718 303 l 704 303 l 704 313 q 667 408 704 369 q 571 447 629 446 l 571 450 l 718 450 m 718 656 l 718 508 l 571 508 l 571 511 q 667 551 629 513 q 704 647 706 590 l 704 656 l 718 656 m 789 911 l 789 733 l 775 733 l 775 747 q 733 864 775 821 q 615 908 690 907 l 615 911 l 789 911 m 789 997 l 789 957 l 619 972 q 684 976 650 972 q 747 986 718 981 q 789 997 776 992 m 161 101 l 161 0 l 50 0 l 50 14 q 59 14 50 14 q 68 14 68 14 q 130 40 104 14 q 157 101 156 65 l 161 101 m 161 871 l 157 871 q 130 933 156 907 q 68 958 104 958 q 59 958 68 958 q 50 958 50 958 l 50 972 l 161 972 l 161 871 z "},"Ë":{"ha":901,"x_min":50,"x_max":874,"o":"m 403 972 l 403 0 l 157 0 l 157 972 l 403 972 m 767 65 l 813 0 l 399 0 l 399 65 l 767 65 m 718 511 l 718 447 l 399 447 l 399 511 l 718 511 m 789 972 l 789 907 l 399 907 l 399 972 l 789 972 m 874 303 l 817 0 l 529 0 l 579 65 q 703 94 647 65 q 799 176 758 122 q 861 303 839 229 l 874 303 m 718 450 l 718 303 l 704 303 l 704 313 q 667 408 704 369 q 571 447 629 446 l 571 450 l 718 450 m 718 656 l 718 508 l 571 508 l 571 511 q 667 551 629 513 q 704 647 706 590 l 704 656 l 718 656 m 789 911 l 789 733 l 775 733 l 775 747 q 733 864 775 821 q 615 908 690 907 l 615 911 l 789 911 m 789 997 l 789 957 l 619 972 q 684 976 650 972 q 747 986 718 981 q 789 997 776 992 m 161 101 l 161 0 l 50 0 l 50 14 q 59 14 50 14 q 68 14 68 14 q 130 40 104 14 q 157 101 156 65 l 161 101 m 161 871 l 157 871 q 130 933 156 907 q 68 958 104 958 q 59 958 68 958 q 50 958 50 958 l 50 972 l 161 972 l 161 871 z "},"Ė":{"ha":901,"x_min":50,"x_max":874,"o":"m 403 972 l 403 0 l 157 0 l 157 972 l 403 972 m 767 65 l 813 0 l 399 0 l 399 65 l 767 65 m 718 511 l 718 447 l 399 447 l 399 511 l 718 511 m 789 972 l 789 907 l 399 907 l 399 972 l 789 972 m 874 303 l 817 0 l 529 0 l 579 65 q 703 94 647 65 q 799 176 758 122 q 861 303 839 229 l 874 303 m 718 450 l 718 303 l 704 303 l 704 313 q 667 408 704 369 q 571 447 629 446 l 571 450 l 718 450 m 718 656 l 718 508 l 571 508 l 571 511 q 667 551 629 513 q 704 647 706 590 l 704 656 l 718 656 m 789 911 l 789 733 l 775 733 l 775 747 q 733 864 775 821 q 615 908 690 907 l 615 911 l 789 911 m 789 997 l 789 957 l 619 972 q 684 976 650 972 q 747 986 718 981 q 789 997 776 992 m 161 101 l 161 0 l 50 0 l 50 14 q 59 14 50 14 q 68 14 68 14 q 130 40 104 14 q 157 101 156 65 l 161 101 m 161 871 l 157 871 q 130 933 156 907 q 68 958 104 958 q 59 958 68 958 q 50 958 50 958 l 50 972 l 161 972 l 161 871 z "},"È":{"ha":901,"x_min":50,"x_max":874,"o":"m 403 972 l 403 0 l 157 0 l 157 972 l 403 972 m 767 65 l 813 0 l 399 0 l 399 65 l 767 65 m 718 511 l 718 447 l 399 447 l 399 511 l 718 511 m 789 972 l 789 907 l 399 907 l 399 972 l 789 972 m 874 303 l 817 0 l 529 0 l 579 65 q 703 94 647 65 q 799 176 758 122 q 861 303 839 229 l 874 303 m 718 450 l 718 303 l 704 303 l 704 313 q 667 408 704 369 q 571 447 629 446 l 571 450 l 718 450 m 718 656 l 718 508 l 571 508 l 571 511 q 667 551 629 513 q 704 647 706 590 l 704 656 l 718 656 m 789 911 l 789 733 l 775 733 l 775 747 q 733 864 775 821 q 615 908 690 907 l 615 911 l 789 911 m 789 997 l 789 957 l 619 972 q 684 976 650 972 q 747 986 718 981 q 789 997 776 992 m 161 101 l 161 0 l 50 0 l 50 14 q 59 14 50 14 q 68 14 68 14 q 130 40 104 14 q 157 101 156 65 l 161 101 m 161 871 l 157 871 q 130 933 156 907 q 68 958 104 958 q 59 958 68 958 q 50 958 50 958 l 50 972 l 161 972 l 161 871 z "},"Ē":{"ha":901,"x_min":50,"x_max":874,"o":"m 403 972 l 403 0 l 157 0 l 157 972 l 403 972 m 767 65 l 813 0 l 399 0 l 399 65 l 767 65 m 718 511 l 718 447 l 399 447 l 399 511 l 718 511 m 789 972 l 789 907 l 399 907 l 399 972 l 789 972 m 874 303 l 817 0 l 529 0 l 579 65 q 703 94 647 65 q 799 176 758 122 q 861 303 839 229 l 874 303 m 718 450 l 718 303 l 704 303 l 704 313 q 667 408 704 369 q 571 447 629 446 l 571 450 l 718 450 m 718 656 l 718 508 l 571 508 l 571 511 q 667 551 629 513 q 704 647 706 590 l 704 656 l 718 656 m 789 911 l 789 733 l 775 733 l 775 747 q 733 864 775 821 q 615 908 690 907 l 615 911 l 789 911 m 789 997 l 789 957 l 619 972 q 684 976 650 972 q 747 986 718 981 q 789 997 776 992 m 161 101 l 161 0 l 50 0 l 50 14 q 59 14 50 14 q 68 14 68 14 q 130 40 104 14 q 157 101 156 65 l 161 101 m 161 871 l 157 871 q 130 933 156 907 q 68 958 104 958 q 59 958 68 958 q 50 958 50 958 l 50 972 l 161 972 l 161 871 z "},"Ę":{"ha":901,"x_min":50,"x_max":889,"o":"m 403 972 l 403 0 l 157 0 l 157 972 l 403 972 m 767 65 l 813 0 l 399 0 l 399 65 l 767 65 m 718 511 l 718 447 l 399 447 l 399 511 l 718 511 m 789 972 l 789 907 l 399 907 l 399 972 l 789 972 m 874 303 l 817 0 l 529 0 l 579 65 q 703 94 647 65 q 799 176 758 122 q 861 303 839 229 l 874 303 m 718 450 l 718 303 l 704 303 l 704 313 q 667 408 704 369 q 571 447 629 446 l 571 450 l 718 450 m 718 656 l 718 508 l 571 508 l 571 511 q 667 551 629 513 q 704 647 706 590 l 704 656 l 718 656 m 789 911 l 789 733 l 775 733 l 775 747 q 733 864 775 821 q 615 908 690 907 l 615 911 l 789 911 m 789 997 l 789 957 l 619 972 q 684 976 650 972 q 747 986 718 981 q 789 997 776 992 m 161 101 l 161 0 l 50 0 l 50 14 q 59 14 50 14 q 68 14 68 14 q 130 40 104 14 q 157 101 156 65 l 161 101 m 161 871 l 157 871 q 130 933 156 907 q 68 958 104 958 q 59 958 68 958 q 50 958 50 958 l 50 972 l 161 972 l 161 871 z "},"F":{"ha":851,"x_min":50,"x_max":789,"o":"m 403 972 l 403 0 l 157 0 l 157 972 l 403 972 m 718 511 l 718 447 l 399 447 l 399 511 l 718 511 m 789 972 l 789 907 l 399 907 l 399 972 l 789 972 m 718 450 l 718 303 l 704 303 l 704 313 q 667 408 704 369 q 571 447 629 446 l 571 450 l 718 450 m 718 656 l 718 508 l 571 508 l 571 511 q 667 551 629 513 q 704 647 706 590 l 704 656 l 718 656 m 789 911 l 789 736 l 775 736 l 775 750 q 733 865 775 822 q 618 908 692 907 l 618 911 l 789 911 m 789 997 l 789 957 l 619 972 q 684 976 650 972 q 747 986 718 981 q 789 997 776 992 m 161 101 l 161 0 l 50 0 l 50 14 q 59 14 50 14 q 68 14 68 14 q 130 40 104 14 q 157 101 156 65 l 161 101 m 161 871 l 157 871 q 130 933 156 907 q 68 958 104 958 q 59 958 68 958 q 50 958 50 958 l 50 972 l 161 972 l 161 871 m 399 101 l 403 101 q 430 40 404 65 q 492 14 456 14 q 500 14 492 14 q 510 14 508 14 l 510 0 l 399 0 l 399 101 z "},"G":{"ha":1179,"x_min":56,"x_max":1158,"o":"m 1068 389 l 1068 160 q 965 76 1035 118 q 799 8 896 35 q 589 -19 703 -19 q 308 42 428 -19 q 122 217 189 103 q 56 489 56 331 q 121 757 56 644 q 309 931 186 869 q 600 992 432 992 q 753 982 676 992 q 894 957 829 972 q 999 922 958 942 l 993 669 l 981 669 q 902 826 953 769 q 788 905 851 882 q 656 928 724 928 q 469 874 543 928 q 358 719 394 819 q 321 478 321 619 q 354 247 321 344 q 452 97 388 150 q 614 44 517 44 q 707 60 663 44 q 783 109 751 76 q 822 188 814 142 l 824 389 q 753 451 824 451 l 731 451 l 731 465 l 1158 465 l 1158 451 l 1138 451 q 1068 389 1065 451 z "},"Ğ":{"ha":1179,"x_min":56,"x_max":1158,"o":"m 1068 389 l 1068 160 q 965 76 1035 118 q 799 8 896 35 q 589 -19 703 -19 q 308 42 428 -19 q 122 217 189 103 q 56 489 56 331 q 121 757 56 644 q 309 931 186 869 q 600 992 432 992 q 753 982 676 992 q 894 957 829 972 q 999 922 958 942 l 993 669 l 981 669 q 902 826 953 769 q 788 905 851 882 q 656 928 724 928 q 469 874 543 928 q 358 719 394 819 q 321 478 321 619 q 354 247 321 344 q 452 97 388 150 q 614 44 517 44 q 707 60 663 44 q 783 109 751 76 q 822 188 814 142 l 824 389 q 753 451 824 451 l 731 451 l 731 465 l 1158 465 l 1158 451 l 1138 451 q 1068 389 1065 451 z "},"Ģ":{"ha":1179,"x_min":56,"x_max":1158,"o":"m 1068 389 l 1068 160 q 965 76 1035 118 q 799 8 896 35 q 589 -19 703 -19 q 308 42 428 -19 q 122 217 189 103 q 56 489 56 331 q 121 757 56 644 q 309 931 186 869 q 600 992 432 992 q 753 982 676 992 q 894 957 829 972 q 999 922 958 942 l 993 669 l 981 669 q 902 826 953 769 q 788 905 851 882 q 656 928 724 928 q 469 874 543 928 q 358 719 394 819 q 321 478 321 619 q 354 247 321 344 q 452 97 388 150 q 614 44 517 44 q 707 60 663 44 q 783 109 751 76 q 822 188 814 142 l 824 389 q 753 451 824 451 l 731 451 l 731 465 l 1158 465 l 1158 451 l 1138 451 q 1068 389 1065 451 m 528 -167 q 550 -110 528 -131 q 603 -89 572 -89 q 674 -124 650 -89 q 699 -207 699 -160 q 653 -319 699 -276 q 535 -364 608 -362 l 531 -350 q 563 -324 550 -342 q 576 -285 576 -307 q 572 -258 576 -272 q 553 -229 567 -243 q 535 -200 542 -215 q 528 -167 528 -185 z "},"Ġ":{"ha":1179,"x_min":56,"x_max":1158,"o":"m 1068 389 l 1068 160 q 965 76 1035 118 q 799 8 896 35 q 589 -19 703 -19 q 308 42 428 -19 q 122 217 189 103 q 56 489 56 331 q 121 757 56 644 q 309 931 186 869 q 600 992 432 992 q 753 982 676 992 q 894 957 829 972 q 999 922 958 942 l 993 669 l 981 669 q 902 826 953 769 q 788 905 851 882 q 656 928 724 928 q 469 874 543 928 q 358 719 394 819 q 321 478 321 619 q 354 247 321 344 q 452 97 388 150 q 614 44 517 44 q 707 60 663 44 q 783 109 751 76 q 822 188 814 142 l 824 389 q 753 451 824 451 l 731 451 l 731 465 l 1158 465 l 1158 451 l 1138 451 q 1068 389 1065 451 z "},"H":{"ha":1218,"x_min":50,"x_max":1168,"o":"m 1061 972 l 1061 0 l 815 0 l 815 972 l 1061 972 m 403 972 l 403 0 l 157 0 l 157 972 l 403 972 m 828 517 l 828 453 l 389 453 l 389 517 l 828 517 m 161 101 l 161 0 l 50 0 l 50 14 q 59 14 50 14 q 68 14 68 14 q 130 40 104 14 q 157 101 156 65 l 161 101 m 161 871 l 157 871 q 130 933 156 907 q 68 958 104 958 q 59 958 68 958 q 50 958 50 958 l 50 972 l 161 972 l 161 871 m 399 101 l 403 101 q 430 40 404 65 q 492 14 456 14 q 500 14 492 14 q 510 14 508 14 l 510 0 l 399 0 l 399 101 m 399 871 l 399 972 l 510 972 l 510 958 q 500 958 508 958 q 492 958 492 958 q 430 933 456 958 q 403 871 404 907 l 399 871 m 819 101 l 819 0 l 708 0 l 708 14 q 718 14 710 14 q 726 14 726 14 q 789 40 763 14 q 815 101 815 65 l 819 101 m 819 871 l 815 871 q 789 933 815 907 q 726 958 763 958 q 718 958 726 958 q 708 958 710 958 l 708 972 l 819 972 l 819 871 m 1057 101 l 1061 101 q 1088 40 1063 65 q 1150 14 1114 14 q 1159 14 1150 14 q 1168 14 1168 14 l 1168 0 l 1057 0 l 1057 101 m 1057 871 l 1057 972 l 1168 972 l 1168 958 q 1159 958 1168 958 q 1150 958 1150 958 q 1088 933 1114 958 q 1061 871 1063 907 l 1057 871 z "},"Ħ":{"ha":1208,"x_min":46,"x_max":1164,"o":"m 1150 744 l 1150 681 l 63 681 l 63 744 l 1150 744 m 1057 972 l 1057 0 l 811 0 l 811 972 l 1057 972 m 399 972 l 399 0 l 153 0 l 153 972 l 399 972 m 824 517 l 824 453 l 385 453 l 385 517 l 824 517 m 156 101 l 156 0 l 46 0 l 46 14 q 54 14 46 14 q 64 14 63 14 q 126 40 100 14 q 153 101 151 65 l 156 101 m 156 871 l 153 871 q 126 933 151 907 q 64 958 100 958 q 54 958 63 958 q 46 958 46 958 l 46 972 l 156 972 l 156 871 m 394 101 l 399 101 q 426 40 400 65 q 488 14 451 14 q 496 14 488 14 q 506 14 504 14 l 506 0 l 394 0 l 394 101 m 394 871 l 394 972 l 506 972 l 506 958 q 496 958 504 958 q 488 958 488 958 q 426 933 451 958 q 399 871 400 907 l 394 871 m 815 101 l 815 0 l 704 0 l 704 14 q 713 14 704 14 q 722 14 722 14 q 784 40 758 14 q 811 101 810 65 l 815 101 m 815 871 l 811 871 q 784 933 810 907 q 722 958 758 958 q 713 958 722 958 q 704 958 704 958 l 704 972 l 815 972 l 815 871 m 1053 101 l 1057 101 q 1084 40 1058 65 q 1146 14 1110 14 q 1155 14 1146 14 q 1164 14 1164 14 l 1164 0 l 1053 0 l 1053 101 m 1053 871 l 1053 972 l 1164 972 l 1164 958 q 1155 958 1164 958 q 1146 958 1146 958 q 1084 933 1110 958 q 1057 871 1058 907 l 1053 871 z "},"I":{"ha":558,"x_min":50,"x_max":510,"o":"m 403 972 l 403 0 l 157 0 l 157 972 l 403 972 m 161 101 l 161 0 l 50 0 l 50 14 q 59 14 50 14 q 68 14 68 14 q 130 40 104 14 q 157 101 156 65 l 161 101 m 161 871 l 157 871 q 130 933 156 907 q 68 958 104 958 q 59 958 68 958 q 50 958 50 958 l 50 972 l 161 972 l 161 871 m 399 101 l 403 101 q 430 40 404 65 q 492 14 456 14 q 500 14 492 14 q 510 14 508 14 l 510 0 l 399 0 l 399 101 m 399 871 l 399 972 l 510 972 l 510 958 q 500 958 508 958 q 492 958 492 958 q 430 933 456 958 q 403 871 404 907 l 399 871 z "},"Ĳ":{"ha":1121,"x_min":50,"x_max":1075,"o":"m 403 972 l 403 0 l 157 0 l 157 972 l 403 972 m 161 101 l 161 0 l 50 0 l 50 14 q 59 14 50 14 q 68 14 68 14 q 130 40 104 14 q 157 101 156 65 l 161 101 m 161 871 l 157 871 q 130 933 156 907 q 68 958 104 958 q 59 958 68 958 q 50 958 50 958 l 50 972 l 161 972 l 161 871 m 399 101 l 403 101 q 430 40 404 65 q 492 14 456 14 q 500 14 492 14 q 510 14 508 14 l 510 0 l 399 0 l 399 101 m 399 871 l 399 972 l 510 972 l 510 958 q 500 958 508 958 q 492 958 492 958 q 430 933 456 958 q 403 871 404 907 l 399 871 m 967 972 l 967 56 q 933 -92 967 -26 q 842 -202 900 -157 q 710 -267 783 -247 q 558 -278 636 -286 l 558 -265 q 656 -186 621 -237 q 706 -70 692 -135 q 721 60 721 -6 l 721 972 l 967 972 m 725 871 l 721 871 q 694 933 719 907 q 632 958 668 958 q 623 958 632 958 q 614 958 614 958 l 614 972 l 725 972 l 725 871 m 963 871 l 963 972 l 1074 972 l 1074 958 q 1065 958 1074 958 q 1056 958 1056 958 q 994 933 1019 958 q 967 871 968 907 l 963 871 z "},"Í":{"ha":558,"x_min":50,"x_max":565,"o":"m 403 972 l 403 0 l 157 0 l 157 972 l 403 972 m 161 101 l 161 0 l 50 0 l 50 14 q 59 14 50 14 q 68 14 68 14 q 130 40 104 14 q 157 101 156 65 l 161 101 m 161 871 l 157 871 q 130 933 156 907 q 68 958 104 958 q 59 958 68 958 q 50 958 50 958 l 50 972 l 161 972 l 161 871 m 399 101 l 403 101 q 430 40 404 65 q 492 14 456 14 q 500 14 492 14 q 510 14 508 14 l 510 0 l 399 0 l 399 101 m 399 871 l 399 972 l 510 972 l 510 958 q 500 958 508 958 q 492 958 492 958 q 430 933 456 958 q 403 871 404 907 l 399 871 z "},"Î":{"ha":558,"x_min":50,"x_max":517,"o":"m 403 972 l 403 0 l 157 0 l 157 972 l 403 972 m 161 101 l 161 0 l 50 0 l 50 14 q 59 14 50 14 q 68 14 68 14 q 130 40 104 14 q 157 101 156 65 l 161 101 m 161 871 l 157 871 q 130 933 156 907 q 68 958 104 958 q 59 958 68 958 q 50 958 50 958 l 50 972 l 161 972 l 161 871 m 399 101 l 403 101 q 430 40 404 65 q 492 14 456 14 q 500 14 492 14 q 510 14 508 14 l 510 0 l 399 0 l 399 101 m 399 871 l 399 972 l 510 972 l 510 958 q 500 958 508 958 q 492 958 492 958 q 430 933 456 958 q 403 871 404 907 l 399 871 z "},"Ï":{"ha":558,"x_min":10,"x_max":539,"o":"m 403 972 l 403 0 l 157 0 l 157 972 l 403 972 m 161 101 l 161 0 l 50 0 l 50 14 q 59 14 50 14 q 68 14 68 14 q 130 40 104 14 q 157 101 156 65 l 161 101 m 161 871 l 157 871 q 130 933 156 907 q 68 958 104 958 q 59 958 68 958 q 50 958 50 958 l 50 972 l 161 972 l 161 871 m 399 101 l 403 101 q 430 40 404 65 q 492 14 456 14 q 500 14 492 14 q 510 14 508 14 l 510 0 l 399 0 l 399 101 m 399 871 l 399 972 l 510 972 l 510 958 q 500 958 508 958 q 492 958 492 958 q 430 933 456 958 q 403 871 404 907 l 399 871 z "},"İ":{"ha":558,"x_min":50,"x_max":510,"o":"m 403 972 l 403 0 l 157 0 l 157 972 l 403 972 m 161 101 l 161 0 l 50 0 l 50 14 q 59 14 50 14 q 68 14 68 14 q 130 40 104 14 q 157 101 156 65 l 161 101 m 161 871 l 157 871 q 130 933 156 907 q 68 958 104 958 q 59 958 68 958 q 50 958 50 958 l 50 972 l 161 972 l 161 871 m 399 101 l 403 101 q 430 40 404 65 q 492 14 456 14 q 500 14 492 14 q 510 14 508 14 l 510 0 l 399 0 l 399 101 m 399 871 l 399 972 l 510 972 l 510 958 q 500 958 508 958 q 492 958 492 958 q 430 933 456 958 q 403 871 404 907 l 399 871 z "},"Ì":{"ha":558,"x_min":8,"x_max":510,"o":"m 403 972 l 403 0 l 157 0 l 157 972 l 403 972 m 161 101 l 161 0 l 50 0 l 50 14 q 59 14 50 14 q 68 14 68 14 q 130 40 104 14 q 157 101 156 65 l 161 101 m 161 871 l 157 871 q 130 933 156 907 q 68 958 104 958 q 59 958 68 958 q 50 958 50 958 l 50 972 l 161 972 l 161 871 m 399 101 l 403 101 q 430 40 404 65 q 492 14 456 14 q 500 14 492 14 q 510 14 508 14 l 510 0 l 399 0 l 399 101 m 399 871 l 399 972 l 510 972 l 510 958 q 500 958 508 958 q 492 958 492 958 q 430 933 456 958 q 403 871 404 907 l 399 871 m 321 1071 l 311 1061 q 210 1090 264 1071 q 103 1135 156 1108 q 8 1188 51 1161 q 47 1263 22 1232 q 114 1314 71 1293 q 186 1247 146 1288 q 263 1160 226 1207 q 321 1071 300 1114 z "},"Ī":{"ha":558,"x_min":50,"x_max":510,"o":"m 403 972 l 403 0 l 157 0 l 157 972 l 403 972 m 161 101 l 161 0 l 50 0 l 50 14 q 59 14 50 14 q 68 14 68 14 q 130 40 104 14 q 157 101 156 65 l 161 101 m 161 871 l 157 871 q 130 933 156 907 q 68 958 104 958 q 59 958 68 958 q 50 958 50 958 l 50 972 l 161 972 l 161 871 m 399 101 l 403 101 q 430 40 404 65 q 492 14 456 14 q 500 14 492 14 q 510 14 508 14 l 510 0 l 399 0 l 399 101 m 399 871 l 399 972 l 510 972 l 510 958 q 500 958 508 958 q 492 958 492 958 q 430 933 456 958 q 403 871 404 907 l 399 871 z "},"Į":{"ha":558,"x_min":50,"x_max":510,"o":"m 403 972 l 403 0 l 157 0 l 157 972 l 403 972 m 161 101 l 161 0 l 50 0 l 50 14 q 59 14 50 14 q 68 14 68 14 q 130 40 104 14 q 157 101 156 65 l 161 101 m 161 871 l 157 871 q 130 933 156 907 q 68 958 104 958 q 59 958 68 958 q 50 958 50 958 l 50 972 l 161 972 l 161 871 m 399 101 l 403 101 q 430 40 404 65 q 492 14 456 14 q 500 14 492 14 q 510 14 508 14 l 510 0 l 399 0 l 399 101 m 399 871 l 399 972 l 510 972 l 510 958 q 500 958 508 958 q 492 958 492 958 q 430 933 456 958 q 403 871 404 907 l 399 871 z "},"J":{"ha":561,"x_min":0,"x_max":515,"o":"m 408 972 l 408 56 q 375 -92 408 -26 q 283 -202 342 -157 q 151 -267 225 -247 q 0 -278 78 -286 l 0 -265 q 98 -186 63 -237 q 148 -70 133 -135 q 163 60 163 -6 l 163 972 l 408 972 m 167 871 l 163 871 q 135 933 161 907 q 74 958 110 958 q 65 958 74 958 q 56 958 56 958 l 56 972 l 167 972 l 167 871 m 404 871 l 404 972 l 515 972 l 515 958 q 506 958 515 958 q 497 958 497 958 q 435 933 461 958 q 408 871 410 907 l 404 871 z "},"K":{"ha":1097,"x_min":50,"x_max":1129,"o":"m 629 618 l 983 110 q 1051 39 1015 63 q 1129 14 1086 15 l 1129 0 l 996 0 q 943 1 982 0 q 855 13 904 3 q 756 50 806 24 q 668 128 706 76 q 640 167 660 139 q 597 231 621 194 q 546 305 572 267 q 497 376 519 343 q 461 429 475 408 q 447 450 447 450 l 629 618 m 960 963 l 542 461 l 447 450 l 829 963 l 960 963 m 1058 972 l 1058 960 l 1053 960 q 967 941 1007 960 q 900 892 928 922 l 779 894 q 785 939 796 918 q 746 960 775 960 l 732 960 l 732 972 l 1053 972 l 1058 972 m 403 972 l 403 0 l 157 0 l 157 972 l 403 972 m 161 101 l 161 0 l 50 0 l 50 14 q 59 14 51 14 q 68 14 67 14 q 130 40 104 14 q 157 101 156 65 l 161 101 m 161 871 l 157 871 q 130 933 156 907 q 68 958 104 958 q 59 958 67 958 q 50 958 51 958 l 50 972 l 161 972 l 161 871 m 399 101 l 403 101 q 430 40 404 65 q 492 14 456 14 q 502 14 494 14 q 510 14 510 14 l 510 0 l 399 0 l 399 101 m 399 871 l 399 972 l 510 972 l 510 958 q 501 958 508 958 q 492 958 494 958 q 430 933 456 958 q 403 871 404 907 l 399 871 z "},"Ķ":{"ha":1097,"x_min":50,"x_max":1129,"o":"m 629 618 l 983 110 q 1051 39 1015 63 q 1129 14 1086 15 l 1129 0 l 996 0 q 943 1 982 0 q 855 13 904 3 q 756 50 806 24 q 668 128 706 76 q 640 167 660 139 q 597 231 621 194 q 546 305 572 267 q 497 376 519 343 q 461 429 475 408 q 447 450 447 450 l 629 618 m 960 963 l 542 461 l 447 450 l 829 963 l 960 963 m 1058 972 l 1058 960 l 1053 960 q 967 941 1007 960 q 900 892 928 922 l 779 894 q 785 939 796 918 q 746 960 775 960 l 732 960 l 732 972 l 1053 972 l 1058 972 m 403 972 l 403 0 l 157 0 l 157 972 l 403 972 m 161 101 l 161 0 l 50 0 l 50 14 q 59 14 51 14 q 68 14 67 14 q 130 40 104 14 q 157 101 156 65 l 161 101 m 161 871 l 157 871 q 130 933 156 907 q 68 958 104 958 q 59 958 67 958 q 50 958 51 958 l 50 972 l 161 972 l 161 871 m 399 101 l 403 101 q 430 40 404 65 q 492 14 456 14 q 502 14 494 14 q 510 14 510 14 l 510 0 l 399 0 l 399 101 m 399 871 l 399 972 l 510 972 l 510 958 q 501 958 508 958 q 492 958 494 958 q 430 933 456 958 q 403 871 404 907 l 399 871 m 547 -167 q 569 -110 547 -131 q 622 -89 592 -89 q 694 -124 669 -89 q 718 -207 718 -160 q 673 -319 718 -276 q 554 -364 628 -362 l 550 -350 q 583 -324 569 -342 q 596 -285 596 -307 q 591 -258 596 -272 q 572 -229 586 -243 q 554 -200 561 -215 q 547 -167 547 -185 z "},"L":{"ha":881,"x_min":50,"x_max":874,"o":"m 403 972 l 403 0 l 157 0 l 157 972 l 403 972 m 767 65 l 813 0 l 399 0 l 399 65 l 767 65 m 874 303 l 817 0 l 529 0 l 579 65 q 703 94 647 65 q 799 176 758 122 q 861 303 839 229 l 874 303 m 161 101 l 161 0 l 50 0 l 50 14 q 59 14 50 14 q 68 14 68 14 q 130 40 104 14 q 157 101 156 65 l 161 101 m 161 871 l 157 871 q 130 933 156 907 q 68 958 104 958 q 59 958 68 958 q 50 958 50 958 l 50 972 l 161 972 l 161 871 m 399 871 l 399 972 l 510 972 l 510 958 q 500 958 508 958 q 492 958 492 958 q 430 933 456 958 q 403 871 404 907 l 399 871 z "},"Ĺ":{"ha":881,"x_min":50,"x_max":874,"o":"m 403 972 l 403 0 l 157 0 l 157 972 l 403 972 m 767 65 l 813 0 l 399 0 l 399 65 l 767 65 m 874 303 l 817 0 l 529 0 l 579 65 q 703 94 647 65 q 799 176 758 122 q 861 303 839 229 l 874 303 m 161 101 l 161 0 l 50 0 l 50 14 q 59 14 50 14 q 68 14 68 14 q 130 40 104 14 q 157 101 156 65 l 161 101 m 161 871 l 157 871 q 130 933 156 907 q 68 958 104 958 q 59 958 68 958 q 50 958 50 958 l 50 972 l 161 972 l 161 871 m 399 871 l 399 972 l 510 972 l 510 958 q 500 958 508 958 q 492 958 492 958 q 430 933 456 958 q 403 871 404 907 l 399 871 z "},"Ľ":{"ha":881,"x_min":50,"x_max":874,"o":"m 403 972 l 403 0 l 157 0 l 157 972 l 403 972 m 767 65 l 813 0 l 399 0 l 399 65 l 767 65 m 874 303 l 817 0 l 529 0 l 579 65 q 703 94 647 65 q 799 176 758 122 q 861 303 839 229 l 874 303 m 161 101 l 161 0 l 50 0 l 50 14 q 59 14 50 14 q 68 14 68 14 q 130 40 104 14 q 157 101 156 65 l 161 101 m 161 871 l 157 871 q 130 933 156 907 q 68 958 104 958 q 59 958 68 958 q 50 958 50 958 l 50 972 l 161 972 l 161 871 m 399 871 l 399 972 l 510 972 l 510 958 q 500 958 508 958 q 492 958 492 958 q 430 933 456 958 q 403 871 404 907 l 399 871 m 604 965 q 649 983 624 982 q 699 972 675 985 q 735 932 722 958 q 748 848 753 890 q 719 772 743 806 q 660 722 696 739 q 583 711 625 704 l 581 724 q 615 751 601 732 q 626 794 628 769 q 601 843 625 818 q 578 908 578 871 q 604 965 579 944 z "},"Ļ":{"ha":881,"x_min":50,"x_max":874,"o":"m 403 972 l 403 0 l 157 0 l 157 972 l 403 972 m 767 65 l 813 0 l 399 0 l 399 65 l 767 65 m 874 303 l 817 0 l 529 0 l 579 65 q 703 94 647 65 q 799 176 758 122 q 861 303 839 229 l 874 303 m 161 101 l 161 0 l 50 0 l 50 14 q 59 14 50 14 q 68 14 68 14 q 130 40 104 14 q 157 101 156 65 l 161 101 m 161 871 l 157 871 q 130 933 156 907 q 68 958 104 958 q 59 958 68 958 q 50 958 50 958 l 50 972 l 161 972 l 161 871 m 399 871 l 399 972 l 510 972 l 510 958 q 500 958 508 958 q 492 958 492 958 q 430 933 456 958 q 403 871 404 907 l 399 871 m 397 -167 q 419 -110 397 -131 q 472 -89 442 -89 q 544 -124 519 -89 q 568 -207 568 -160 q 523 -319 568 -276 q 404 -364 478 -362 l 400 -350 q 433 -324 419 -342 q 446 -285 446 -307 q 441 -258 446 -272 q 422 -229 436 -243 q 404 -200 411 -215 q 397 -167 397 -185 z "},"Ŀ":{"ha":881,"x_min":50,"x_max":874,"o":"m 403 972 l 403 0 l 157 0 l 157 972 l 403 972 m 161 101 l 161 0 l 50 0 l 50 14 q 59 14 50 14 q 68 14 68 14 q 130 40 104 14 q 157 101 156 65 l 161 101 m 767 65 l 813 0 l 399 0 l 399 65 l 767 65 m 874 303 l 817 0 l 529 0 l 579 65 q 703 94 647 65 q 799 176 758 122 q 861 303 839 229 l 874 303 m 161 972 l 161 871 l 157 871 q 130 933 156 907 q 68 958 104 958 q 59 958 68 958 q 50 958 50 958 l 50 972 l 161 972 m 510 972 l 510 958 q 500 958 508 958 q 492 958 492 958 q 430 933 456 958 q 403 871 404 907 l 399 871 l 399 972 l 510 972 m 614 476 q 547 503 575 476 q 519 569 519 531 q 547 638 519 610 q 614 665 575 665 q 681 638 653 665 q 708 569 708 610 q 681 503 708 531 q 614 476 653 476 z "},"Ł":{"ha":881,"x_min":25,"x_max":874,"o":"m 403 972 l 403 0 l 157 0 l 157 972 l 403 972 m 161 972 l 161 871 l 157 871 q 130 933 156 907 q 68 958 104 958 q 59 958 68 958 q 50 958 50 958 l 50 972 l 161 972 m 510 972 l 510 958 q 500 958 508 958 q 492 958 492 958 q 430 933 456 958 q 403 871 404 907 l 399 871 l 399 972 l 510 972 m 161 101 l 161 0 l 50 0 l 50 14 q 59 14 50 14 q 68 14 68 14 q 130 40 104 14 q 157 101 156 65 l 161 101 m 767 65 l 813 0 l 399 0 l 399 65 l 767 65 m 874 303 l 817 0 l 529 0 l 579 65 q 703 94 647 65 q 799 176 758 122 q 861 303 839 229 l 874 303 m 25 381 l 524 669 l 556 611 l 58 322 l 25 381 z "},"M":{"ha":1335,"x_min":-24,"x_max":1360,"o":"m 1100 992 l 1111 822 l 678 126 q 664 102 678 126 q 636 42 650 78 q 622 -31 622 6 l 610 -31 l 543 101 l 1100 992 m 131 101 l 131 0 l -24 0 l -24 14 q -12 14 -22 14 q -1 14 -1 14 q 65 37 36 14 q 100 101 94 60 l 131 101 m 199 79 q 199 76 199 78 q 199 72 199 75 q 215 31 199 50 q 253 13 231 13 l 275 13 l 275 0 l 189 0 l 189 79 l 199 79 m 218 992 l 231 992 l 288 833 l 189 0 l 86 0 l 218 992 m 231 992 l 703 285 l 610 -31 l 193 606 l 231 992 m 1113 992 l 1249 0 l 989 0 l 921 572 l 1100 992 l 1113 992 m 1206 101 l 1236 101 q 1272 37 1243 60 q 1338 14 1300 14 q 1348 14 1338 14 q 1360 14 1358 14 l 1360 0 l 1206 0 l 1206 101 m 981 79 l 990 79 l 990 0 l 904 0 l 904 13 l 926 13 q 965 31 949 13 q 981 72 981 50 q 981 76 981 75 q 981 79 981 78 z "},"N":{"ha":1213,"x_min":35,"x_max":1178,"o":"m 143 993 l 1054 154 l 1071 -19 l 160 818 l 143 993 m 150 99 l 150 0 l 35 0 l 35 14 q 47 14 35 14 q 61 14 60 14 q 121 39 96 14 q 146 99 146 64 l 150 99 m 388 99 q 413 39 388 64 q 472 14 438 14 q 486 14 474 14 q 499 14 499 14 l 499 0 l 383 0 l 383 99 l 388 99 m 143 993 l 386 736 l 388 0 l 146 0 l 146 819 q 138 946 146 899 q 129 993 129 993 l 143 993 m 1067 972 l 1067 158 q 1072 64 1067 104 q 1080 2 1076 24 q 1083 -19 1083 -19 l 1071 -19 l 826 254 l 826 972 l 1067 972 m 1178 972 l 1178 958 q 1165 958 1178 958 q 1153 958 1153 958 q 1093 934 1118 958 q 1067 874 1068 910 l 1063 874 l 1063 972 l 1178 972 m 714 972 l 829 972 l 829 874 l 826 874 q 801 934 825 910 q 740 958 776 958 q 728 958 740 958 q 714 958 715 958 l 714 972 z "},"Ń":{"ha":1213,"x_min":35,"x_max":1178,"o":"m 143 993 l 1054 154 l 1071 -19 l 160 818 l 143 993 m 150 99 l 150 0 l 35 0 l 35 14 q 47 14 35 14 q 61 14 60 14 q 121 39 96 14 q 146 99 146 64 l 150 99 m 388 99 q 413 39 388 64 q 472 14 438 14 q 486 14 474 14 q 499 14 499 14 l 499 0 l 383 0 l 383 99 l 388 99 m 143 993 l 386 736 l 388 0 l 146 0 l 146 819 q 138 946 146 899 q 129 993 129 993 l 143 993 m 1067 972 l 1067 158 q 1072 64 1067 104 q 1080 2 1076 24 q 1083 -19 1083 -19 l 1071 -19 l 826 254 l 826 972 l 1067 972 m 1178 972 l 1178 958 q 1165 958 1178 958 q 1153 958 1153 958 q 1093 934 1118 958 q 1067 874 1068 910 l 1063 874 l 1063 972 l 1178 972 m 714 972 l 829 972 l 829 874 l 826 874 q 801 934 825 910 q 740 958 776 958 q 728 958 740 958 q 714 958 715 958 l 714 972 z "},"Ň":{"ha":1213,"x_min":35,"x_max":1178,"o":"m 143 993 l 1054 154 l 1071 -19 l 160 818 l 143 993 m 150 99 l 150 0 l 35 0 l 35 14 q 47 14 35 14 q 61 14 60 14 q 121 39 96 14 q 146 99 146 64 l 150 99 m 388 99 q 413 39 388 64 q 472 14 438 14 q 486 14 474 14 q 499 14 499 14 l 499 0 l 383 0 l 383 99 l 388 99 m 143 993 l 386 736 l 388 0 l 146 0 l 146 819 q 138 946 146 899 q 129 993 129 993 l 143 993 m 1067 972 l 1067 158 q 1072 64 1067 104 q 1080 2 1076 24 q 1083 -19 1083 -19 l 1071 -19 l 826 254 l 826 972 l 1067 972 m 1178 972 l 1178 958 q 1165 958 1178 958 q 1153 958 1153 958 q 1093 934 1118 958 q 1067 874 1068 910 l 1063 874 l 1063 972 l 1178 972 m 714 972 l 829 972 l 829 874 l 826 874 q 801 934 825 910 q 740 958 776 958 q 728 958 740 958 q 714 958 715 958 l 714 972 z "},"Ņ":{"ha":1213,"x_min":35,"x_max":1178,"o":"m 143 993 l 1054 154 l 1071 -19 l 160 818 l 143 993 m 150 99 l 150 0 l 35 0 l 35 14 q 47 14 35 14 q 61 14 60 14 q 121 39 96 14 q 146 99 146 64 l 150 99 m 388 99 q 413 39 388 64 q 472 14 438 14 q 486 14 474 14 q 499 14 499 14 l 499 0 l 383 0 l 383 99 l 388 99 m 143 993 l 386 736 l 388 0 l 146 0 l 146 819 q 138 946 146 899 q 129 993 129 993 l 143 993 m 1067 972 l 1067 158 q 1072 64 1067 104 q 1080 2 1076 24 q 1083 -19 1083 -19 l 1071 -19 l 826 254 l 826 972 l 1067 972 m 1178 972 l 1178 958 q 1165 958 1178 958 q 1153 958 1153 958 q 1093 934 1118 958 q 1067 874 1068 910 l 1063 874 l 1063 972 l 1178 972 m 714 972 l 829 972 l 829 874 l 826 874 q 801 934 825 910 q 740 958 776 958 q 728 958 740 958 q 714 958 715 958 l 714 972 m 601 -167 q 624 -110 601 -131 q 676 -89 646 -89 q 748 -124 724 -89 q 772 -207 772 -160 q 727 -319 772 -276 q 608 -364 682 -362 l 604 -350 q 637 -324 624 -342 q 650 -285 650 -307 q 645 -258 650 -272 q 626 -229 640 -243 q 608 -200 615 -215 q 601 -167 601 -185 z "},"Ŋ":{"ha":1218,"x_min":35,"x_max":1172,"o":"m 140 993 l 372 736 l 374 0 l 143 0 l 143 819 q 135 946 143 899 q 126 993 126 993 l 140 993 m 147 97 l 147 0 l 35 0 l 35 15 q 47 15 35 15 q 60 15 60 15 q 119 39 94 15 q 143 97 143 63 l 147 97 m 374 97 q 398 39 374 63 q 457 15 422 15 q 470 15 458 15 q 482 15 482 15 l 482 0 l 369 0 l 369 97 l 374 97 m 1068 -19 l 157 818 l 140 993 l 1051 154 l 1068 -19 m 1068 -12 q 1040 -142 1068 -86 q 963 -232 1011 -197 q 851 -278 914 -267 q 719 -276 788 -290 l 713 -265 q 766 -219 743 -242 q 804 -165 789 -196 q 827 -85 819 -133 q 835 39 835 -36 l 835 972 l 1064 972 l 1068 -12 m 725 972 l 838 972 l 838 875 l 833 875 q 809 933 833 910 q 750 957 785 957 q 738 957 750 957 q 725 957 725 957 l 725 972 m 1172 972 l 1172 957 q 1160 957 1172 957 q 1147 957 1147 957 q 1090 933 1114 957 q 1064 875 1065 910 l 1060 875 l 1060 972 l 1172 972 z "},"Ñ":{"ha":1213,"x_min":35,"x_max":1178,"o":"m 143 993 l 1054 154 l 1071 -19 l 160 818 l 143 993 m 150 99 l 150 0 l 35 0 l 35 14 q 47 14 35 14 q 61 14 60 14 q 121 39 96 14 q 146 99 146 64 l 150 99 m 388 99 q 413 39 388 64 q 472 14 438 14 q 486 14 474 14 q 499 14 499 14 l 499 0 l 383 0 l 383 99 l 388 99 m 143 993 l 386 736 l 388 0 l 146 0 l 146 819 q 138 946 146 899 q 129 993 129 993 l 143 993 m 1067 972 l 1067 158 q 1072 64 1067 104 q 1080 2 1076 24 q 1083 -19 1083 -19 l 1071 -19 l 826 254 l 826 972 l 1067 972 m 1178 972 l 1178 958 q 1165 958 1178 958 q 1153 958 1153 958 q 1093 934 1118 958 q 1067 874 1068 910 l 1063 874 l 1063 972 l 1178 972 m 714 972 l 829 972 l 829 874 l 826 874 q 801 934 825 910 q 740 958 776 958 q 728 958 740 958 q 714 958 715 958 l 714 972 z "},"O":{"ha":1239,"x_min":58,"x_max":1182,"o":"m 619 992 q 919 931 793 992 q 1114 757 1046 869 q 1182 486 1182 644 q 1114 216 1182 329 q 919 42 1046 103 q 619 -19 793 -19 q 320 42 446 -19 q 126 215 194 103 q 58 486 58 328 q 126 756 58 643 q 320 931 194 869 q 619 992 446 992 m 619 44 q 777 98 711 44 q 878 250 843 151 q 914 486 914 349 q 878 722 914 624 q 777 874 843 821 q 619 928 711 928 q 463 874 528 928 q 362 722 397 821 q 326 486 326 624 q 362 250 326 349 q 463 98 397 151 q 619 44 528 44 z "},"Ó":{"ha":1239,"x_min":58,"x_max":1182,"o":"m 619 992 q 919 931 793 992 q 1114 757 1046 869 q 1182 486 1182 644 q 1114 216 1182 329 q 919 42 1046 103 q 619 -19 793 -19 q 320 42 446 -19 q 126 215 194 103 q 58 486 58 328 q 126 756 58 643 q 320 931 194 869 q 619 992 446 992 m 619 44 q 777 98 711 44 q 878 250 843 151 q 914 486 914 349 q 878 722 914 624 q 777 874 843 821 q 619 928 711 928 q 463 874 528 928 q 362 722 397 821 q 326 486 326 624 q 362 250 326 349 q 463 98 397 151 q 619 44 528 44 z "},"Ô":{"ha":1239,"x_min":58,"x_max":1182,"o":"m 619 992 q 919 931 793 992 q 1114 757 1046 869 q 1182 486 1182 644 q 1114 216 1182 329 q 919 42 1046 103 q 619 -19 793 -19 q 320 42 446 -19 q 126 215 194 103 q 58 486 58 328 q 126 756 58 643 q 320 931 194 869 q 619 992 446 992 m 619 44 q 777 98 711 44 q 878 250 843 151 q 914 486 914 349 q 878 722 914 624 q 777 874 843 821 q 619 928 711 928 q 463 874 528 928 q 362 722 397 821 q 326 486 326 624 q 362 250 326 349 q 463 98 397 151 q 619 44 528 44 z "},"Ö":{"ha":1239,"x_min":58,"x_max":1182,"o":"m 619 992 q 919 931 793 992 q 1114 757 1046 869 q 1182 486 1182 644 q 1114 216 1182 329 q 919 42 1046 103 q 619 -19 793 -19 q 320 42 446 -19 q 126 215 194 103 q 58 486 58 328 q 126 756 58 643 q 320 931 194 869 q 619 992 446 992 m 619 44 q 777 98 711 44 q 878 250 843 151 q 914 486 914 349 q 878 722 914 624 q 777 874 843 821 q 619 928 711 928 q 463 874 528 928 q 362 722 397 821 q 326 486 326 624 q 362 250 326 349 q 463 98 397 151 q 619 44 528 44 z "},"Ò":{"ha":1239,"x_min":58,"x_max":1182,"o":"m 619 992 q 919 931 793 992 q 1114 757 1046 869 q 1182 486 1182 644 q 1114 216 1182 329 q 919 42 1046 103 q 619 -19 793 -19 q 320 42 446 -19 q 126 215 194 103 q 58 486 58 328 q 126 756 58 643 q 320 931 194 869 q 619 992 446 992 m 619 44 q 782 98 715 44 q 884 250 849 151 q 919 486 919 349 q 884 722 919 624 q 782 874 849 821 q 619 928 715 928 q 458 874 525 928 q 356 722 390 821 q 321 486 321 624 q 356 250 321 349 q 458 98 390 151 q 619 44 525 44 m 651 1086 l 642 1076 q 540 1106 594 1086 q 433 1151 486 1125 q 338 1204 381 1176 q 376 1278 351 1247 q 444 1329 400 1308 q 515 1263 475 1303 q 593 1176 556 1222 q 651 1086 631 1129 z "},"Ő":{"ha":1239,"x_min":58,"x_max":1182,"o":"m 619 992 q 919 931 793 992 q 1114 757 1046 869 q 1182 486 1182 644 q 1114 216 1182 329 q 919 42 1046 103 q 619 -19 793 -19 q 320 42 446 -19 q 126 215 194 103 q 58 486 58 328 q 126 756 58 643 q 320 931 194 869 q 619 992 446 992 m 619 44 q 777 98 711 44 q 878 250 843 151 q 914 486 914 349 q 878 722 914 624 q 777 874 843 821 q 619 928 711 928 q 463 874 528 928 q 362 722 397 821 q 326 486 326 624 q 362 250 326 349 q 463 98 397 151 q 619 44 528 44 z "},"Ō":{"ha":1239,"x_min":58,"x_max":1182,"o":"m 619 992 q 919 931 793 992 q 1114 757 1046 869 q 1182 486 1182 644 q 1114 216 1182 329 q 919 42 1046 103 q 619 -19 793 -19 q 320 42 446 -19 q 126 215 194 103 q 58 486 58 328 q 126 756 58 643 q 320 931 194 869 q 619 992 446 992 m 619 44 q 777 98 711 44 q 878 250 843 151 q 914 486 914 349 q 878 722 914 624 q 777 874 843 821 q 619 928 711 928 q 463 874 528 928 q 362 722 397 821 q 326 486 326 624 q 362 250 326 349 q 463 98 397 151 q 619 44 528 44 z "},"Ø":{"ha":1236,"x_min":58,"x_max":1179,"o":"m 618 992 q 917 931 792 992 q 1111 757 1043 869 q 1179 486 1179 644 q 1111 216 1179 329 q 917 42 1043 103 q 618 -19 792 -19 q 319 42 444 -19 q 126 215 194 103 q 58 486 58 328 q 126 756 58 643 q 319 931 194 869 q 618 992 444 992 m 618 44 q 781 98 714 44 q 883 250 847 151 q 918 486 918 349 q 883 722 918 624 q 781 874 847 821 q 618 928 714 928 q 457 874 524 928 q 355 722 390 821 q 319 486 319 624 q 355 250 319 349 q 457 98 390 151 q 618 44 524 44 m 999 1007 l 1056 964 l 207 -32 l 151 14 l 999 1007 z "},"Õ":{"ha":1239,"x_min":58,"x_max":1182,"o":"m 619 992 q 919 931 793 992 q 1114 757 1046 869 q 1182 486 1182 644 q 1114 216 1182 329 q 919 42 1046 103 q 619 -19 793 -19 q 320 42 446 -19 q 126 215 194 103 q 58 486 58 328 q 126 756 58 643 q 320 931 194 869 q 619 992 446 992 m 619 44 q 777 98 711 44 q 878 250 843 151 q 914 486 914 349 q 878 722 914 624 q 777 874 843 821 q 619 928 711 928 q 463 874 528 928 q 362 722 397 821 q 326 486 326 624 q 362 250 326 349 q 463 98 397 151 q 619 44 528 44 z "},"Œ":{"ha":1540,"x_min":58,"x_max":1515,"o":"m 628 992 q 710 988 674 992 q 785 979 747 985 q 831 974 808 976 q 879 972 854 972 l 881 0 q 851 0 869 0 q 806 -3 833 0 q 747 -10 775 -6 q 686 -17 718 -14 q 614 -19 654 -19 q 322 42 447 -19 q 127 217 196 103 q 58 488 58 331 q 127 758 58 646 q 323 931 196 871 q 628 992 450 992 m 631 44 q 717 58 681 44 q 776 93 754 72 q 797 133 797 114 l 797 839 q 776 880 797 860 q 718 914 756 900 q 632 928 681 928 q 469 876 540 928 q 356 727 397 825 q 314 486 315 629 q 353 250 314 349 q 465 98 393 151 q 631 44 536 44 m 1044 972 l 1044 0 l 799 1 l 799 972 l 1044 972 m 1408 65 l 1454 0 l 1040 0 l 1039 65 l 1408 65 m 1361 511 l 1361 447 l 1040 447 l 1040 511 l 1361 511 m 1431 972 l 1431 907 l 1039 907 l 1039 972 l 1431 972 m 1515 303 l 1458 0 l 1172 0 l 1222 65 q 1345 94 1290 65 q 1440 176 1400 122 q 1501 303 1481 229 l 1515 303 m 1361 450 l 1361 303 l 1347 303 l 1347 313 q 1309 408 1347 369 q 1213 447 1271 446 l 1213 450 l 1361 450 m 1361 656 l 1361 508 l 1213 508 l 1213 511 q 1309 551 1271 513 q 1347 647 1347 590 l 1347 656 l 1361 656 m 1431 911 l 1431 733 l 1417 733 l 1417 747 q 1374 864 1417 821 q 1257 908 1332 907 l 1257 911 l 1431 911 m 1431 997 l 1431 957 l 1261 972 q 1326 976 1292 972 q 1389 986 1360 981 q 1431 997 1418 992 z "},"P":{"ha":946,"x_min":56,"x_max":919,"o":"m 390 972 l 551 972 q 759 936 681 972 q 875 840 838 900 q 917 707 913 781 q 893 572 919 632 q 819 472 867 513 q 710 415 771 432 q 584 408 650 397 q 456 460 518 418 l 456 474 q 471 474 456 474 q 510 483 486 475 q 561 506 535 490 q 611 553 588 522 q 647 635 635 585 q 655 676 653 654 q 656 718 657 699 q 607 857 653 806 q 479 908 561 908 l 404 908 q 401 924 404 908 q 394 956 397 940 q 390 972 390 972 m 408 972 l 408 0 l 163 0 l 163 972 l 408 972 m 167 101 l 167 0 l 56 0 l 56 14 q 65 14 58 14 q 74 14 72 14 q 135 40 110 14 q 163 101 161 65 l 167 101 m 167 871 l 163 871 q 136 933 163 907 q 74 958 110 958 q 66 958 72 958 q 57 958 60 958 l 56 972 l 167 972 l 167 871 m 404 101 l 408 101 q 435 40 410 65 q 497 14 461 14 q 508 14 500 14 q 515 14 515 14 l 515 0 l 404 0 l 404 101 z "},"Þ":{"ha":940,"x_min":60,"x_max":914,"o":"m 414 972 l 414 0 l 167 0 l 167 972 l 414 972 m 169 101 l 169 0 l 60 0 l 60 14 q 68 14 60 14 q 78 14 76 14 q 140 40 114 14 q 167 101 165 65 l 169 101 m 169 871 l 167 871 q 140 933 165 907 q 78 958 114 958 q 68 958 76 958 q 60 958 60 958 l 60 972 l 169 972 l 169 871 m 410 101 l 414 101 q 440 40 414 65 q 503 14 467 14 q 511 14 503 14 q 519 14 519 14 l 519 0 l 410 0 l 410 101 m 410 871 l 410 972 l 519 972 l 519 958 q 511 958 519 958 q 503 958 503 958 q 440 933 467 958 q 414 871 414 907 l 410 871 m 386 772 l 547 772 q 755 736 676 772 q 870 640 833 700 q 910 507 907 581 q 887 372 914 432 q 813 272 860 313 q 705 215 765 232 q 579 208 644 197 q 451 260 514 218 l 451 274 q 467 274 451 274 q 506 283 482 275 q 556 306 531 290 q 606 353 582 322 q 643 435 631 385 q 651 476 649 454 q 651 518 653 499 q 603 657 649 606 q 475 708 557 708 l 400 708 q 397 724 400 708 q 390 756 393 740 q 386 772 386 772 z "},"Q":{"ha":1246,"x_min":61,"x_max":1899,"o":"m 617 -19 l 560 42 q 731 26 657 35 q 864 6 804 17 q 981 -23 924 -6 q 1103 -65 1038 -40 q 1256 -121 1169 -89 q 1446 -174 1356 -158 q 1616 -187 1536 -190 q 1765 -161 1696 -185 q 1889 -94 1833 -137 l 1899 -99 q 1858 -240 1896 -176 q 1751 -345 1819 -303 q 1589 -401 1682 -387 q 1384 -392 1496 -414 q 1146 -303 1272 -369 q 997 -212 1065 -260 q 865 -122 928 -164 q 742 -51 803 -79 q 617 -19 681 -24 m 622 992 q 921 931 794 992 q 1116 757 1047 869 q 1185 486 1185 644 q 1116 216 1185 329 q 921 42 1047 103 q 622 -19 794 -19 q 323 42 449 -19 q 129 215 197 103 q 61 486 61 328 q 129 756 61 643 q 323 931 197 869 q 622 992 449 992 m 622 44 q 780 98 714 44 q 881 250 846 151 q 917 486 917 349 q 881 722 917 624 q 780 874 846 821 q 622 928 714 928 q 465 874 531 928 q 363 722 399 821 q 328 486 328 624 q 363 250 328 349 q 465 98 399 151 q 622 44 531 44 z "},"R":{"ha":1069,"x_min":56,"x_max":1140,"o":"m 392 972 l 565 972 q 690 960 628 972 q 803 917 753 947 q 884 837 854 888 q 914 710 914 786 q 892 597 914 654 q 822 499 871 540 q 689 446 772 457 q 781 392 742 431 q 846 315 821 354 q 860 290 847 311 q 892 239 872 269 q 933 176 913 208 q 974 119 954 144 q 1030 56 1006 79 q 1080 24 1054 33 q 1140 14 1106 15 l 1140 0 l 986 0 q 841 12 907 0 q 724 56 775 24 q 633 151 672 88 q 608 198 619 172 q 586 249 597 224 q 567 299 575 275 q 551 345 558 324 q 539 382 544 367 q 501 449 522 429 q 456 475 479 469 l 456 489 q 470 489 460 489 q 488 489 481 489 q 560 506 526 489 q 617 558 593 522 q 650 654 640 594 q 654 682 653 667 q 654 717 656 697 q 603 861 649 818 q 493 906 558 904 q 463 906 479 906 q 431 906 446 906 q 406 906 415 906 q 402 922 406 906 q 395 956 399 939 q 392 972 392 972 m 410 972 l 410 0 l 163 0 l 163 972 l 410 972 m 167 101 l 167 0 l 56 0 l 56 14 q 65 14 58 14 q 74 14 72 14 q 135 40 110 14 q 163 101 161 65 l 167 101 m 167 871 l 163 871 q 135 933 161 907 q 74 958 110 958 q 65 958 72 958 q 56 958 58 958 l 56 972 l 167 972 l 167 871 m 406 101 l 410 101 q 436 40 410 65 q 499 14 463 14 q 508 14 501 14 q 515 14 514 14 l 515 0 l 406 0 l 406 101 z "},"Ŕ":{"ha":1069,"x_min":56,"x_max":1140,"o":"m 392 972 l 565 972 q 690 960 628 972 q 803 917 753 947 q 884 837 854 888 q 914 710 914 786 q 892 597 914 654 q 822 499 871 540 q 689 446 772 457 q 781 392 742 431 q 846 315 821 354 q 860 290 847 311 q 892 239 872 269 q 933 176 913 208 q 974 119 954 144 q 1030 56 1006 79 q 1080 24 1054 33 q 1140 14 1106 15 l 1140 0 l 986 0 q 841 12 907 0 q 724 56 775 24 q 633 151 672 88 q 608 198 619 172 q 586 249 597 224 q 567 299 575 275 q 551 345 558 324 q 539 382 544 367 q 501 449 522 429 q 456 475 479 469 l 456 489 q 470 489 460 489 q 488 489 481 489 q 560 506 526 489 q 617 558 593 522 q 650 654 640 594 q 654 682 653 667 q 654 717 656 697 q 603 861 649 818 q 493 906 558 904 q 463 906 479 906 q 431 906 446 906 q 406 906 415 906 q 402 922 406 906 q 395 956 399 939 q 392 972 392 972 m 410 972 l 410 0 l 163 0 l 163 972 l 410 972 m 167 101 l 167 0 l 56 0 l 56 14 q 65 14 58 14 q 74 14 72 14 q 135 40 110 14 q 163 101 161 65 l 167 101 m 167 871 l 163 871 q 135 933 161 907 q 74 958 110 958 q 65 958 72 958 q 56 958 58 958 l 56 972 l 167 972 l 167 871 m 406 101 l 410 101 q 436 40 410 65 q 499 14 463 14 q 508 14 501 14 q 515 14 514 14 l 515 0 l 406 0 l 406 101 z "},"Ř":{"ha":1069,"x_min":56,"x_max":1140,"o":"m 392 972 l 565 972 q 690 960 628 972 q 803 917 753 947 q 884 837 854 888 q 914 710 914 786 q 892 597 914 654 q 822 499 871 540 q 689 446 772 457 q 781 392 742 431 q 846 315 821 354 q 860 290 847 311 q 892 239 872 269 q 933 176 913 208 q 974 119 954 144 q 1030 56 1006 79 q 1080 24 1054 33 q 1140 14 1106 15 l 1140 0 l 986 0 q 841 12 907 0 q 724 56 775 24 q 633 151 672 88 q 608 198 619 172 q 586 249 597 224 q 567 299 575 275 q 551 345 558 324 q 539 382 544 367 q 501 449 522 429 q 456 475 479 469 l 456 489 q 470 489 460 489 q 488 489 481 489 q 560 506 526 489 q 617 558 593 522 q 650 654 640 594 q 654 682 653 667 q 654 717 656 697 q 603 861 649 818 q 493 906 558 904 q 463 906 479 906 q 431 906 446 906 q 406 906 415 906 q 402 922 406 906 q 395 956 399 939 q 392 972 392 972 m 410 972 l 410 0 l 163 0 l 163 972 l 410 972 m 167 101 l 167 0 l 56 0 l 56 14 q 65 14 58 14 q 74 14 72 14 q 135 40 110 14 q 163 101 161 65 l 167 101 m 167 871 l 163 871 q 135 933 161 907 q 74 958 110 958 q 65 958 72 958 q 56 958 58 958 l 56 972 l 167 972 l 167 871 m 406 101 l 410 101 q 436 40 410 65 q 499 14 463 14 q 508 14 501 14 q 515 14 514 14 l 515 0 l 406 0 l 406 101 z "},"Ŗ":{"ha":1069,"x_min":56,"x_max":1140,"o":"m 392 972 l 565 972 q 690 960 628 972 q 803 917 753 947 q 884 837 854 888 q 914 710 914 786 q 892 597 914 654 q 822 499 871 540 q 689 446 772 457 q 781 392 742 431 q 846 315 821 354 q 860 290 847 311 q 892 239 872 269 q 933 176 913 208 q 974 119 954 144 q 1030 56 1006 79 q 1080 24 1054 33 q 1140 14 1106 15 l 1140 0 l 986 0 q 841 12 907 0 q 724 56 775 24 q 633 151 672 88 q 608 198 619 172 q 586 249 597 224 q 567 299 575 275 q 551 345 558 324 q 539 382 544 367 q 501 449 522 429 q 456 475 479 469 l 456 489 q 470 489 460 489 q 488 489 481 489 q 560 506 526 489 q 617 558 593 522 q 650 654 640 594 q 654 682 653 667 q 654 717 656 697 q 603 861 649 818 q 493 906 558 904 q 463 906 479 906 q 431 906 446 906 q 406 906 415 906 q 402 922 406 906 q 395 956 399 939 q 392 972 392 972 m 410 972 l 410 0 l 163 0 l 163 972 l 410 972 m 167 101 l 167 0 l 56 0 l 56 14 q 65 14 58 14 q 74 14 72 14 q 135 40 110 14 q 163 101 161 65 l 167 101 m 167 871 l 163 871 q 135 933 161 907 q 74 958 110 958 q 65 958 72 958 q 56 958 58 958 l 56 972 l 167 972 l 167 871 m 406 101 l 410 101 q 436 40 410 65 q 499 14 463 14 q 508 14 501 14 q 515 14 514 14 l 515 0 l 406 0 l 406 101 m 557 -167 q 579 -110 557 -131 q 632 -89 601 -89 q 703 -124 679 -89 q 728 -207 728 -160 q 683 -319 728 -276 q 564 -364 638 -362 l 560 -350 q 592 -324 579 -342 q 606 -285 606 -307 q 601 -258 606 -272 q 582 -229 596 -243 q 564 -200 571 -215 q 557 -167 557 -185 z "},"S":{"ha":850,"x_min":64,"x_max":794,"o":"m 397 992 q 472 989 425 992 q 567 981 518 986 q 654 972 617 976 q 704 961 692 967 l 682 763 l 668 763 q 612 882 668 836 q 460 928 556 928 q 327 892 376 928 q 275 803 278 857 q 304 728 271 757 q 385 674 338 699 l 647 526 q 756 429 718 492 q 789 278 794 367 q 676 58 782 135 q 388 -19 569 -19 q 256 -8 317 -19 q 149 23 194 3 q 76 68 103 43 q 66 147 64 100 q 82 241 68 194 q 115 317 96 288 l 128 317 q 156 182 124 244 q 254 82 189 119 q 410 44 319 44 q 555 89 506 46 q 604 190 604 132 q 574 270 604 235 q 475 339 543 306 l 240 472 q 117 587 156 515 q 89 746 79 658 q 135 877 96 822 q 240 962 174 932 q 397 992 307 992 m 707 978 l 703 949 l 521 949 l 521 978 l 707 978 z "},"Ś":{"ha":850,"x_min":64,"x_max":794,"o":"m 397 992 q 472 989 425 992 q 567 981 518 986 q 654 972 617 976 q 704 961 692 967 l 682 763 l 668 763 q 612 882 668 836 q 460 928 556 928 q 327 892 376 928 q 275 803 278 857 q 304 728 271 757 q 385 674 338 699 l 647 526 q 756 429 718 492 q 789 278 794 367 q 676 58 782 135 q 388 -19 569 -19 q 256 -8 317 -19 q 149 23 194 3 q 76 68 103 43 q 66 147 64 100 q 82 241 68 194 q 115 317 96 288 l 128 317 q 156 182 124 244 q 254 82 189 119 q 410 44 319 44 q 555 89 506 46 q 604 190 604 132 q 574 270 604 235 q 475 339 543 306 l 240 472 q 117 587 156 515 q 89 746 79 658 q 135 877 96 822 q 240 962 174 932 q 397 992 307 992 m 707 978 l 703 949 l 521 949 l 521 978 l 707 978 z "},"Š":{"ha":850,"x_min":64,"x_max":794,"o":"m 397 992 q 472 989 425 992 q 567 981 518 986 q 654 972 617 976 q 704 961 692 967 l 682 763 l 668 763 q 612 882 668 836 q 460 928 556 928 q 327 892 376 928 q 275 803 278 857 q 304 728 271 757 q 385 674 338 699 l 647 526 q 756 429 718 492 q 789 278 794 367 q 676 58 782 135 q 388 -19 569 -19 q 256 -8 317 -19 q 149 23 194 3 q 76 68 103 43 q 66 147 64 100 q 82 241 68 194 q 115 317 96 288 l 128 317 q 156 182 124 244 q 254 82 189 119 q 410 44 319 44 q 555 89 506 46 q 604 190 604 132 q 574 270 604 235 q 475 339 543 306 l 240 472 q 117 587 156 515 q 89 746 79 658 q 135 877 96 822 q 240 962 174 932 q 397 992 307 992 m 707 978 l 703 949 l 521 949 l 521 978 l 707 978 z "},"Ş":{"ha":850,"x_min":64,"x_max":794,"o":"m 397 992 q 472 989 425 992 q 567 981 518 986 q 654 972 617 976 q 704 961 692 967 l 682 763 l 668 763 q 612 882 668 836 q 460 928 556 928 q 327 892 376 928 q 275 803 278 857 q 304 728 271 757 q 385 674 338 699 l 647 526 q 756 429 718 492 q 789 278 794 367 q 676 58 782 135 q 388 -19 569 -19 q 256 -8 317 -19 q 149 23 194 3 q 76 68 103 43 q 66 147 64 100 q 82 241 68 194 q 115 317 96 288 l 128 317 q 156 182 124 244 q 254 82 189 119 q 410 44 319 44 q 555 89 506 46 q 604 190 604 132 q 574 270 604 235 q 475 339 543 306 l 240 472 q 117 587 156 515 q 89 746 79 658 q 135 877 96 822 q 240 962 174 932 q 397 992 307 992 m 707 978 l 703 949 l 521 949 l 521 978 l 707 978 z "},"Ș":{"ha":849,"x_min":64,"x_max":794,"o":"m 393 992 q 469 989 424 992 q 565 982 515 986 q 652 972 614 978 q 704 961 690 967 l 682 767 l 668 767 q 649 838 668 804 q 596 892 631 871 q 534 919 569 910 q 457 928 499 928 q 363 911 403 928 q 299 867 322 894 q 274 803 276 839 q 304 728 271 757 q 385 674 338 699 l 646 526 q 756 430 717 492 q 789 278 794 368 q 675 58 781 135 q 389 -19 569 -19 q 196 6 278 -19 q 76 68 114 31 q 66 147 64 101 q 82 237 68 192 q 115 311 96 282 l 128 311 q 157 181 124 242 q 256 82 190 119 q 413 44 321 44 q 556 89 508 46 q 603 190 603 132 q 573 269 603 233 q 475 339 543 304 l 240 472 q 117 588 156 517 q 89 746 78 658 q 135 878 96 824 q 240 963 175 933 q 393 992 306 992 m 706 978 l 703 949 l 519 949 l 519 978 l 706 978 m 332 -167 q 354 -110 332 -131 q 407 -89 376 -89 q 478 -124 454 -89 q 503 -207 503 -160 q 458 -319 503 -276 q 339 -364 413 -362 l 335 -350 q 367 -324 354 -342 q 381 -285 381 -307 q 376 -258 381 -272 q 357 -229 371 -243 q 339 -200 346 -215 q 332 -167 332 -185 z "},"T":{"ha":947,"x_min":17,"x_max":932,"o":"m 597 968 l 597 0 l 351 0 l 351 968 l 597 968 m 932 974 l 932 910 l 17 910 l 17 974 l 932 974 m 932 914 l 932 735 l 918 736 l 918 749 q 876 865 918 822 q 758 910 833 908 l 758 914 l 932 914 m 932 999 l 932 958 l 763 974 q 827 978 793 974 q 890 988 861 982 q 932 999 919 993 m 356 101 l 356 0 l 244 0 l 244 14 q 253 14 244 14 q 263 14 263 14 q 324 40 299 14 q 351 101 350 65 l 356 101 m 593 101 l 597 101 q 624 40 599 65 q 686 14 650 14 q 695 14 686 14 q 704 14 704 14 l 704 0 l 593 0 l 593 101 m 190 914 l 190 910 q 73 865 115 908 q 31 749 31 822 l 31 736 l 17 735 l 17 914 l 190 914 m 17 999 q 59 988 31 993 q 122 978 88 982 q 186 974 157 974 l 17 958 l 17 999 z "},"Ŧ":{"ha":947,"x_min":17,"x_max":932,"o":"m 597 968 l 597 0 l 351 0 l 351 968 l 597 968 m 932 974 l 932 910 l 17 910 l 17 974 l 932 974 m 932 914 l 932 735 l 918 736 l 918 749 q 876 865 918 822 q 758 910 833 908 l 758 914 l 932 914 m 932 999 l 932 958 l 763 974 q 827 978 793 974 q 890 988 861 982 q 932 999 919 993 m 356 101 l 356 0 l 244 0 l 244 14 q 253 14 244 14 q 263 14 263 14 q 324 40 299 14 q 351 101 350 65 l 356 101 m 593 101 l 597 101 q 624 40 599 65 q 686 14 650 14 q 695 14 686 14 q 704 14 704 14 l 704 0 l 593 0 l 593 101 m 190 914 l 190 910 q 73 865 115 908 q 31 749 31 822 l 31 736 l 17 735 l 17 914 l 190 914 m 17 999 q 59 988 31 993 q 122 978 88 982 q 186 974 157 974 l 17 958 l 17 999 m 810 560 l 810 496 l 139 496 l 139 560 l 810 560 z "},"Ť":{"ha":947,"x_min":17,"x_max":932,"o":"m 597 968 l 597 0 l 351 0 l 351 968 l 597 968 m 932 974 l 932 910 l 17 910 l 17 974 l 932 974 m 932 914 l 932 735 l 918 736 l 918 749 q 876 865 918 822 q 758 910 833 908 l 758 914 l 932 914 m 932 999 l 932 958 l 763 974 q 827 978 793 974 q 890 988 861 982 q 932 999 919 993 m 356 101 l 356 0 l 244 0 l 244 14 q 253 14 244 14 q 263 14 263 14 q 324 40 299 14 q 351 101 350 65 l 356 101 m 593 101 l 597 101 q 624 40 599 65 q 686 14 650 14 q 695 14 686 14 q 704 14 704 14 l 704 0 l 593 0 l 593 101 m 190 914 l 190 910 q 73 865 115 908 q 31 749 31 822 l 31 736 l 17 735 l 17 914 l 190 914 m 17 999 q 59 988 31 993 q 122 978 88 982 q 186 974 157 974 l 17 958 l 17 999 z "},"Ţ":{"ha":947,"x_min":17,"x_max":932,"o":"m 597 968 l 597 0 l 351 0 l 351 968 l 597 968 m 932 974 l 932 910 l 17 910 l 17 974 l 932 974 m 932 914 l 932 735 l 918 736 l 918 749 q 876 865 918 822 q 758 910 833 908 l 758 914 l 932 914 m 932 999 l 932 958 l 763 974 q 827 978 793 974 q 890 988 861 982 q 932 999 919 993 m 356 101 l 356 0 l 244 0 l 244 14 q 253 14 244 14 q 263 14 263 14 q 324 40 299 14 q 351 101 350 65 l 356 101 m 593 101 l 597 101 q 624 40 599 65 q 686 14 650 14 q 695 14 686 14 q 704 14 704 14 l 704 0 l 593 0 l 593 101 m 190 914 l 190 910 q 73 865 115 908 q 31 749 31 822 l 31 736 l 17 735 l 17 914 l 190 914 m 17 999 q 59 988 31 993 q 122 978 88 982 q 186 974 157 974 l 17 958 l 17 999 z "},"Ț":{"ha":947,"x_min":17,"x_max":932,"o":"m 597 968 l 597 0 l 351 0 l 351 968 l 597 968 m 932 974 l 932 910 l 17 910 l 17 974 l 932 974 m 932 914 l 932 735 l 918 736 l 918 749 q 876 865 918 822 q 758 910 833 908 l 758 914 l 932 914 m 932 999 l 932 958 l 763 974 q 827 978 793 974 q 890 988 861 982 q 932 999 919 993 m 356 101 l 356 0 l 244 0 l 244 14 q 253 14 244 14 q 263 14 263 14 q 324 40 299 14 q 351 101 350 65 l 356 101 m 593 101 l 597 101 q 624 40 599 65 q 686 14 650 14 q 695 14 686 14 q 704 14 704 14 l 704 0 l 593 0 l 593 101 m 190 914 l 190 910 q 73 865 115 908 q 31 749 31 822 l 31 736 l 17 735 l 17 914 l 190 914 m 17 999 q 59 988 31 993 q 122 978 88 982 q 186 974 157 974 l 17 958 l 17 999 m 393 -167 q 415 -110 393 -131 q 468 -89 438 -89 q 540 -124 515 -89 q 564 -207 564 -160 q 519 -319 564 -276 q 400 -364 474 -362 l 396 -350 q 428 -324 415 -342 q 442 -285 442 -307 q 437 -258 442 -272 q 418 -229 432 -243 q 400 -200 407 -215 q 393 -167 393 -185 z "},"U":{"ha":1157,"x_min":47,"x_max":1121,"o":"m 389 972 l 389 361 q 421 193 389 264 q 511 84 453 122 q 650 46 569 46 q 792 82 733 46 q 883 184 851 118 q 915 343 915 250 l 915 972 l 1025 972 l 1025 354 q 977 155 1025 239 q 838 26 929 71 q 617 -19 746 -19 q 353 26 458 -19 q 195 154 247 71 q 143 353 143 238 l 143 972 l 389 972 m 147 972 l 147 889 l 143 889 q 122 939 143 919 q 69 958 100 958 q 58 958 69 958 q 47 958 47 958 l 47 972 l 147 972 m 485 972 l 485 958 q 474 958 485 958 q 463 958 463 958 q 410 939 432 958 q 389 889 389 919 l 386 889 l 386 972 l 485 972 m 919 972 l 919 889 l 915 889 q 894 939 915 919 q 842 958 872 958 q 831 958 842 958 q 819 958 819 958 l 819 972 l 919 972 m 1121 972 l 1121 958 q 1110 958 1121 958 q 1099 958 1099 958 q 1047 939 1068 958 q 1025 889 1025 919 l 1022 889 l 1022 972 l 1121 972 z "},"Ú":{"ha":1157,"x_min":47,"x_max":1121,"o":"m 389 972 l 389 361 q 421 193 389 264 q 511 84 453 122 q 650 46 569 46 q 792 82 733 46 q 883 184 851 118 q 915 343 915 250 l 915 972 l 1025 972 l 1025 354 q 977 155 1025 239 q 838 26 929 71 q 617 -19 746 -19 q 353 26 458 -19 q 195 154 247 71 q 143 353 143 238 l 143 972 l 389 972 m 147 972 l 147 889 l 143 889 q 122 939 143 919 q 69 958 100 958 q 58 958 69 958 q 47 958 47 958 l 47 972 l 147 972 m 485 972 l 485 958 q 474 958 485 958 q 463 958 463 958 q 410 939 432 958 q 389 889 389 919 l 386 889 l 386 972 l 485 972 m 919 972 l 919 889 l 915 889 q 894 939 915 919 q 842 958 872 958 q 831 958 842 958 q 819 958 819 958 l 819 972 l 919 972 m 1121 972 l 1121 958 q 1110 958 1121 958 q 1099 958 1099 958 q 1047 939 1068 958 q 1025 889 1025 919 l 1022 889 l 1022 972 l 1121 972 z "},"Û":{"ha":1157,"x_min":47,"x_max":1121,"o":"m 389 972 l 389 361 q 421 193 389 264 q 511 84 453 122 q 650 46 569 46 q 792 82 733 46 q 883 184 851 118 q 915 343 915 250 l 915 972 l 1025 972 l 1025 354 q 977 155 1025 239 q 838 26 929 71 q 617 -19 746 -19 q 353 26 458 -19 q 195 154 247 71 q 143 353 143 238 l 143 972 l 389 972 m 147 972 l 147 889 l 143 889 q 122 939 143 919 q 69 958 100 958 q 58 958 69 958 q 47 958 47 958 l 47 972 l 147 972 m 485 972 l 485 958 q 474 958 485 958 q 463 958 463 958 q 410 939 432 958 q 389 889 389 919 l 386 889 l 386 972 l 485 972 m 919 972 l 919 889 l 915 889 q 894 939 915 919 q 842 958 872 958 q 831 958 842 958 q 819 958 819 958 l 819 972 l 919 972 m 1121 972 l 1121 958 q 1110 958 1121 958 q 1099 958 1099 958 q 1047 939 1068 958 q 1025 889 1025 919 l 1022 889 l 1022 972 l 1121 972 z "},"Ü":{"ha":1157,"x_min":47,"x_max":1121,"o":"m 389 972 l 389 361 q 421 193 389 264 q 511 84 453 122 q 650 46 569 46 q 792 82 733 46 q 883 184 851 118 q 915 343 915 250 l 915 972 l 1025 972 l 1025 354 q 977 155 1025 239 q 838 26 929 71 q 617 -19 746 -19 q 353 26 458 -19 q 195 154 247 71 q 143 353 143 238 l 143 972 l 389 972 m 147 972 l 147 889 l 143 889 q 122 939 143 919 q 69 958 100 958 q 58 958 69 958 q 47 958 47 958 l 47 972 l 147 972 m 485 972 l 485 958 q 474 958 485 958 q 463 958 463 958 q 410 939 432 958 q 389 889 389 919 l 386 889 l 386 972 l 485 972 m 919 972 l 919 889 l 915 889 q 894 939 915 919 q 842 958 872 958 q 831 958 842 958 q 819 958 819 958 l 819 972 l 919 972 m 1121 972 l 1121 958 q 1110 958 1121 958 q 1099 958 1099 958 q 1047 939 1068 958 q 1025 889 1025 919 l 1022 889 l 1022 972 l 1121 972 z "},"Ù":{"ha":1157,"x_min":47,"x_max":1121,"o":"m 389 972 l 389 361 q 421 193 389 264 q 511 84 453 122 q 650 46 569 46 q 792 82 733 46 q 883 184 851 118 q 915 343 915 250 l 915 972 l 1025 972 l 1025 354 q 977 155 1025 239 q 838 26 929 71 q 617 -19 746 -19 q 353 26 458 -19 q 195 154 247 71 q 143 353 143 238 l 143 972 l 389 972 m 147 972 l 147 889 l 143 889 q 122 939 143 919 q 69 958 100 958 q 58 958 69 958 q 47 958 47 958 l 47 972 l 147 972 m 485 972 l 485 958 q 474 958 485 958 q 463 958 463 958 q 410 939 432 958 q 389 889 389 919 l 386 889 l 386 972 l 485 972 m 919 972 l 919 889 l 915 889 q 894 939 915 919 q 842 958 872 958 q 831 958 842 958 q 819 958 819 958 l 819 972 l 919 972 m 1121 972 l 1121 958 q 1110 958 1121 958 q 1099 958 1099 958 q 1047 939 1068 958 q 1025 889 1025 919 l 1022 889 l 1022 972 l 1121 972 z "},"Ű":{"ha":1157,"x_min":47,"x_max":1121,"o":"m 389 972 l 389 361 q 421 193 389 264 q 511 84 453 122 q 650 46 569 46 q 792 82 733 46 q 883 184 851 118 q 915 343 915 250 l 915 972 l 1025 972 l 1025 354 q 977 155 1025 239 q 838 26 929 71 q 617 -19 746 -19 q 353 26 458 -19 q 195 154 247 71 q 143 353 143 238 l 143 972 l 389 972 m 147 972 l 147 889 l 143 889 q 122 939 143 919 q 69 958 100 958 q 58 958 69 958 q 47 958 47 958 l 47 972 l 147 972 m 485 972 l 485 958 q 474 958 485 958 q 463 958 463 958 q 410 939 432 958 q 389 889 389 919 l 386 889 l 386 972 l 485 972 m 919 972 l 919 889 l 915 889 q 894 939 915 919 q 842 958 872 958 q 831 958 842 958 q 819 958 819 958 l 819 972 l 919 972 m 1121 972 l 1121 958 q 1110 958 1121 958 q 1099 958 1099 958 q 1047 939 1068 958 q 1025 889 1025 919 l 1022 889 l 1022 972 l 1121 972 z "},"Ū":{"ha":1157,"x_min":47,"x_max":1121,"o":"m 389 972 l 389 361 q 421 193 389 264 q 511 84 453 122 q 650 46 569 46 q 792 82 733 46 q 883 184 851 118 q 915 343 915 250 l 915 972 l 1025 972 l 1025 354 q 977 155 1025 239 q 838 26 929 71 q 617 -19 746 -19 q 353 26 458 -19 q 195 154 247 71 q 143 353 143 238 l 143 972 l 389 972 m 147 972 l 147 889 l 143 889 q 122 939 143 919 q 69 958 100 958 q 58 958 69 958 q 47 958 47 958 l 47 972 l 147 972 m 485 972 l 485 958 q 474 958 485 958 q 463 958 463 958 q 410 939 432 958 q 389 889 389 919 l 386 889 l 386 972 l 485 972 m 919 972 l 919 889 l 915 889 q 894 939 915 919 q 842 958 872 958 q 831 958 842 958 q 819 958 819 958 l 819 972 l 919 972 m 1121 972 l 1121 958 q 1110 958 1121 958 q 1099 958 1099 958 q 1047 939 1068 958 q 1025 889 1025 919 l 1022 889 l 1022 972 l 1121 972 z "},"Ų":{"ha":1157,"x_min":47,"x_max":1121,"o":"m 389 972 l 389 361 q 421 193 389 264 q 511 84 453 122 q 650 46 569 46 q 792 82 733 46 q 883 184 851 118 q 915 343 915 250 l 915 972 l 1025 972 l 1025 354 q 977 155 1025 239 q 838 26 929 71 q 617 -19 746 -19 q 353 26 458 -19 q 195 154 247 71 q 143 353 143 238 l 143 972 l 389 972 m 147 972 l 147 889 l 143 889 q 122 939 143 919 q 69 958 100 958 q 58 958 69 958 q 47 958 47 958 l 47 972 l 147 972 m 485 972 l 485 958 q 474 958 485 958 q 463 958 463 958 q 410 939 432 958 q 389 889 389 919 l 386 889 l 386 972 l 485 972 m 919 972 l 919 889 l 915 889 q 894 939 915 919 q 842 958 872 958 q 831 958 842 958 q 819 958 819 958 l 819 972 l 919 972 m 1121 972 l 1121 958 q 1110 958 1121 958 q 1099 958 1099 958 q 1047 939 1068 958 q 1025 889 1025 919 l 1022 889 l 1022 972 l 1121 972 z "},"Ů":{"ha":1157,"x_min":47,"x_max":1121,"o":"m 389 972 l 389 361 q 421 193 389 264 q 511 84 453 122 q 650 46 569 46 q 792 82 733 46 q 883 184 851 118 q 915 343 915 250 l 915 972 l 1025 972 l 1025 354 q 977 155 1025 239 q 838 26 929 71 q 617 -19 746 -19 q 353 26 458 -19 q 195 154 247 71 q 143 353 143 238 l 143 972 l 389 972 m 147 972 l 147 889 l 143 889 q 122 939 143 919 q 69 958 100 958 q 58 958 69 958 q 47 958 47 958 l 47 972 l 147 972 m 485 972 l 485 958 q 474 958 485 958 q 463 958 463 958 q 410 939 432 958 q 389 889 389 919 l 386 889 l 386 972 l 485 972 m 919 972 l 919 889 l 915 889 q 894 939 915 919 q 842 958 872 958 q 831 958 842 958 q 819 958 819 958 l 819 972 l 919 972 m 1121 972 l 1121 958 q 1110 958 1121 958 q 1099 958 1099 958 q 1047 939 1068 958 q 1025 889 1025 919 l 1022 889 l 1022 972 l 1121 972 z "},"V":{"ha":1006,"x_min":-47,"x_max":1053,"o":"m 513 -31 l 42 964 l 333 964 l 615 281 l 513 -31 m 513 -31 l 510 163 l 857 968 l 964 968 l 599 164 q 582 128 593 154 q 558 72 571 103 q 536 14 546 42 q 525 -31 526 -14 l 513 -31 m 814 871 q 811 935 833 913 q 761 958 789 958 l 749 958 l 749 972 l 1053 972 l 1053 958 q 1047 958 1053 958 q 1040 958 1040 958 q 976 938 1010 958 q 919 871 942 918 l 814 871 m 372 871 l 86 871 q 30 938 64 918 q -36 958 -4 958 q -42 958 -36 958 q -47 958 -47 958 l -47 972 l 438 972 l 438 958 l 425 958 q 378 935 399 958 q 372 871 358 913 z "},"W":{"ha":1344,"x_min":-58,"x_max":1392,"o":"m 40 964 l 303 964 l 514 401 l 410 -28 l 40 964 m 758 994 l 788 849 l 458 126 q 450 103 458 126 q 433 45 442 81 q 422 -28 424 10 l 410 -28 l 367 150 l 746 994 l 758 994 m 758 993 l 1068 365 l 990 -28 l 646 675 l 758 993 m 1288 964 l 1025 126 q 1018 102 1025 126 q 1006 42 1011 78 q 1003 -28 1000 7 l 990 -28 l 943 110 l 1186 964 l 1288 964 m 1160 872 q 1153 936 1171 914 q 1107 958 1135 958 l 1094 958 l 1094 972 l 1392 972 l 1392 958 q 1386 958 1392 958 q 1381 958 1381 958 q 1311 938 1349 958 q 1258 872 1274 918 l 1160 872 m 339 872 l 75 872 q 21 938 57 918 q -47 958 -15 958 q -53 958 -47 958 q -58 958 -58 958 l -58 972 l 403 972 l 403 958 l 390 958 q 344 936 364 958 q 339 872 324 914 z "},"Ẃ":{"ha":1344,"x_min":-58,"x_max":1392,"o":"m 40 964 l 303 964 l 514 401 l 410 -28 l 40 964 m 758 994 l 788 849 l 458 126 q 450 103 458 126 q 433 45 442 81 q 422 -28 424 10 l 410 -28 l 367 150 l 746 994 l 758 994 m 758 993 l 1068 365 l 990 -28 l 646 675 l 758 993 m 1288 964 l 1025 126 q 1018 102 1025 126 q 1006 42 1011 78 q 1003 -28 1000 7 l 990 -28 l 943 110 l 1186 964 l 1288 964 m 1160 872 q 1153 936 1171 914 q 1107 958 1135 958 l 1094 958 l 1094 972 l 1392 972 l 1392 958 q 1386 958 1392 958 q 1381 958 1381 958 q 1311 938 1349 958 q 1258 872 1274 918 l 1160 872 m 339 872 l 75 872 q 21 938 57 918 q -47 958 -15 958 q -53 958 -47 958 q -58 958 -58 958 l -58 972 l 403 972 l 403 958 l 390 958 q 344 936 364 958 q 339 872 324 914 z "},"Ŵ":{"ha":1344,"x_min":-58,"x_max":1392,"o":"m 40 964 l 303 964 l 514 401 l 410 -28 l 40 964 m 758 994 l 788 849 l 458 126 q 450 103 458 126 q 433 45 442 81 q 422 -28 424 10 l 410 -28 l 367 150 l 746 994 l 758 994 m 758 993 l 1068 365 l 990 -28 l 646 675 l 758 993 m 1288 964 l 1025 126 q 1018 102 1025 126 q 1006 42 1011 78 q 1003 -28 1000 7 l 990 -28 l 943 110 l 1186 964 l 1288 964 m 1160 872 q 1153 936 1171 914 q 1107 958 1135 958 l 1094 958 l 1094 972 l 1392 972 l 1392 958 q 1386 958 1392 958 q 1381 958 1381 958 q 1311 938 1349 958 q 1258 872 1274 918 l 1160 872 m 339 872 l 75 872 q 21 938 57 918 q -47 958 -15 958 q -53 958 -47 958 q -58 958 -58 958 l -58 972 l 403 972 l 403 958 l 390 958 q 344 936 364 958 q 339 872 324 914 z "},"Ẅ":{"ha":1344,"x_min":-58,"x_max":1392,"o":"m 40 964 l 303 964 l 514 401 l 410 -28 l 40 964 m 758 994 l 788 849 l 458 126 q 450 103 458 126 q 433 45 442 81 q 422 -28 424 10 l 410 -28 l 367 150 l 746 994 l 758 994 m 758 993 l 1068 365 l 990 -28 l 646 675 l 758 993 m 1288 964 l 1025 126 q 1018 102 1025 126 q 1006 42 1011 78 q 1003 -28 1000 7 l 990 -28 l 943 110 l 1186 964 l 1288 964 m 1160 872 q 1153 936 1171 914 q 1107 958 1135 958 l 1094 958 l 1094 972 l 1392 972 l 1392 958 q 1386 958 1392 958 q 1381 958 1381 958 q 1311 938 1349 958 q 1258 872 1274 918 l 1160 872 m 339 872 l 75 872 q 21 938 57 918 q -47 958 -15 958 q -53 958 -47 958 q -58 958 -58 958 l -58 972 l 403 972 l 403 958 l 390 958 q 344 936 364 958 q 339 872 324 914 z "},"Ẁ":{"ha":1344,"x_min":-58,"x_max":1392,"o":"m 40 964 l 303 964 l 514 401 l 410 -28 l 40 964 m 758 994 l 788 849 l 458 126 q 450 103 458 126 q 433 45 442 81 q 422 -28 424 10 l 410 -28 l 367 150 l 746 994 l 758 994 m 758 993 l 1068 365 l 990 -28 l 646 675 l 758 993 m 1288 964 l 1025 126 q 1018 102 1025 126 q 1006 42 1011 78 q 1003 -28 1000 7 l 990 -28 l 943 110 l 1186 964 l 1288 964 m 1160 872 q 1153 936 1171 914 q 1107 958 1135 958 l 1094 958 l 1094 972 l 1392 972 l 1392 958 q 1386 958 1392 958 q 1381 958 1381 958 q 1311 938 1349 958 q 1258 872 1274 918 l 1160 872 m 339 872 l 75 872 q 21 938 57 918 q -47 958 -15 958 q -53 958 -47 958 q -58 958 -58 958 l -58 972 l 403 972 l 403 958 l 390 958 q 344 936 364 958 q 339 872 324 914 z "},"X":{"ha":1043,"x_min":-39,"x_max":1088,"o":"m 356 972 l 989 1 l 699 1 l 69 972 l 356 972 m 246 100 q 238 60 233 81 q 260 27 243 40 q 294 14 276 14 q 303 14 294 14 q 313 14 313 14 l 313 0 l -39 0 l -39 14 l -19 14 q 60 39 25 14 q 119 96 94 64 l 246 100 m 410 497 l 488 449 l 176 0 l 51 0 l 410 497 m 636 100 l 928 94 q 987 38 949 63 q 1068 14 1025 14 l 1088 14 l 1088 0 l 571 0 l 571 14 q 579 14 571 14 q 588 14 588 14 q 635 42 617 14 q 636 100 654 69 m 486 972 l 486 958 q 478 958 486 958 q 469 958 469 958 q 435 945 450 958 q 415 912 419 932 q 422 872 410 892 l 132 876 q 73 933 110 908 q -8 958 36 958 l -28 958 l -28 972 l 486 972 m 942 972 l 604 468 l 544 546 l 817 972 l 942 972 m 1036 972 l 1036 958 l 1017 958 q 938 933 974 958 q 878 876 901 908 l 753 872 q 760 912 765 892 q 739 945 754 932 q 704 958 724 958 q 696 958 704 958 q 688 958 688 958 l 686 972 l 1036 972 z "},"Y":{"ha":994,"x_min":-53,"x_max":1049,"o":"m 325 971 l 613 450 l 372 440 l 49 971 l 325 971 m 617 447 l 617 0 l 369 0 l 369 447 l 617 447 m 832 971 l 949 971 l 600 421 l 522 433 l 832 971 m 775 872 q 781 912 786 892 q 760 945 775 932 q 726 958 746 958 q 718 958 726 958 q 710 958 710 958 l 710 972 l 1049 972 l 1049 958 l 1029 958 q 948 933 986 958 q 889 876 910 908 l 775 872 m 379 872 l 106 876 q 49 933 86 908 q -33 958 11 958 l -53 958 l -53 972 l 444 972 l 444 958 q 436 958 444 958 q 428 958 428 958 q 381 930 397 958 q 379 872 364 901 m 374 101 l 374 0 l 263 0 l 263 14 q 271 14 263 14 q 281 14 279 14 q 342 40 317 14 q 369 101 368 65 l 374 101 m 613 101 l 617 101 q 643 40 617 65 q 706 14 669 14 q 714 14 706 14 q 722 14 722 14 l 722 0 l 613 0 l 613 101 z "},"Ý":{"ha":994,"x_min":-53,"x_max":1049,"o":"m 325 971 l 613 450 l 372 440 l 49 971 l 325 971 m 617 447 l 617 0 l 369 0 l 369 447 l 617 447 m 832 971 l 949 971 l 600 421 l 522 433 l 832 971 m 775 872 q 781 912 786 892 q 760 945 775 932 q 726 958 746 958 q 718 958 726 958 q 710 958 710 958 l 710 972 l 1049 972 l 1049 958 l 1029 958 q 948 933 986 958 q 889 876 910 908 l 775 872 m 379 872 l 106 876 q 49 933 86 908 q -33 958 11 958 l -53 958 l -53 972 l 444 972 l 444 958 q 436 958 444 958 q 428 958 428 958 q 381 930 397 958 q 379 872 364 901 m 374 101 l 374 0 l 263 0 l 263 14 q 271 14 263 14 q 281 14 279 14 q 342 40 317 14 q 369 101 368 65 l 374 101 m 613 101 l 617 101 q 643 40 617 65 q 706 14 669 14 q 714 14 706 14 q 722 14 722 14 l 722 0 l 613 0 l 613 101 z "},"Ŷ":{"ha":994,"x_min":-53,"x_max":1049,"o":"m 325 971 l 613 450 l 372 440 l 49 971 l 325 971 m 617 447 l 617 0 l 369 0 l 369 447 l 617 447 m 832 971 l 949 971 l 600 421 l 522 433 l 832 971 m 775 872 q 781 912 786 892 q 760 945 775 932 q 726 958 746 958 q 718 958 726 958 q 710 958 710 958 l 710 972 l 1049 972 l 1049 958 l 1029 958 q 948 933 986 958 q 889 876 910 908 l 775 872 m 379 872 l 106 876 q 49 933 86 908 q -33 958 11 958 l -53 958 l -53 972 l 444 972 l 444 958 q 436 958 444 958 q 428 958 428 958 q 381 930 397 958 q 379 872 364 901 m 374 101 l 374 0 l 263 0 l 263 14 q 271 14 263 14 q 281 14 279 14 q 342 40 317 14 q 369 101 368 65 l 374 101 m 613 101 l 617 101 q 643 40 617 65 q 706 14 669 14 q 714 14 706 14 q 722 14 722 14 l 722 0 l 613 0 l 613 101 z "},"Ÿ":{"ha":994,"x_min":-53,"x_max":1049,"o":"m 325 971 l 613 450 l 372 440 l 49 971 l 325 971 m 617 447 l 617 0 l 369 0 l 369 447 l 617 447 m 832 971 l 949 971 l 600 421 l 522 433 l 832 971 m 775 872 q 781 912 786 892 q 760 945 775 932 q 726 958 746 958 q 718 958 726 958 q 710 958 710 958 l 710 972 l 1049 972 l 1049 958 l 1029 958 q 948 933 986 958 q 889 876 910 908 l 775 872 m 379 872 l 106 876 q 49 933 86 908 q -33 958 11 958 l -53 958 l -53 972 l 444 972 l 444 958 q 436 958 444 958 q 428 958 428 958 q 381 930 397 958 q 379 872 364 901 m 374 101 l 374 0 l 263 0 l 263 14 q 271 14 263 14 q 281 14 279 14 q 342 40 317 14 q 369 101 368 65 l 374 101 m 613 101 l 617 101 q 643 40 617 65 q 706 14 669 14 q 714 14 706 14 q 722 14 722 14 l 722 0 l 613 0 l 613 101 z "},"Ỳ":{"ha":994,"x_min":-53,"x_max":1049,"o":"m 325 971 l 613 450 l 372 440 l 49 971 l 325 971 m 617 447 l 617 0 l 369 0 l 369 447 l 617 447 m 832 971 l 949 971 l 600 421 l 522 433 l 832 971 m 775 872 q 781 912 786 892 q 760 945 775 932 q 726 958 746 958 q 718 958 726 958 q 710 958 710 958 l 710 972 l 1049 972 l 1049 958 l 1029 958 q 948 933 986 958 q 889 876 910 908 l 775 872 m 379 872 l 106 876 q 49 933 86 908 q -33 958 11 958 l -53 958 l -53 972 l 444 972 l 444 958 q 436 958 444 958 q 428 958 428 958 q 381 930 397 958 q 379 872 364 901 m 374 101 l 374 0 l 263 0 l 263 14 q 271 14 263 14 q 281 14 279 14 q 342 40 317 14 q 369 101 368 65 l 374 101 m 613 101 l 617 101 q 643 40 617 65 q 706 14 669 14 q 714 14 706 14 q 722 14 722 14 l 722 0 l 613 0 l 613 101 z "},"Z":{"ha":924,"x_min":56,"x_max":888,"o":"m 851 992 q 851 985 851 992 q 851 979 851 979 l 326 0 l 56 0 l 56 13 l 540 910 l 75 910 l 75 974 l 704 974 q 763 976 732 974 q 819 983 794 979 q 851 992 843 988 m 828 64 l 819 0 l 156 0 l 156 64 l 828 64 m 888 301 l 836 0 l 558 0 l 579 49 l 604 64 q 771 127 699 64 q 874 301 843 190 l 888 301 m 249 910 q 131 865 174 908 q 89 749 89 822 l 89 735 l 75 735 l 75 914 l 249 914 l 249 910 m 75 999 q 117 988 89 993 q 181 978 146 982 q 244 974 215 974 l 75 958 l 75 999 z "},"Ź":{"ha":924,"x_min":56,"x_max":888,"o":"m 851 992 q 851 985 851 992 q 851 979 851 979 l 326 0 l 56 0 l 56 13 l 540 910 l 75 910 l 75 974 l 704 974 q 763 976 732 974 q 819 983 794 979 q 851 992 843 988 m 828 64 l 819 0 l 156 0 l 156 64 l 828 64 m 888 301 l 836 0 l 558 0 l 579 49 l 604 64 q 771 127 699 64 q 874 301 843 190 l 888 301 m 249 910 q 131 865 174 908 q 89 749 89 822 l 89 735 l 75 735 l 75 914 l 249 914 l 249 910 m 75 999 q 117 988 89 993 q 181 978 146 982 q 244 974 215 974 l 75 958 l 75 999 z "},"Ž":{"ha":924,"x_min":56,"x_max":888,"o":"m 851 992 q 851 985 851 992 q 851 979 851 979 l 326 0 l 56 0 l 56 13 l 540 910 l 75 910 l 75 974 l 704 974 q 763 976 732 974 q 819 983 794 979 q 851 992 843 988 m 828 64 l 819 0 l 156 0 l 156 64 l 828 64 m 888 301 l 836 0 l 558 0 l 579 49 l 604 64 q 771 127 699 64 q 874 301 843 190 l 888 301 m 249 910 q 131 865 174 908 q 89 749 89 822 l 89 735 l 75 735 l 75 914 l 249 914 l 249 910 m 75 999 q 117 988 89 993 q 181 978 146 982 q 244 974 215 974 l 75 958 l 75 999 z "},"Ż":{"ha":924,"x_min":56,"x_max":888,"o":"m 851 992 q 851 985 851 992 q 851 979 851 979 l 326 0 l 56 0 l 56 13 l 540 910 l 75 910 l 75 974 l 704 974 q 763 976 732 974 q 819 983 794 979 q 851 992 843 988 m 828 64 l 819 0 l 156 0 l 156 64 l 828 64 m 888 301 l 836 0 l 558 0 l 579 49 l 604 64 q 771 127 699 64 q 874 301 843 190 l 888 301 m 249 910 q 131 865 174 908 q 89 749 89 822 l 89 735 l 75 735 l 75 914 l 249 914 l 249 910 m 75 999 q 117 988 89 993 q 181 978 146 982 q 244 974 215 974 l 75 958 l 75 999 z "},"a":{"ha":886,"x_min":-49,"x_max":936,"o":"m 435 878 l 857 7 l 582 7 l 335 579 l 435 878 m 176 88 q 181 33 161 51 q 224 14 200 14 l 233 14 l 233 0 l -49 0 l -49 14 q -43 14 -49 14 q -37 14 -37 14 q 21 31 -10 14 q 71 88 51 47 l 176 88 m 435 878 l 436 688 l 139 4 l 32 4 l 356 701 q 370 735 360 713 q 392 785 381 757 q 413 838 404 813 q 424 878 422 863 l 435 878 m 543 256 l 543 197 l 192 197 l 192 256 l 543 256 m 546 88 l 817 88 q 867 31 836 47 q 925 14 897 14 q 931 14 925 14 q 936 14 936 14 l 936 0 l 488 0 l 488 14 l 499 14 q 542 33 522 14 q 546 88 561 51 z "},"á":{"ha":886,"x_min":-49,"x_max":936,"o":"m 435 878 l 857 7 l 582 7 l 335 579 l 435 878 m 176 88 q 181 33 161 51 q 224 14 200 14 l 233 14 l 233 0 l -49 0 l -49 14 q -43 14 -49 14 q -37 14 -37 14 q 21 31 -10 14 q 71 88 51 47 l 176 88 m 435 878 l 436 688 l 139 4 l 32 4 l 356 701 q 370 735 360 713 q 392 785 381 757 q 413 838 404 813 q 424 878 422 863 l 435 878 m 543 256 l 543 197 l 192 197 l 192 256 l 543 256 m 546 88 l 817 88 q 867 31 836 47 q 925 14 897 14 q 931 14 925 14 q 936 14 936 14 l 936 0 l 488 0 l 488 14 l 499 14 q 542 33 522 14 q 546 88 561 51 z "},"ă":{"ha":886,"x_min":-49,"x_max":936,"o":"m 435 878 l 857 7 l 582 7 l 335 579 l 435 878 m 176 88 q 181 33 161 51 q 224 14 200 14 l 233 14 l 233 0 l -49 0 l -49 14 q -43 14 -49 14 q -37 14 -37 14 q 21 31 -10 14 q 71 88 51 47 l 176 88 m 435 878 l 436 688 l 139 4 l 32 4 l 356 701 q 370 735 360 713 q 392 785 381 757 q 413 838 404 813 q 424 878 422 863 l 435 878 m 543 256 l 543 197 l 192 197 l 192 256 l 543 256 m 546 88 l 817 88 q 867 31 836 47 q 925 14 897 14 q 931 14 925 14 q 936 14 936 14 l 936 0 l 488 0 l 488 14 l 499 14 q 542 33 522 14 q 546 88 561 51 z "},"â":{"ha":886,"x_min":-49,"x_max":936,"o":"m 435 878 l 857 7 l 582 7 l 335 579 l 435 878 m 176 88 q 181 33 161 51 q 224 14 200 14 l 233 14 l 233 0 l -49 0 l -49 14 q -43 14 -49 14 q -37 14 -37 14 q 21 31 -10 14 q 71 88 51 47 l 176 88 m 435 878 l 436 688 l 139 4 l 32 4 l 356 701 q 370 735 360 713 q 392 785 381 757 q 413 838 404 813 q 424 878 422 863 l 435 878 m 543 256 l 543 197 l 192 197 l 192 256 l 543 256 m 546 88 l 817 88 q 867 31 836 47 q 925 14 897 14 q 931 14 925 14 q 936 14 936 14 l 936 0 l 488 0 l 488 14 l 499 14 q 542 33 522 14 q 546 88 561 51 z "},"ä":{"ha":886,"x_min":-49,"x_max":936,"o":"m 435 878 l 857 7 l 582 7 l 335 579 l 435 878 m 176 88 q 181 33 161 51 q 224 14 200 14 l 233 14 l 233 0 l -49 0 l -49 14 q -43 14 -49 14 q -37 14 -37 14 q 21 31 -10 14 q 71 88 51 47 l 176 88 m 435 878 l 436 688 l 139 4 l 32 4 l 356 701 q 370 735 360 713 q 392 785 381 757 q 413 838 404 813 q 424 878 422 863 l 435 878 m 543 256 l 543 197 l 192 197 l 192 256 l 543 256 m 546 88 l 817 88 q 867 31 836 47 q 925 14 897 14 q 931 14 925 14 q 936 14 936 14 l 936 0 l 488 0 l 488 14 l 499 14 q 542 33 522 14 q 546 88 561 51 z "},"à":{"ha":886,"x_min":-49,"x_max":936,"o":"m 435 878 l 857 7 l 582 7 l 335 579 l 435 878 m 176 88 q 181 33 161 51 q 224 14 200 14 l 233 14 l 233 0 l -49 0 l -49 14 q -43 14 -49 14 q -37 14 -37 14 q 21 31 -10 14 q 71 88 51 47 l 176 88 m 435 878 l 436 688 l 139 4 l 32 4 l 356 701 q 370 735 360 713 q 392 785 381 757 q 413 838 404 813 q 424 878 422 863 l 435 878 m 543 256 l 543 197 l 192 197 l 192 256 l 543 256 m 546 88 l 817 88 q 867 31 836 47 q 925 14 897 14 q 931 14 925 14 q 936 14 936 14 l 936 0 l 488 0 l 488 14 l 499 14 q 542 33 522 14 q 546 88 561 51 z "},"ā":{"ha":886,"x_min":-49,"x_max":936,"o":"m 435 878 l 857 7 l 582 7 l 335 579 l 435 878 m 176 88 q 181 33 161 51 q 224 14 200 14 l 233 14 l 233 0 l -49 0 l -49 14 q -43 14 -49 14 q -37 14 -37 14 q 21 31 -10 14 q 71 88 51 47 l 176 88 m 435 878 l 436 688 l 139 4 l 32 4 l 356 701 q 370 735 360 713 q 392 785 381 757 q 413 838 404 813 q 424 878 422 863 l 435 878 m 543 256 l 543 197 l 192 197 l 192 256 l 543 256 m 546 88 l 817 88 q 867 31 836 47 q 925 14 897 14 q 931 14 925 14 q 936 14 936 14 l 936 0 l 488 0 l 488 14 l 499 14 q 542 33 522 14 q 546 88 561 51 z "},"ą":{"ha":867,"x_min":-49,"x_max":918,"o":"m 165 89 q 169 33 149 53 q 213 14 189 14 l 222 14 l 222 0 l -49 0 l -49 14 q -43 14 -49 14 q -37 14 -37 14 q 21 31 -10 14 q 71 89 51 49 l 165 89 m 429 865 l 431 690 l 128 4 l 31 4 l 351 692 q 365 724 356 701 q 387 773 375 746 q 407 825 399 800 q 417 865 415 850 l 429 865 m 429 865 l 843 7 l 581 7 l 336 583 l 429 865 m 538 261 l 538 204 l 192 204 l 192 261 l 538 261 m 622 -8 q 552 -48 569 -19 q 538 -108 535 -76 q 565 -174 540 -150 q 626 -197 590 -197 q 696 -167 663 -196 l 704 -175 q 667 -255 699 -228 q 593 -286 636 -282 q 510 -272 550 -290 q 445 -217 469 -254 q 428 -124 421 -179 q 462 -51 435 -76 q 528 -6 489 -26 q 555 30 550 8 q 544 93 560 51 l 804 86 q 847 38 821 54 q 893 16 872 21 q 918 11 914 11 l 918 -3 q 867 -1 901 -3 q 789 3 832 1 q 701 2 746 4 q 622 -8 657 0 z "},"å":{"ha":886,"x_min":-49,"x_max":936,"o":"m 435 878 l 857 7 l 582 7 l 335 579 l 435 878 m 176 88 q 181 33 161 51 q 224 14 200 14 l 233 14 l 233 0 l -49 0 l -49 14 q -43 14 -49 14 q -37 14 -37 14 q 21 31 -10 14 q 71 88 51 47 l 176 88 m 435 878 l 436 688 l 139 4 l 32 4 l 356 701 q 370 735 360 713 q 392 785 381 757 q 413 838 404 813 q 424 878 422 863 l 435 878 m 543 256 l 543 197 l 192 197 l 192 256 l 543 256 m 546 88 l 817 88 q 867 31 836 47 q 925 14 897 14 q 931 14 925 14 q 936 14 936 14 l 936 0 l 488 0 l 488 14 l 499 14 q 542 33 522 14 q 546 88 561 51 z "},"ã":{"ha":886,"x_min":-49,"x_max":936,"o":"m 435 878 l 857 7 l 582 7 l 335 579 l 435 878 m 176 88 q 181 33 161 51 q 224 14 200 14 l 233 14 l 233 0 l -49 0 l -49 14 q -43 14 -49 14 q -37 14 -37 14 q 21 31 -10 14 q 71 88 51 47 l 176 88 m 435 878 l 436 688 l 139 4 l 32 4 l 356 701 q 370 735 360 713 q 392 785 381 757 q 413 838 404 813 q 424 878 422 863 l 435 878 m 543 256 l 543 197 l 192 197 l 192 256 l 543 256 m 546 88 l 817 88 q 867 31 836 47 q 925 14 897 14 q 931 14 925 14 q 936 14 936 14 l 936 0 l 488 0 l 488 14 l 499 14 q 542 33 522 14 q 546 88 561 51 z "},"æ":{"ha":1221,"x_min":-36,"x_max":1197,"o":"m 190 86 q 183 47 176 63 q 205 22 189 31 q 235 14 221 14 l 246 14 l 246 0 l -36 0 l -36 14 q -31 14 -36 14 q -25 14 -25 14 q 27 31 1 14 q 81 88 53 49 l 190 86 m 797 832 l 797 0 l 564 0 l 564 778 l 797 832 m 567 69 l 567 0 l 493 0 l 493 14 q 500 14 494 14 q 506 14 506 14 q 547 30 529 14 q 564 69 564 46 l 567 69 m 1124 60 l 1124 0 l 793 0 l 793 60 l 1124 60 m 1063 435 l 1063 376 l 353 376 l 358 435 l 1063 435 m 1124 832 l 1124 772 l 660 772 l 590 722 l 139 4 l 22 4 l 551 764 q 557 803 567 788 q 525 819 547 819 l 519 819 l 519 832 l 1124 832 m 1197 267 l 1149 0 l 900 0 l 943 60 q 1092 115 1028 60 q 1183 267 1157 169 l 1197 267 m 1063 379 l 1063 246 l 1050 246 l 1050 253 q 1016 340 1050 306 q 928 376 982 375 l 928 379 l 1063 379 m 1063 565 l 1063 432 l 928 432 l 928 435 q 1016 471 982 436 q 1050 558 1050 506 l 1050 565 l 1063 565 m 1124 776 l 1124 617 l 1111 618 l 1111 626 q 1073 733 1111 694 q 967 774 1035 772 l 967 776 l 1124 776 m 1124 854 l 1124 819 l 978 832 q 1063 840 1018 832 q 1124 854 1107 847 z "},"b":{"ha":854,"x_min":40,"x_max":825,"o":"m 193 833 l 443 833 q 560 825 503 833 q 664 794 618 817 q 738 731 710 771 q 765 626 765 690 q 743 533 765 571 q 686 475 721 494 q 613 454 651 456 q 718 424 669 451 q 796 351 767 397 q 825 239 825 304 q 797 128 825 174 q 720 55 769 83 q 605 13 671 26 q 464 0 539 0 l 351 0 q 352 15 351 0 q 353 44 353 29 q 353 60 353 60 l 388 60 q 472 78 433 60 q 535 139 511 96 q 560 254 560 182 q 549 333 560 299 q 519 392 539 368 q 469 428 499 417 q 401 440 440 440 l 401 451 q 454 462 432 451 q 492 492 476 472 q 514 541 507 511 q 521 608 521 571 q 481 740 521 704 q 383 775 442 775 l 204 775 q 201 791 204 776 q 196 819 199 806 q 193 833 193 833 m 363 833 l 363 0 l 129 0 l 129 833 l 363 833 m 133 86 l 133 0 l 40 0 l 40 14 q 49 14 43 14 q 56 14 56 14 q 109 35 88 14 q 129 86 131 56 l 133 86 m 133 747 l 129 747 q 109 799 131 779 q 56 819 88 819 q 49 819 56 819 q 40 819 43 819 l 40 833 l 133 833 l 133 747 z "},"c":{"ha":938,"x_min":39,"x_max":892,"o":"m 865 347 l 892 132 q 824 57 868 90 q 714 3 781 24 q 554 -17 647 -17 q 280 35 396 -15 q 101 182 164 85 q 39 418 39 279 q 100 651 39 554 q 277 799 161 747 q 554 850 393 850 q 731 833 651 850 q 861 793 811 817 l 853 565 l 843 565 q 738 742 807 693 q 574 792 668 792 q 413 745 476 792 q 317 615 349 699 q 286 421 286 531 q 318 223 286 307 q 410 92 350 139 q 554 42 469 44 q 710 71 651 42 q 801 167 768 100 q 856 347 835 235 l 865 347 z "},"ć":{"ha":938,"x_min":39,"x_max":892,"o":"m 865 347 l 892 132 q 824 57 868 90 q 714 3 781 24 q 554 -17 647 -17 q 280 35 396 -15 q 101 182 164 85 q 39 418 39 279 q 100 651 39 554 q 277 799 161 747 q 554 850 393 850 q 731 833 651 850 q 861 793 811 817 l 853 565 l 843 565 q 738 742 807 693 q 574 792 668 792 q 413 745 476 792 q 317 615 349 699 q 286 421 286 531 q 318 223 286 307 q 410 92 350 139 q 554 42 469 44 q 710 71 651 42 q 801 167 768 100 q 856 347 835 235 l 865 347 z "},"č":{"ha":938,"x_min":39,"x_max":892,"o":"m 865 347 l 892 132 q 824 57 868 90 q 714 3 781 24 q 554 -17 647 -17 q 280 35 396 -15 q 101 182 164 85 q 39 418 39 279 q 100 651 39 554 q 277 799 161 747 q 554 850 393 850 q 731 833 651 850 q 861 793 811 817 l 853 565 l 843 565 q 738 742 807 693 q 574 792 668 792 q 413 745 476 792 q 317 615 349 699 q 286 421 286 531 q 318 223 286 307 q 410 92 350 139 q 554 42 469 44 q 710 71 651 42 q 801 167 768 100 q 856 347 835 235 l 865 347 z "},"ç":{"ha":938,"x_min":39,"x_max":892,"o":"m 865 347 l 892 132 q 824 57 868 90 q 714 3 781 24 q 554 -17 647 -17 q 280 35 396 -15 q 101 182 164 85 q 39 418 39 279 q 100 651 39 554 q 277 799 161 747 q 554 850 393 850 q 731 833 651 850 q 861 793 811 817 l 853 565 l 843 565 q 738 742 807 693 q 574 792 668 792 q 413 745 476 792 q 317 615 349 699 q 286 421 286 531 q 318 223 286 307 q 410 92 350 139 q 554 42 469 44 q 710 71 651 42 q 801 167 768 100 q 856 347 835 235 l 865 347 z "},"ċ":{"ha":938,"x_min":39,"x_max":892,"o":"m 865 347 l 892 132 q 824 57 868 90 q 714 3 781 24 q 554 -17 647 -17 q 280 35 396 -15 q 101 182 164 85 q 39 418 39 279 q 100 651 39 554 q 277 799 161 747 q 554 850 393 850 q 731 833 651 850 q 861 793 811 817 l 853 565 l 843 565 q 738 742 807 693 q 574 792 668 792 q 413 745 476 792 q 317 615 349 699 q 286 421 286 531 q 318 223 286 307 q 410 92 350 139 q 554 42 469 44 q 710 71 651 42 q 801 167 768 100 q 856 347 835 235 l 865 347 z "},"d":{"ha":1035,"x_min":35,"x_max":994,"o":"m 507 833 q 769 784 660 833 q 936 642 878 735 q 994 417 994 549 q 936 192 994 285 q 769 49 878 99 q 507 0 660 0 l 194 0 l 192 60 q 365 60 301 60 q 456 60 428 60 q 485 60 485 60 q 676 154 606 60 q 746 417 746 249 q 676 680 746 585 q 485 775 607 775 q 456 775 485 775 q 359 775 426 775 q 179 775 292 775 l 179 833 l 507 833 m 368 833 l 368 0 l 131 0 l 131 833 l 368 833 m 135 89 l 135 0 l 36 0 l 36 14 q 44 14 36 14 q 53 14 51 14 q 108 36 85 14 q 131 89 131 58 l 135 89 m 133 746 l 131 746 q 106 799 129 779 q 51 819 83 819 q 44 819 51 819 q 35 819 36 819 l 35 833 l 133 833 l 133 746 z "},"ð":{"ha":1035,"x_min":35,"x_max":994,"o":"m 507 833 q 769 784 660 833 q 936 642 878 735 q 994 417 994 549 q 936 192 994 285 q 769 49 878 99 q 507 0 660 0 l 194 0 l 192 60 q 365 60 301 60 q 456 60 428 60 q 485 60 485 60 q 676 154 606 60 q 746 417 746 249 q 676 680 746 585 q 485 775 607 775 q 456 775 485 775 q 359 775 426 775 q 179 775 292 775 l 179 833 l 507 833 m 368 833 l 368 0 l 131 0 l 131 833 l 368 833 m 135 88 l 135 0 l 36 0 l 36 14 q 44 14 36 14 q 53 14 51 14 q 108 35 85 14 q 131 88 131 57 l 135 88 m 133 746 l 131 746 q 107 799 131 779 q 51 819 83 819 q 44 819 51 819 q 35 819 36 819 l 35 833 l 133 833 l 133 746 m 39 446 l 528 446 l 528 388 l 39 388 l 39 446 z "},"ď":{"ha":1035,"x_min":35,"x_max":994,"o":"m 507 833 q 769 784 660 833 q 936 642 878 735 q 994 417 994 549 q 936 192 994 285 q 769 49 878 99 q 507 0 660 0 l 194 0 l 192 60 q 365 60 301 60 q 456 60 428 60 q 485 60 485 60 q 676 154 606 60 q 746 417 746 249 q 676 680 746 585 q 485 775 607 775 q 456 775 485 775 q 359 775 426 775 q 179 775 292 775 l 179 833 l 507 833 m 368 833 l 368 0 l 131 0 l 131 833 l 368 833 m 135 89 l 135 0 l 36 0 l 36 14 q 44 14 36 14 q 53 14 51 14 q 108 36 85 14 q 131 89 131 58 l 135 89 m 133 746 l 131 746 q 106 799 129 779 q 51 819 83 819 q 44 819 51 819 q 35 819 36 819 l 35 833 l 133 833 l 133 746 z "},"đ":{"ha":1035,"x_min":35,"x_max":994,"o":"m 507 833 q 769 784 660 833 q 936 642 878 735 q 994 417 994 549 q 936 192 994 285 q 769 49 878 99 q 507 0 660 0 l 194 0 l 192 60 q 365 60 301 60 q 456 60 428 60 q 485 60 485 60 q 676 154 606 60 q 746 417 746 249 q 676 680 746 585 q 485 775 607 775 q 456 775 485 775 q 359 775 426 775 q 179 775 292 775 l 179 833 l 507 833 m 368 833 l 368 0 l 131 0 l 131 833 l 368 833 m 135 89 l 135 0 l 36 0 l 36 14 q 44 14 36 14 q 53 14 51 14 q 108 36 85 14 q 131 89 131 58 l 135 89 m 133 746 l 131 746 q 106 799 129 779 q 51 819 83 819 q 44 819 51 819 q 35 819 36 819 l 35 833 l 133 833 l 133 746 z "},"e":{"ha":790,"x_min":39,"x_max":767,"o":"m 365 833 l 365 0 l 128 0 l 128 833 l 365 833 m 674 60 l 718 0 l 363 0 l 363 60 l 674 60 m 633 442 l 633 382 l 363 382 l 363 442 l 633 442 m 694 833 l 694 774 l 363 774 l 363 833 l 694 833 m 767 274 l 721 0 l 472 0 l 514 60 q 619 85 571 60 q 702 159 667 111 q 754 274 738 207 l 767 274 m 633 385 l 633 249 l 618 249 l 618 256 q 585 345 618 310 q 497 382 551 381 l 497 385 l 633 385 m 633 574 l 633 439 l 497 439 l 497 442 q 585 479 551 443 q 618 568 618 515 l 618 574 l 633 574 m 694 776 l 694 613 l 681 613 l 681 622 q 643 733 681 693 q 536 774 606 772 l 536 776 l 694 776 m 694 854 l 694 821 l 553 833 q 635 841 592 833 q 694 854 679 849 m 132 86 l 135 0 l 39 0 l 39 14 q 46 14 39 14 q 54 14 53 14 q 106 35 85 14 q 128 86 128 56 l 132 86 m 132 746 l 128 746 q 106 799 128 778 q 54 819 85 819 q 46 819 53 819 q 39 819 39 819 l 39 833 l 135 833 l 132 746 z "},"é":{"ha":790,"x_min":39,"x_max":767,"o":"m 365 833 l 365 0 l 128 0 l 128 833 l 365 833 m 674 60 l 718 0 l 363 0 l 363 60 l 674 60 m 633 442 l 633 382 l 363 382 l 363 442 l 633 442 m 694 833 l 694 774 l 363 774 l 363 833 l 694 833 m 767 274 l 721 0 l 472 0 l 514 60 q 619 85 571 60 q 702 159 667 111 q 754 274 738 207 l 767 274 m 633 385 l 633 249 l 618 249 l 618 256 q 585 345 618 310 q 497 382 551 381 l 497 385 l 633 385 m 633 574 l 633 439 l 497 439 l 497 442 q 585 479 551 443 q 618 568 618 515 l 618 574 l 633 574 m 694 776 l 694 613 l 681 613 l 681 622 q 643 733 681 693 q 536 774 606 772 l 536 776 l 694 776 m 694 854 l 694 821 l 553 833 q 635 841 592 833 q 694 854 679 849 m 132 86 l 135 0 l 39 0 l 39 14 q 46 14 39 14 q 54 14 53 14 q 106 35 85 14 q 128 86 128 56 l 132 86 m 132 746 l 128 746 q 106 799 128 778 q 54 819 85 819 q 46 819 53 819 q 39 819 39 819 l 39 833 l 135 833 l 132 746 z "},"ě":{"ha":790,"x_min":39,"x_max":767,"o":"m 365 833 l 365 0 l 128 0 l 128 833 l 365 833 m 674 60 l 718 0 l 363 0 l 363 60 l 674 60 m 633 442 l 633 382 l 363 382 l 363 442 l 633 442 m 694 833 l 694 774 l 363 774 l 363 833 l 694 833 m 767 274 l 721 0 l 472 0 l 514 60 q 619 85 571 60 q 702 159 667 111 q 754 274 738 207 l 767 274 m 633 385 l 633 249 l 618 249 l 618 256 q 585 345 618 310 q 497 382 551 381 l 497 385 l 633 385 m 633 574 l 633 439 l 497 439 l 497 442 q 585 479 551 443 q 618 568 618 515 l 618 574 l 633 574 m 694 776 l 694 613 l 681 613 l 681 622 q 643 733 681 693 q 536 774 606 772 l 536 776 l 694 776 m 694 854 l 694 821 l 553 833 q 635 841 592 833 q 694 854 679 849 m 132 86 l 135 0 l 39 0 l 39 14 q 46 14 39 14 q 54 14 53 14 q 106 35 85 14 q 128 86 128 56 l 132 86 m 132 746 l 128 746 q 106 799 128 778 q 54 819 85 819 q 46 819 53 819 q 39 819 39 819 l 39 833 l 135 833 l 132 746 z "},"ê":{"ha":790,"x_min":39,"x_max":767,"o":"m 365 833 l 365 0 l 128 0 l 128 833 l 365 833 m 674 60 l 718 0 l 363 0 l 363 60 l 674 60 m 633 442 l 633 382 l 363 382 l 363 442 l 633 442 m 694 833 l 694 774 l 363 774 l 363 833 l 694 833 m 767 274 l 721 0 l 472 0 l 514 60 q 619 85 571 60 q 702 159 667 111 q 754 274 738 207 l 767 274 m 633 385 l 633 249 l 618 249 l 618 256 q 585 345 618 310 q 497 382 551 381 l 497 385 l 633 385 m 633 574 l 633 439 l 497 439 l 497 442 q 585 479 551 443 q 618 568 618 515 l 618 574 l 633 574 m 694 776 l 694 613 l 681 613 l 681 622 q 643 733 681 693 q 536 774 606 772 l 536 776 l 694 776 m 694 854 l 694 821 l 553 833 q 635 841 592 833 q 694 854 679 849 m 132 86 l 135 0 l 39 0 l 39 14 q 46 14 39 14 q 54 14 53 14 q 106 35 85 14 q 128 86 128 56 l 132 86 m 132 746 l 128 746 q 106 799 128 778 q 54 819 85 819 q 46 819 53 819 q 39 819 39 819 l 39 833 l 135 833 l 132 746 z "},"ë":{"ha":790,"x_min":39,"x_max":767,"o":"m 365 833 l 365 0 l 128 0 l 128 833 l 365 833 m 674 60 l 718 0 l 363 0 l 363 60 l 674 60 m 633 442 l 633 382 l 363 382 l 363 442 l 633 442 m 694 833 l 694 774 l 363 774 l 363 833 l 694 833 m 767 274 l 721 0 l 472 0 l 514 60 q 619 85 571 60 q 702 159 667 111 q 754 274 738 207 l 767 274 m 633 385 l 633 249 l 618 249 l 618 256 q 585 345 618 310 q 497 382 551 381 l 497 385 l 633 385 m 633 574 l 633 439 l 497 439 l 497 442 q 585 479 551 443 q 618 568 618 515 l 618 574 l 633 574 m 694 776 l 694 613 l 681 613 l 681 622 q 643 733 681 693 q 536 774 606 772 l 536 776 l 694 776 m 694 854 l 694 821 l 553 833 q 635 841 592 833 q 694 854 679 849 m 132 86 l 135 0 l 39 0 l 39 14 q 46 14 39 14 q 54 14 53 14 q 106 35 85 14 q 128 86 128 56 l 132 86 m 132 746 l 128 746 q 106 799 128 778 q 54 819 85 819 q 46 819 53 819 q 39 819 39 819 l 39 833 l 135 833 l 132 746 z "},"ė":{"ha":790,"x_min":39,"x_max":767,"o":"m 365 833 l 365 0 l 128 0 l 128 833 l 365 833 m 674 60 l 718 0 l 363 0 l 363 60 l 674 60 m 633 442 l 633 382 l 363 382 l 363 442 l 633 442 m 694 833 l 694 774 l 363 774 l 363 833 l 694 833 m 767 274 l 721 0 l 472 0 l 514 60 q 619 85 571 60 q 702 159 667 111 q 754 274 738 207 l 767 274 m 633 385 l 633 249 l 618 249 l 618 256 q 585 345 618 310 q 497 382 551 381 l 497 385 l 633 385 m 633 574 l 633 439 l 497 439 l 497 442 q 585 479 551 443 q 618 568 618 515 l 618 574 l 633 574 m 694 776 l 694 613 l 681 613 l 681 622 q 643 733 681 693 q 536 774 606 772 l 536 776 l 694 776 m 694 854 l 694 821 l 553 833 q 635 841 592 833 q 694 854 679 849 m 132 86 l 135 0 l 39 0 l 39 14 q 46 14 39 14 q 54 14 53 14 q 106 35 85 14 q 128 86 128 56 l 132 86 m 132 746 l 128 746 q 106 799 128 778 q 54 819 85 819 q 46 819 53 819 q 39 819 39 819 l 39 833 l 135 833 l 132 746 z "},"è":{"ha":790,"x_min":39,"x_max":767,"o":"m 365 833 l 365 0 l 128 0 l 128 833 l 365 833 m 674 60 l 718 0 l 363 0 l 363 60 l 674 60 m 633 442 l 633 382 l 363 382 l 363 442 l 633 442 m 694 833 l 694 774 l 363 774 l 363 833 l 694 833 m 767 274 l 721 0 l 472 0 l 514 60 q 619 85 571 60 q 702 159 667 111 q 754 274 738 207 l 767 274 m 633 385 l 633 249 l 618 249 l 618 256 q 585 345 618 310 q 497 382 551 381 l 497 385 l 633 385 m 633 574 l 633 439 l 497 439 l 497 442 q 585 479 551 443 q 618 568 618 515 l 618 574 l 633 574 m 694 776 l 694 613 l 681 613 l 681 622 q 643 733 681 693 q 536 774 606 772 l 536 776 l 694 776 m 694 854 l 694 821 l 553 833 q 635 841 592 833 q 694 854 679 849 m 132 86 l 135 0 l 39 0 l 39 14 q 46 14 39 14 q 54 14 53 14 q 106 35 85 14 q 128 86 128 56 l 132 86 m 132 746 l 128 746 q 106 799 128 778 q 54 819 85 819 q 46 819 53 819 q 39 819 39 819 l 39 833 l 135 833 l 132 746 z "},"ē":{"ha":790,"x_min":39,"x_max":767,"o":"m 365 833 l 365 0 l 128 0 l 128 833 l 365 833 m 674 60 l 718 0 l 363 0 l 363 60 l 674 60 m 633 442 l 633 382 l 363 382 l 363 442 l 633 442 m 694 833 l 694 774 l 363 774 l 363 833 l 694 833 m 767 274 l 721 0 l 472 0 l 514 60 q 619 85 571 60 q 702 159 667 111 q 754 274 738 207 l 767 274 m 633 385 l 633 249 l 618 249 l 618 256 q 585 345 618 310 q 497 382 551 381 l 497 385 l 633 385 m 633 574 l 633 439 l 497 439 l 497 442 q 585 479 551 443 q 618 568 618 515 l 618 574 l 633 574 m 694 776 l 694 613 l 681 613 l 681 622 q 643 733 681 693 q 536 774 606 772 l 536 776 l 694 776 m 694 854 l 694 821 l 553 833 q 635 841 592 833 q 694 854 679 849 m 132 86 l 135 0 l 39 0 l 39 14 q 46 14 39 14 q 54 14 53 14 q 106 35 85 14 q 128 86 128 56 l 132 86 m 132 746 l 128 746 q 106 799 128 778 q 54 819 85 819 q 46 819 53 819 q 39 819 39 819 l 39 833 l 135 833 l 132 746 z "},"ę":{"ha":790,"x_min":39,"x_max":792,"o":"m 365 833 l 365 0 l 128 0 l 128 833 l 365 833 m 674 60 l 718 0 l 363 0 l 363 60 l 674 60 m 633 442 l 633 382 l 363 382 l 363 442 l 633 442 m 694 833 l 694 774 l 363 774 l 363 833 l 694 833 m 767 274 l 721 0 l 472 0 l 514 60 q 619 85 571 60 q 702 159 667 111 q 754 274 738 207 l 767 274 m 633 385 l 633 249 l 618 249 l 618 256 q 585 345 618 310 q 497 382 551 381 l 497 385 l 633 385 m 633 574 l 633 439 l 497 439 l 497 442 q 585 479 551 443 q 618 568 618 515 l 618 574 l 633 574 m 694 776 l 694 613 l 681 613 l 681 622 q 643 733 681 693 q 536 774 606 772 l 536 776 l 694 776 m 694 854 l 694 821 l 553 833 q 635 841 592 833 q 694 854 679 849 m 132 86 l 135 0 l 39 0 l 39 14 q 46 14 39 14 q 54 14 53 14 q 106 35 85 14 q 128 86 128 56 l 132 86 m 132 746 l 128 746 q 106 799 128 778 q 54 819 85 819 q 46 819 53 819 q 39 819 39 819 l 39 833 l 135 833 l 132 746 z "},"f":{"ha":747,"x_min":39,"x_max":696,"o":"m 365 833 l 365 0 l 129 0 l 129 833 l 365 833 m 633 442 l 633 382 l 363 382 l 363 442 l 633 442 m 696 833 l 696 774 l 363 774 l 363 833 l 696 833 m 633 385 l 633 249 l 619 249 l 619 256 q 586 345 619 310 q 497 382 553 381 l 497 385 l 633 385 m 633 574 l 633 439 l 497 439 l 497 442 q 586 479 553 443 q 619 568 619 515 l 619 574 l 633 574 m 696 778 l 696 611 l 682 611 l 682 621 q 644 732 682 692 q 535 774 606 772 l 535 778 l 696 778 m 696 854 l 696 821 l 554 833 q 608 837 579 833 q 660 845 636 840 q 696 854 685 850 m 132 86 l 135 0 l 39 0 l 39 14 q 46 14 39 14 q 54 14 53 14 q 106 35 85 14 q 129 86 128 56 l 132 86 m 132 746 l 129 746 q 106 799 128 778 q 54 819 85 819 q 46 819 53 819 q 39 819 39 819 l 39 833 l 135 833 l 132 746 m 363 86 l 365 86 q 388 35 367 56 q 440 14 408 14 q 447 14 440 14 q 456 14 454 14 l 454 0 l 360 0 l 363 86 z "},"g":{"ha":1010,"x_min":40,"x_max":1000,"o":"m 511 850 q 642 843 575 850 q 767 824 710 836 q 861 793 825 811 l 851 565 l 842 565 q 774 706 817 657 q 677 773 731 754 q 567 792 624 792 q 410 747 472 792 q 318 616 349 701 q 288 408 288 531 q 314 213 288 294 q 392 86 340 131 q 524 42 444 42 q 599 56 564 42 q 659 99 635 71 q 686 171 683 128 l 688 332 q 673 374 689 360 q 629 388 657 388 l 610 388 l 610 399 l 1000 399 l 1000 388 l 982 388 q 924 332 921 388 l 922 140 q 832 67 894 104 q 684 7 769 31 q 500 -17 599 -17 q 258 35 361 -17 q 97 185 154 88 q 40 419 40 282 q 97 651 40 554 q 258 799 153 747 q 511 850 364 850 z "},"ğ":{"ha":1010,"x_min":40,"x_max":1000,"o":"m 511 850 q 642 843 575 850 q 767 824 710 836 q 861 793 825 811 l 851 565 l 842 565 q 774 706 817 657 q 677 773 731 754 q 567 792 624 792 q 410 747 472 792 q 318 616 349 701 q 288 408 288 531 q 314 213 288 294 q 392 86 340 131 q 524 42 444 42 q 599 56 564 42 q 659 99 635 71 q 686 171 683 128 l 688 332 q 673 374 689 360 q 629 388 657 388 l 610 388 l 610 399 l 1000 399 l 1000 388 l 982 388 q 924 332 921 388 l 922 140 q 832 67 894 104 q 684 7 769 31 q 500 -17 599 -17 q 258 35 361 -17 q 97 185 154 88 q 40 419 40 282 q 97 651 40 554 q 258 799 153 747 q 511 850 364 850 z "},"ģ":{"ha":1010,"x_min":40,"x_max":1000,"o":"m 463 -107 q 508 -90 482 -90 q 557 -101 533 -89 q 592 -142 581 -114 q 605 -224 610 -182 q 576 -300 600 -267 q 518 -351 553 -333 q 442 -361 483 -368 l 438 -350 q 472 -322 458 -340 q 483 -279 485 -304 q 460 -229 482 -254 q 436 -165 436 -201 q 463 -107 436 -128 m 511 850 q 642 843 575 850 q 767 824 710 836 q 861 793 825 811 l 851 565 l 842 565 q 774 706 817 657 q 677 773 731 754 q 567 792 624 792 q 410 747 472 792 q 318 616 349 701 q 288 408 288 531 q 314 213 288 294 q 392 86 340 131 q 524 42 444 42 q 599 56 564 42 q 659 99 635 71 q 686 171 683 128 l 688 332 q 673 374 689 360 q 629 388 657 388 l 610 388 l 610 399 l 1000 399 l 1000 388 l 982 388 q 924 332 921 388 l 922 140 q 832 67 894 104 q 684 7 769 31 q 500 -17 599 -17 q 258 35 361 -17 q 97 185 154 88 q 40 419 40 282 q 97 651 40 554 q 258 799 153 747 q 511 850 364 850 z "},"ġ":{"ha":1010,"x_min":40,"x_max":1000,"o":"m 511 850 q 642 843 575 850 q 767 824 710 836 q 861 793 825 811 l 851 565 l 842 565 q 774 706 817 657 q 677 773 731 754 q 567 792 624 792 q 410 747 472 792 q 318 616 349 701 q 288 408 288 531 q 314 213 288 294 q 392 86 340 131 q 524 42 444 42 q 599 56 564 42 q 659 99 635 71 q 686 171 683 128 l 688 332 q 673 374 689 360 q 629 388 657 388 l 610 388 l 610 399 l 1000 399 l 1000 388 l 982 388 q 924 332 921 388 l 922 140 q 832 67 894 104 q 684 7 769 31 q 500 -17 599 -17 q 258 35 361 -17 q 97 185 154 88 q 40 419 40 282 q 97 651 40 554 q 258 799 153 747 q 511 850 364 850 z "},"h":{"ha":1044,"x_min":39,"x_max":1008,"o":"m 918 833 l 918 0 l 682 0 l 682 833 l 918 833 m 364 833 l 364 0 l 128 0 l 128 833 l 364 833 m 693 446 l 693 388 l 353 388 l 353 446 l 693 446 m 132 86 l 132 0 l 39 0 l 39 14 q 46 14 39 14 q 54 14 53 14 q 106 35 83 14 q 128 86 128 56 l 132 86 m 361 86 l 364 86 q 387 35 365 56 q 439 14 408 14 q 447 14 439 14 q 454 14 454 14 l 454 0 l 361 0 l 361 86 m 361 747 l 361 833 l 454 833 l 454 819 q 447 819 454 819 q 439 819 439 819 q 387 799 408 819 q 364 747 365 779 l 361 747 m 132 747 l 128 747 q 106 799 128 779 q 54 819 83 819 q 46 819 53 819 q 39 819 39 819 l 39 833 l 132 833 l 132 747 m 685 86 l 685 0 l 593 0 l 593 14 q 600 14 593 14 q 607 14 607 14 q 660 35 639 14 q 682 86 681 56 l 685 86 m 914 86 l 918 86 q 939 35 918 56 q 992 14 960 14 q 999 14 992 14 q 1007 14 1007 14 l 1007 0 l 914 0 l 914 86 m 914 747 l 914 833 l 1008 833 l 1008 819 q 1001 819 1008 819 q 993 819 993 819 q 940 799 961 819 q 918 747 919 779 l 914 747 m 685 747 l 682 747 q 660 799 681 779 q 607 819 639 819 q 600 819 607 819 q 593 819 593 819 l 593 833 l 685 833 l 685 747 z "},"ħ":{"ha":1046,"x_min":39,"x_max":1008,"o":"m 1004 640 l 1004 582 l 44 582 l 44 640 l 1004 640 m 918 833 l 918 0 l 682 0 l 682 833 l 918 833 m 364 833 l 364 0 l 128 0 l 128 833 l 364 833 m 693 446 l 693 388 l 353 388 l 353 446 l 693 446 m 132 86 l 132 0 l 39 0 l 39 14 q 46 14 39 14 q 54 14 53 14 q 106 35 83 14 q 128 86 128 56 l 132 86 m 361 86 l 364 86 q 387 35 365 56 q 439 14 408 14 q 447 14 439 14 q 454 14 454 14 l 454 0 l 361 0 l 361 86 m 361 747 l 361 833 l 454 833 l 454 819 q 447 819 454 819 q 439 819 439 819 q 387 799 408 819 q 364 747 365 779 l 361 747 m 132 747 l 128 747 q 106 799 128 779 q 54 819 83 819 q 46 819 53 819 q 39 819 39 819 l 39 833 l 132 833 l 132 747 m 685 86 l 685 0 l 593 0 l 593 14 q 600 14 593 14 q 607 14 607 14 q 660 35 639 14 q 682 86 681 56 l 685 86 m 914 86 l 918 86 q 939 35 918 56 q 992 14 960 14 q 999 14 992 14 q 1007 14 1007 14 l 1007 0 l 914 0 l 914 86 m 914 747 l 914 833 l 1008 833 l 1008 819 q 1001 819 1008 819 q 993 819 993 819 q 940 799 961 819 q 918 747 919 779 l 914 747 m 685 747 l 682 747 q 660 799 681 779 q 607 819 639 819 q 600 819 607 819 q 593 819 593 819 l 593 833 l 685 833 l 685 747 z "},"i":{"ha":497,"x_min":39,"x_max":458,"o":"m 365 833 l 365 0 l 131 0 l 131 833 l 365 833 m 135 86 l 135 0 l 39 0 l 39 14 q 46 14 39 14 q 54 14 53 14 q 107 35 85 14 q 131 86 129 56 l 135 86 m 363 86 l 367 86 q 389 35 367 56 q 443 14 411 14 q 450 14 443 14 q 458 14 457 14 l 458 0 l 363 0 l 363 86 m 363 747 l 363 833 l 457 833 l 457 819 q 450 819 457 819 q 443 819 443 819 q 389 799 411 819 q 367 747 367 779 l 363 747 m 135 747 l 131 747 q 107 799 129 779 q 54 819 85 819 q 46 819 53 819 q 39 819 39 819 l 39 833 l 135 833 l 135 747 z "},"ı":{"ha":489,"x_min":39,"x_max":450,"o":"m 363 833 l 363 0 l 125 0 l 125 833 l 363 833 m 129 86 l 129 0 l 39 0 l 39 14 q 46 14 39 14 q 54 14 53 14 q 103 35 82 14 q 125 86 125 56 l 129 86 m 360 86 l 363 86 q 385 35 364 56 q 435 14 406 14 q 442 14 435 14 q 450 14 449 14 l 450 0 l 360 0 l 360 86 m 360 747 l 360 833 l 450 833 l 449 819 q 442 819 449 819 q 435 819 436 819 q 385 799 406 819 q 363 747 364 779 l 360 747 m 129 747 l 125 747 q 103 799 125 779 q 54 819 82 819 q 46 819 53 819 q 39 819 39 819 l 39 833 l 129 833 l 129 747 z "},"í":{"ha":488,"x_min":39,"x_max":526,"o":"m 363 833 l 363 0 l 125 0 l 125 833 l 363 833 m 129 86 l 129 0 l 39 0 l 39 14 q 46 14 39 14 q 54 14 53 14 q 103 35 82 14 q 125 86 125 56 l 129 86 m 360 86 l 363 86 q 385 35 364 56 q 435 14 406 14 q 442 14 435 14 q 450 14 449 14 l 450 0 l 360 0 l 360 86 m 360 747 l 360 833 l 450 833 l 449 819 q 442 819 449 819 q 435 819 436 819 q 385 799 406 819 q 363 747 364 779 l 360 747 m 129 747 l 125 747 q 103 799 125 779 q 54 819 82 819 q 46 819 53 819 q 39 819 39 819 l 39 833 l 129 833 l 129 747 z "},"î":{"ha":488,"x_min":15,"x_max":479,"o":"m 363 833 l 363 0 l 125 0 l 125 833 l 363 833 m 129 86 l 129 0 l 39 0 l 39 14 q 46 14 39 14 q 54 14 53 14 q 103 35 82 14 q 125 86 125 56 l 129 86 m 360 86 l 363 86 q 385 35 364 56 q 435 14 406 14 q 442 14 435 14 q 450 14 449 14 l 450 0 l 360 0 l 360 86 m 360 747 l 360 833 l 450 833 l 449 819 q 442 819 449 819 q 435 819 436 819 q 385 799 406 819 q 363 747 364 779 l 360 747 m 129 747 l 125 747 q 103 799 125 779 q 54 819 82 819 q 46 819 53 819 q 39 819 39 819 l 39 833 l 129 833 l 129 747 z "},"ï":{"ha":488,"x_min":-26,"x_max":503,"o":"m 363 833 l 363 0 l 125 0 l 125 833 l 363 833 m 129 86 l 129 0 l 39 0 l 39 14 q 46 14 39 14 q 54 14 53 14 q 103 35 82 14 q 125 86 125 56 l 129 86 m 360 86 l 363 86 q 385 35 364 56 q 435 14 406 14 q 442 14 435 14 q 450 14 449 14 l 450 0 l 360 0 l 360 86 m 360 747 l 360 833 l 450 833 l 449 819 q 442 819 449 819 q 435 819 436 819 q 385 799 406 819 q 363 747 364 779 l 360 747 m 129 747 l 125 747 q 103 799 125 779 q 54 819 82 819 q 46 819 53 819 q 39 819 39 819 l 39 833 l 129 833 l 129 747 z "},"ì":{"ha":489,"x_min":-40,"x_max":450,"o":"m 363 833 l 363 0 l 125 0 l 125 833 l 363 833 m 129 86 l 129 0 l 39 0 l 39 14 q 46 14 39 14 q 54 14 53 14 q 103 35 82 14 q 125 86 125 56 l 129 86 m 360 86 l 363 86 q 385 35 364 56 q 435 14 406 14 q 442 14 435 14 q 450 14 449 14 l 450 0 l 360 0 l 360 86 m 360 747 l 360 833 l 450 833 l 449 819 q 442 819 449 819 q 435 819 436 819 q 385 799 406 819 q 363 747 364 779 l 360 747 m 129 747 l 125 747 q 103 799 125 779 q 54 819 82 819 q 46 819 53 819 q 39 819 39 819 l 39 833 l 129 833 l 129 747 z "},"ĳ":{"ha":983,"x_min":39,"x_max":953,"o":"m 365 833 l 365 0 l 131 0 l 131 833 l 365 833 m 135 86 l 135 0 l 39 0 l 39 14 q 46 14 39 14 q 54 14 53 14 q 107 35 85 14 q 131 86 129 56 l 135 86 m 363 86 l 367 86 q 389 35 367 56 q 443 14 411 14 q 450 14 443 14 q 458 14 457 14 l 458 0 l 363 0 l 363 86 m 363 747 l 363 833 l 457 833 l 457 819 q 450 819 457 819 q 443 819 443 819 q 389 799 411 819 q 367 747 367 779 l 363 747 m 135 747 l 131 747 q 107 799 129 779 q 54 819 85 819 q 46 819 53 819 q 39 819 39 819 l 39 833 l 135 833 l 135 747 m 858 833 l 858 57 q 827 -77 858 -18 q 743 -176 796 -136 q 624 -232 690 -215 q 486 -240 557 -249 l 486 -228 q 572 -156 543 -201 q 612 -53 601 -110 q 622 60 622 3 l 622 833 l 858 833 m 626 833 l 626 743 l 622 743 q 600 797 622 775 q 544 819 578 819 l 531 819 l 529 833 l 626 833 m 953 833 l 953 819 l 936 819 q 883 797 906 819 q 858 743 860 775 l 856 743 l 856 833 l 953 833 z "},"ī":{"ha":503,"x_min":44,"x_max":457,"o":"m 369 833 l 369 0 l 132 0 l 132 833 l 369 833 m 136 86 l 136 0 l 46 0 l 46 14 q 53 14 46 14 q 61 14 60 14 q 110 35 89 14 q 132 86 132 56 l 136 86 m 367 86 l 369 86 q 392 35 371 56 q 442 14 413 14 q 449 14 442 14 q 457 14 456 14 l 457 0 l 367 0 l 367 86 m 367 747 l 367 833 l 457 833 l 456 819 q 449 819 456 819 q 442 819 443 819 q 392 799 413 819 q 369 747 371 779 l 367 747 m 136 747 l 132 747 q 110 799 132 779 q 61 819 89 819 q 53 819 60 819 q 46 819 46 819 l 46 833 l 136 833 l 136 747 z "},"į":{"ha":489,"x_min":39,"x_max":451,"o":"m 363 833 l 363 0 l 126 0 l 126 833 l 363 833 m 131 86 l 131 0 l 39 0 l 39 13 q 46 12 39 13 q 54 11 53 11 q 105 33 83 11 q 126 86 126 56 l 131 86 m 360 86 l 363 86 q 385 33 364 56 q 436 11 407 11 q 443 12 436 11 q 451 13 450 13 l 451 0 l 360 0 l 360 86 m 360 747 l 360 833 l 451 833 l 450 822 q 443 822 450 822 q 436 822 436 822 q 385 801 406 822 q 363 747 364 779 l 360 747 m 131 747 l 126 747 q 105 801 126 779 q 54 822 83 822 q 46 822 53 822 q 39 822 39 822 l 39 833 l 131 833 l 131 747 m 306 4 l 319 0 q 243 -42 263 -12 q 226 -108 224 -71 q 254 -174 229 -150 q 315 -197 279 -197 q 385 -167 351 -196 l 394 -175 q 356 -255 388 -228 q 283 -286 325 -282 q 201 -273 240 -290 q 136 -218 161 -256 q 118 -124 111 -181 q 154 -44 125 -74 q 224 -4 183 -15 q 306 4 265 7 z "},"j":{"ha":488,"x_min":-11,"x_max":456,"o":"m 361 833 l 361 57 q 330 -77 361 -18 q 246 -176 299 -136 q 126 -232 193 -215 q -11 -240 60 -249 l -11 -228 q 75 -156 46 -201 q 115 -53 104 -110 q 125 60 125 3 l 125 833 l 361 833 m 129 833 l 129 743 l 125 743 q 103 797 125 775 q 47 819 81 819 l 33 819 l 32 833 l 129 833 m 456 833 l 456 819 l 439 819 q 385 797 408 819 q 361 743 363 775 l 358 743 l 358 833 l 456 833 z "},"k":{"ha":957,"x_min":39,"x_max":996,"o":"m 575 543 l 869 101 q 928 35 899 57 q 996 13 958 13 l 996 0 l 871 0 q 823 1 857 0 q 743 12 789 1 q 651 47 697 22 q 572 117 606 71 q 548 152 564 128 q 513 206 532 176 q 476 266 494 236 q 440 322 457 296 q 414 365 424 349 q 404 382 404 381 l 575 543 m 844 825 l 489 393 l 404 382 l 728 825 l 844 825 m 929 835 l 929 822 l 924 822 q 851 806 885 822 q 794 764 817 790 l 685 767 q 691 805 700 788 q 658 822 682 822 l 646 822 l 646 835 l 924 835 l 929 835 m 367 835 l 367 0 l 131 0 l 131 835 l 367 835 m 133 86 l 133 0 l 40 0 l 40 14 q 47 14 40 14 q 56 14 53 14 q 108 35 86 14 q 131 86 129 56 l 133 86 m 363 86 l 367 86 q 388 35 367 56 q 442 14 410 14 q 450 14 444 14 q 456 14 456 14 l 456 0 l 363 0 l 363 86 m 363 747 l 363 835 l 456 835 l 456 821 q 450 821 456 821 q 442 821 444 821 q 388 799 410 821 q 367 747 367 778 l 363 747 m 133 747 l 131 747 q 108 800 129 779 q 56 821 86 821 q 48 821 54 821 q 39 821 42 821 l 39 835 l 133 835 l 133 747 z "},"ķ":{"ha":957,"x_min":39,"x_max":996,"o":"m 575 543 l 869 101 q 928 35 899 57 q 996 13 958 13 l 996 0 l 871 0 q 823 1 857 0 q 743 12 789 1 q 651 47 697 22 q 572 117 606 71 q 548 152 564 128 q 513 206 532 176 q 476 266 494 236 q 440 322 457 296 q 414 365 424 349 q 404 382 404 381 l 575 543 m 844 825 l 489 393 l 404 382 l 728 825 l 844 825 m 929 835 l 929 822 l 924 822 q 851 806 885 822 q 794 764 817 790 l 685 767 q 691 805 700 788 q 658 822 682 822 l 646 822 l 646 835 l 924 835 l 929 835 m 367 835 l 367 0 l 131 0 l 131 835 l 367 835 m 133 86 l 133 0 l 40 0 l 40 14 q 47 14 40 14 q 56 14 53 14 q 108 35 86 14 q 131 86 129 56 l 133 86 m 363 86 l 367 86 q 388 35 367 56 q 442 14 410 14 q 450 14 444 14 q 456 14 456 14 l 456 0 l 363 0 l 363 86 m 363 747 l 363 835 l 456 835 l 456 821 q 450 821 456 821 q 442 821 444 821 q 388 799 410 821 q 367 747 367 778 l 363 747 m 133 747 l 131 747 q 108 800 129 779 q 56 821 86 821 q 48 821 54 821 q 39 821 42 821 l 39 835 l 133 835 l 133 747 m 447 -167 q 469 -110 447 -131 q 522 -89 492 -89 q 594 -124 569 -89 q 618 -207 618 -160 q 573 -319 618 -276 q 454 -364 528 -362 l 450 -350 q 483 -324 469 -342 q 496 -285 496 -307 q 491 -258 496 -272 q 472 -229 486 -243 q 454 -200 461 -215 q 447 -167 447 -185 z "},"l":{"ha":768,"x_min":39,"x_max":768,"o":"m 365 833 l 365 0 l 128 0 l 128 833 l 365 833 m 672 60 l 718 0 l 363 0 l 363 60 l 672 60 m 768 274 l 721 0 l 472 0 l 514 60 q 619 85 571 60 q 702 159 667 111 q 754 274 738 207 l 768 274 m 132 86 l 135 0 l 39 0 l 39 14 q 46 14 39 14 q 54 14 53 14 q 106 35 85 14 q 128 86 128 56 l 132 86 m 361 747 l 361 833 l 456 833 l 456 819 q 447 819 454 819 q 440 819 440 819 q 387 799 408 819 q 365 747 365 779 l 361 747 m 132 747 l 128 747 q 106 799 128 779 q 54 819 85 819 q 46 819 53 819 q 39 819 39 819 l 39 833 l 132 833 l 132 747 z "},"ĺ":{"ha":768,"x_min":39,"x_max":768,"o":"m 365 833 l 365 0 l 128 0 l 128 833 l 365 833 m 672 60 l 718 0 l 363 0 l 363 60 l 672 60 m 768 274 l 721 0 l 472 0 l 514 60 q 619 85 571 60 q 702 159 667 111 q 754 274 738 207 l 768 274 m 132 86 l 135 0 l 39 0 l 39 14 q 46 14 39 14 q 54 14 53 14 q 106 35 85 14 q 128 86 128 56 l 132 86 m 361 747 l 361 833 l 456 833 l 456 819 q 447 819 454 819 q 440 819 440 819 q 387 799 408 819 q 365 747 365 779 l 361 747 m 132 747 l 128 747 q 106 799 128 779 q 54 819 85 819 q 46 819 53 819 q 39 819 39 819 l 39 833 l 132 833 l 132 747 z "},"ľ":{"ha":768,"x_min":39,"x_max":768,"o":"m 365 833 l 365 0 l 128 0 l 128 833 l 365 833 m 672 60 l 718 0 l 363 0 l 363 60 l 672 60 m 768 274 l 721 0 l 472 0 l 514 60 q 619 85 571 60 q 702 159 667 111 q 754 274 738 207 l 768 274 m 132 86 l 135 0 l 39 0 l 39 14 q 46 14 39 14 q 54 14 53 14 q 106 35 85 14 q 128 86 128 56 l 132 86 m 361 747 l 361 833 l 456 833 l 456 819 q 447 819 454 819 q 440 819 440 819 q 387 799 408 819 q 365 747 365 779 l 361 747 m 132 747 l 128 747 q 106 799 128 779 q 54 819 85 819 q 46 819 53 819 q 39 819 39 819 l 39 833 l 132 833 l 132 747 m 557 815 q 602 833 576 832 q 652 820 628 833 q 688 781 676 807 q 701 697 706 739 q 672 622 696 656 q 613 572 649 589 q 538 561 578 554 l 535 572 q 568 599 556 581 q 579 642 581 618 q 554 693 578 667 q 532 757 532 719 q 557 815 532 794 z "},"ļ":{"ha":768,"x_min":39,"x_max":768,"o":"m 365 833 l 365 0 l 128 0 l 128 833 l 365 833 m 672 60 l 718 0 l 363 0 l 363 60 l 672 60 m 768 274 l 721 0 l 472 0 l 514 60 q 619 85 571 60 q 702 159 667 111 q 754 274 738 207 l 768 274 m 132 86 l 135 0 l 39 0 l 39 14 q 46 14 39 14 q 54 14 53 14 q 106 35 85 14 q 128 86 128 56 l 132 86 m 361 747 l 361 833 l 456 833 l 456 819 q 447 819 454 819 q 440 819 440 819 q 387 799 408 819 q 365 747 365 779 l 361 747 m 132 747 l 128 747 q 106 799 128 779 q 54 819 85 819 q 46 819 53 819 q 39 819 39 819 l 39 833 l 132 833 l 132 747 m 317 -167 q 339 -110 317 -131 q 392 -89 361 -89 q 463 -124 439 -89 q 488 -207 488 -160 q 442 -319 488 -276 q 324 -364 397 -362 l 319 -350 q 352 -324 339 -342 q 365 -285 365 -307 q 360 -258 365 -272 q 342 -229 356 -243 q 324 -200 331 -215 q 317 -167 317 -185 z "},"ŀ":{"ha":768,"x_min":39,"x_max":768,"o":"m 569 442 q 503 469 531 442 q 475 536 475 496 q 503 603 475 575 q 569 631 531 631 q 636 603 608 631 q 664 536 664 575 q 636 469 664 496 q 569 442 608 442 m 365 833 l 365 0 l 128 0 l 128 833 l 365 833 m 672 60 l 718 0 l 363 0 l 363 60 l 672 60 m 768 274 l 721 0 l 472 0 l 514 60 q 619 85 571 60 q 702 159 667 111 q 754 274 738 207 l 768 274 m 132 86 l 135 0 l 39 0 l 39 14 q 46 14 39 14 q 54 14 53 14 q 106 35 85 14 q 128 86 128 56 l 132 86 m 361 747 l 361 833 l 456 833 l 456 819 q 447 819 454 819 q 440 819 440 819 q 387 799 408 819 q 365 747 365 779 l 361 747 m 132 747 l 128 747 q 106 799 128 779 q 54 819 85 819 q 46 819 53 819 q 39 819 39 819 l 39 833 l 132 833 l 132 747 z "},"ł":{"ha":768,"x_min":22,"x_max":768,"o":"m 22 361 l 492 613 l 525 554 l 56 303 l 22 361 m 365 833 l 365 0 l 128 0 l 128 833 l 365 833 m 672 60 l 718 0 l 363 0 l 363 60 l 672 60 m 768 274 l 721 0 l 472 0 l 514 60 q 619 85 571 60 q 702 159 667 111 q 754 274 738 207 l 768 274 m 132 86 l 135 0 l 39 0 l 39 14 q 46 14 39 14 q 54 14 53 14 q 106 35 85 14 q 128 86 128 56 l 132 86 m 361 747 l 361 833 l 456 833 l 456 819 q 447 819 454 819 q 440 819 440 819 q 387 799 408 819 q 365 747 365 779 l 361 747 m 132 747 l 128 747 q 106 799 128 779 q 54 819 85 819 q 46 819 53 819 q 39 819 39 819 l 39 833 l 132 833 l 132 747 z "},"m":{"ha":1193,"x_min":-19,"x_max":1213,"o":"m 982 850 l 993 692 l 603 113 q 590 90 603 113 q 565 36 576 68 q 553 -28 553 4 l 540 -28 l 475 93 l 982 850 m 115 88 l 115 0 l -19 0 l -19 14 q -9 14 -18 14 q 0 14 0 14 q 59 33 33 14 q 89 88 85 53 l 115 88 m 182 68 q 191 34 181 54 q 229 14 201 14 l 249 14 l 249 0 l 164 0 l 175 68 l 182 68 m 197 850 l 208 850 l 263 700 l 174 0 l 78 0 l 197 850 m 208 850 l 631 271 l 540 -28 l 174 481 l 208 850 m 994 850 l 1117 0 l 869 0 l 807 444 l 982 850 l 994 850 m 1078 88 l 1104 88 q 1136 33 1111 53 q 1192 14 1161 14 q 1202 14 1192 14 q 1213 14 1213 14 l 1213 0 l 1078 0 l 1078 88 m 860 68 l 868 68 l 879 0 l 793 0 l 793 14 l 814 14 q 852 34 843 14 q 860 68 861 54 z "},"n":{"ha":1082,"x_min":24,"x_max":1060,"o":"m 118 851 l 949 138 l 964 -17 l 133 696 l 118 851 m 126 83 l 126 0 l 24 0 l 24 14 q 35 14 24 14 q 46 14 46 14 q 100 33 78 14 q 122 83 122 53 l 126 83 m 353 83 q 376 33 354 53 q 429 14 399 14 q 440 14 429 14 q 451 14 451 14 l 451 0 l 350 0 l 350 83 l 353 83 m 118 851 l 353 601 l 353 0 l 122 0 l 122 700 q 114 811 122 771 q 106 851 106 851 l 118 851 m 960 833 l 960 139 q 964 55 960 90 q 972 1 968 19 q 976 -17 976 -17 l 964 -17 l 729 251 l 728 833 l 960 833 m 957 750 l 957 833 l 1060 833 l 1060 819 q 1048 819 1060 819 q 1036 819 1036 819 q 983 800 1006 819 q 960 750 961 781 l 957 750 m 728 750 q 706 800 728 781 q 653 819 685 819 q 641 819 653 819 q 629 819 629 819 l 629 833 l 732 833 l 732 750 l 728 750 z "},"ń":{"ha":1082,"x_min":24,"x_max":1060,"o":"m 118 851 l 949 138 l 964 -17 l 133 696 l 118 851 m 126 83 l 126 0 l 24 0 l 24 14 q 35 14 24 14 q 46 14 46 14 q 100 33 78 14 q 122 83 122 53 l 126 83 m 353 83 q 376 33 354 53 q 429 14 399 14 q 440 14 429 14 q 451 14 451 14 l 451 0 l 350 0 l 350 83 l 353 83 m 118 851 l 353 601 l 353 0 l 122 0 l 122 700 q 114 811 122 771 q 106 851 106 851 l 118 851 m 960 833 l 960 139 q 964 55 960 90 q 972 1 968 19 q 976 -17 976 -17 l 964 -17 l 729 251 l 728 833 l 960 833 m 957 750 l 957 833 l 1060 833 l 1060 819 q 1048 819 1060 819 q 1036 819 1036 819 q 983 800 1006 819 q 960 750 961 781 l 957 750 m 728 750 q 706 800 728 781 q 653 819 685 819 q 641 819 653 819 q 629 819 629 819 l 629 833 l 732 833 l 732 750 l 728 750 z "},"ň":{"ha":1082,"x_min":24,"x_max":1060,"o":"m 118 851 l 949 138 l 964 -17 l 133 696 l 118 851 m 126 83 l 126 0 l 24 0 l 24 14 q 35 14 24 14 q 46 14 46 14 q 100 33 78 14 q 122 83 122 53 l 126 83 m 353 83 q 376 33 354 53 q 429 14 399 14 q 440 14 429 14 q 451 14 451 14 l 451 0 l 350 0 l 350 83 l 353 83 m 118 851 l 353 601 l 353 0 l 122 0 l 122 700 q 114 811 122 771 q 106 851 106 851 l 118 851 m 960 833 l 960 139 q 964 55 960 90 q 972 1 968 19 q 976 -17 976 -17 l 964 -17 l 729 251 l 728 833 l 960 833 m 957 750 l 957 833 l 1060 833 l 1060 819 q 1048 819 1060 819 q 1036 819 1036 819 q 983 800 1006 819 q 960 750 961 781 l 957 750 m 728 750 q 706 800 728 781 q 653 819 685 819 q 641 819 653 819 q 629 819 629 819 l 629 833 l 732 833 l 732 750 l 728 750 z "},"ņ":{"ha":1082,"x_min":24,"x_max":1060,"o":"m 118 851 l 949 138 l 964 -17 l 133 696 l 118 851 m 126 83 l 126 0 l 24 0 l 24 14 q 35 14 24 14 q 46 14 46 14 q 100 33 78 14 q 122 83 122 53 l 126 83 m 353 83 q 376 33 354 53 q 429 14 399 14 q 440 14 429 14 q 451 14 451 14 l 451 0 l 350 0 l 350 83 l 353 83 m 118 851 l 353 601 l 353 0 l 122 0 l 122 700 q 114 811 122 771 q 106 851 106 851 l 118 851 m 960 833 l 960 139 q 964 55 960 90 q 972 1 968 19 q 976 -17 976 -17 l 964 -17 l 729 251 l 728 833 l 960 833 m 957 750 l 957 833 l 1060 833 l 1060 819 q 1048 819 1060 819 q 1036 819 1036 819 q 983 800 1006 819 q 960 750 961 781 l 957 750 m 728 750 q 706 800 728 781 q 653 819 685 819 q 641 819 653 819 q 629 819 629 819 l 629 833 l 732 833 l 732 750 l 728 750 m 540 -167 q 563 -110 540 -131 q 615 -89 585 -89 q 687 -124 663 -89 q 711 -207 711 -160 q 666 -319 711 -276 q 547 -364 621 -362 l 543 -350 q 576 -324 563 -342 q 589 -285 589 -307 q 584 -258 589 -272 q 565 -229 579 -243 q 547 -200 554 -215 q 540 -167 540 -185 z "},"ŋ":{"ha":1099,"x_min":24,"x_max":1076,"o":"m 126 83 l 126 0 l 24 0 l 24 14 q 35 14 24 14 q 46 14 46 14 q 100 33 78 14 q 122 83 122 53 l 126 83 m 344 83 q 367 33 344 53 q 421 14 390 14 q 432 14 421 14 q 443 14 443 14 l 443 0 l 340 0 l 340 83 l 344 83 m 118 851 l 343 601 l 344 0 l 122 0 l 122 700 q 114 811 122 771 q 106 851 106 851 l 118 851 m 118 851 l 949 138 l 964 -17 l 133 696 l 118 851 m 982 14 q 936 -147 982 -82 q 814 -239 890 -212 q 646 -247 738 -265 l 639 -236 q 694 -189 671 -212 q 731 -135 717 -165 q 752 -56 746 -104 q 758 65 758 -8 l 758 833 l 978 833 l 982 14 m 758 750 q 737 800 758 781 q 683 819 715 819 q 672 819 683 819 q 661 819 661 819 l 661 833 l 763 833 l 763 750 l 758 750 m 975 750 l 975 833 l 1076 833 l 1076 819 q 1065 819 1076 819 q 1054 819 1054 819 q 1001 800 1024 819 q 978 750 979 781 l 975 750 z "},"ñ":{"ha":1082,"x_min":24,"x_max":1060,"o":"m 118 851 l 949 138 l 964 -17 l 133 696 l 118 851 m 126 83 l 126 0 l 24 0 l 24 14 q 35 14 24 14 q 46 14 46 14 q 100 33 78 14 q 122 83 122 53 l 126 83 m 353 83 q 376 33 354 53 q 429 14 399 14 q 440 14 429 14 q 451 14 451 14 l 451 0 l 350 0 l 350 83 l 353 83 m 118 851 l 353 601 l 353 0 l 122 0 l 122 700 q 114 811 122 771 q 106 851 106 851 l 118 851 m 960 833 l 960 139 q 964 55 960 90 q 972 1 968 19 q 976 -17 976 -17 l 964 -17 l 729 251 l 728 833 l 960 833 m 957 750 l 957 833 l 1060 833 l 1060 819 q 1048 819 1060 819 q 1036 819 1036 819 q 983 800 1006 819 q 960 750 961 781 l 957 750 m 728 750 q 706 800 728 781 q 653 819 685 819 q 641 819 653 819 q 629 819 629 819 l 629 833 l 732 833 l 732 750 l 728 750 z "},"o":{"ha":1081,"x_min":42,"x_max":1039,"o":"m 540 850 q 747 821 654 850 q 905 735 839 792 q 1005 599 971 679 q 1039 415 1039 518 q 1005 234 1039 314 q 905 98 971 154 q 747 13 839 42 q 540 -17 654 -17 q 334 13 426 -17 q 176 98 242 42 q 76 234 110 154 q 42 415 42 314 q 76 599 42 518 q 176 735 110 679 q 334 821 242 792 q 540 850 426 850 m 540 42 q 675 86 619 42 q 760 215 731 131 q 790 415 790 299 q 760 618 790 533 q 675 747 731 703 q 540 792 619 792 q 406 747 461 792 q 319 618 350 703 q 289 415 289 533 q 319 215 289 299 q 406 86 350 131 q 540 42 461 42 z "},"ó":{"ha":1081,"x_min":42,"x_max":1039,"o":"m 540 850 q 747 821 654 850 q 905 735 839 792 q 1005 599 971 679 q 1039 415 1039 518 q 1005 234 1039 314 q 905 98 971 154 q 747 13 839 42 q 540 -17 654 -17 q 334 13 426 -17 q 176 98 242 42 q 76 234 110 154 q 42 415 42 314 q 76 599 42 518 q 176 735 110 679 q 334 821 242 792 q 540 850 426 850 m 540 42 q 675 86 619 42 q 760 215 731 131 q 790 415 790 299 q 760 618 790 533 q 675 747 731 703 q 540 792 619 792 q 406 747 461 792 q 319 618 350 703 q 289 415 289 533 q 319 215 289 299 q 406 86 350 131 q 540 42 461 42 z "},"ô":{"ha":1081,"x_min":42,"x_max":1039,"o":"m 540 850 q 747 821 654 850 q 905 735 839 792 q 1005 599 971 679 q 1039 415 1039 518 q 1005 234 1039 314 q 905 98 971 154 q 747 13 839 42 q 540 -17 654 -17 q 334 13 426 -17 q 176 98 242 42 q 76 234 110 154 q 42 415 42 314 q 76 599 42 518 q 176 735 110 679 q 334 821 242 792 q 540 850 426 850 m 540 42 q 675 86 619 42 q 760 215 731 131 q 790 415 790 299 q 760 618 790 533 q 675 747 731 703 q 540 792 619 792 q 406 747 461 792 q 319 618 350 703 q 289 415 289 533 q 319 215 289 299 q 406 86 350 131 q 540 42 461 42 z "},"ö":{"ha":1081,"x_min":42,"x_max":1039,"o":"m 540 850 q 747 821 654 850 q 905 735 839 792 q 1005 599 971 679 q 1039 415 1039 518 q 1005 234 1039 314 q 905 98 971 154 q 747 13 839 42 q 540 -17 654 -17 q 334 13 426 -17 q 176 98 242 42 q 76 234 110 154 q 42 415 42 314 q 76 599 42 518 q 176 735 110 679 q 334 821 242 792 q 540 850 426 850 m 540 42 q 675 86 619 42 q 760 215 731 131 q 790 415 790 299 q 760 618 790 533 q 675 747 731 703 q 540 792 619 792 q 406 747 461 792 q 319 618 350 703 q 289 415 289 533 q 319 215 289 299 q 406 86 350 131 q 540 42 461 42 z "},"ò":{"ha":1081,"x_min":42,"x_max":1039,"o":"m 540 850 q 747 821 654 850 q 905 735 839 792 q 1005 599 971 679 q 1039 415 1039 518 q 1005 234 1039 314 q 905 98 971 154 q 747 13 839 42 q 540 -17 654 -17 q 334 13 426 -17 q 176 98 242 42 q 76 234 110 154 q 42 415 42 314 q 76 599 42 518 q 176 735 110 679 q 334 821 242 792 q 540 850 426 850 m 540 42 q 675 86 619 42 q 760 215 731 131 q 790 415 790 299 q 760 618 790 533 q 675 747 731 703 q 540 792 619 792 q 406 747 461 792 q 319 618 350 703 q 289 415 289 533 q 319 215 289 299 q 406 86 350 131 q 540 42 461 42 z "},"ő":{"ha":1081,"x_min":42,"x_max":1039,"o":"m 540 850 q 747 821 654 850 q 905 735 839 792 q 1005 599 971 679 q 1039 415 1039 518 q 1005 234 1039 314 q 905 98 971 154 q 747 13 839 42 q 540 -17 654 -17 q 334 13 426 -17 q 176 98 242 42 q 76 234 110 154 q 42 415 42 314 q 76 599 42 518 q 176 735 110 679 q 334 821 242 792 q 540 850 426 850 m 540 42 q 675 86 619 42 q 760 215 731 131 q 790 415 790 299 q 760 618 790 533 q 675 747 731 703 q 540 792 619 792 q 406 747 461 792 q 319 618 350 703 q 289 415 289 533 q 319 215 289 299 q 406 86 350 131 q 540 42 461 42 z "},"ō":{"ha":1081,"x_min":42,"x_max":1039,"o":"m 540 850 q 747 821 654 850 q 905 735 839 792 q 1005 599 971 679 q 1039 415 1039 518 q 1005 234 1039 314 q 905 98 971 154 q 747 13 839 42 q 540 -17 654 -17 q 334 13 426 -17 q 176 98 242 42 q 76 234 110 154 q 42 415 42 314 q 76 599 42 518 q 176 735 110 679 q 334 821 242 792 q 540 850 426 850 m 540 42 q 675 86 619 42 q 760 215 731 131 q 790 415 790 299 q 760 618 790 533 q 675 747 731 703 q 540 792 619 792 q 406 747 461 792 q 319 618 350 703 q 289 415 289 533 q 319 215 289 299 q 406 86 350 131 q 540 42 461 42 z "},"ø":{"ha":1081,"x_min":42,"x_max":1039,"o":"m 883 890 l 938 844 l 190 -43 l 135 3 l 883 890 m 540 850 q 742 821 650 850 q 900 735 833 792 q 1003 599 967 679 q 1039 415 1039 518 q 1005 234 1039 314 q 905 98 971 154 q 747 13 839 42 q 540 -17 654 -17 q 334 13 426 -17 q 176 98 242 42 q 76 234 110 154 q 42 415 42 314 q 76 599 42 518 q 176 735 110 679 q 334 821 242 792 q 540 850 426 850 m 540 42 q 675 86 619 42 q 760 215 731 131 q 790 415 790 299 q 760 618 790 533 q 675 747 731 703 q 540 792 619 792 q 406 747 461 792 q 319 618 350 703 q 289 415 289 533 q 319 215 289 299 q 406 86 350 131 q 540 42 461 42 z "},"õ":{"ha":1081,"x_min":42,"x_max":1039,"o":"m 540 850 q 747 821 654 850 q 905 735 839 792 q 1005 599 971 679 q 1039 415 1039 518 q 1005 234 1039 314 q 905 98 971 154 q 747 13 839 42 q 540 -17 654 -17 q 334 13 426 -17 q 176 98 242 42 q 76 234 110 154 q 42 415 42 314 q 76 599 42 518 q 176 735 110 679 q 334 821 242 792 q 540 850 426 850 m 540 42 q 675 86 619 42 q 760 215 731 131 q 790 415 790 299 q 760 618 790 533 q 675 747 731 703 q 540 792 619 792 q 406 747 461 792 q 319 618 350 703 q 289 415 289 533 q 319 215 289 299 q 406 86 350 131 q 540 42 461 42 z "},"œ":{"ha":1360,"x_min":42,"x_max":1336,"o":"m 543 853 q 613 849 581 853 q 678 842 644 846 q 719 838 699 839 q 763 836 740 836 l 763 0 q 737 0 753 0 q 697 -3 721 0 q 644 -9 668 -6 q 593 -15 619 -12 q 531 -17 567 -17 q 273 35 383 -17 q 102 184 163 86 q 42 419 42 282 q 102 653 42 556 q 274 801 163 750 q 543 853 386 853 m 544 40 q 622 53 590 40 q 672 86 654 67 q 690 122 690 106 l 690 713 q 673 749 690 731 q 624 781 656 768 q 546 794 592 794 q 411 752 471 794 q 317 626 351 710 q 281 418 282 542 q 314 215 281 299 q 406 85 347 131 q 544 40 465 40 m 922 836 l 922 0 l 690 0 l 690 836 l 922 836 m 1240 60 l 1283 0 l 918 0 l 917 60 l 1240 60 m 1199 442 l 1199 383 l 918 383 l 918 442 l 1199 442 m 1263 836 l 1263 776 l 917 776 l 917 836 l 1263 836 m 1336 269 l 1288 0 l 1036 0 l 1079 60 q 1185 85 1138 60 q 1269 157 1233 110 q 1322 269 1304 204 l 1336 269 m 1199 386 l 1199 253 l 1185 253 l 1185 260 q 1152 348 1185 314 q 1065 383 1119 382 l 1065 386 l 1199 386 m 1199 572 l 1199 440 l 1065 440 l 1065 442 q 1152 479 1119 444 q 1185 567 1185 514 l 1185 572 l 1199 572 m 1263 781 l 1263 619 l 1249 619 l 1249 629 q 1211 736 1249 697 q 1106 776 1174 775 l 1106 781 l 1263 781 m 1263 858 l 1263 822 l 1117 836 q 1201 844 1156 836 q 1263 858 1246 851 z "},"p":{"ha":828,"x_min":39,"x_max":806,"o":"m 350 833 l 478 833 q 663 802 593 833 q 766 719 733 771 q 801 606 799 667 q 770 460 806 522 q 675 364 735 397 q 544 335 615 331 q 406 389 472 340 l 406 401 q 417 403 406 401 q 445 410 428 404 q 483 431 463 417 q 520 472 503 446 q 547 542 538 499 q 553 580 551 560 q 554 614 556 600 q 513 731 551 688 q 404 775 474 775 l 363 775 q 359 790 363 775 q 353 819 356 804 q 350 833 350 833 m 365 833 l 365 0 l 128 0 l 128 833 l 365 833 m 132 86 l 133 0 l 39 0 l 39 14 q 47 14 42 14 q 56 14 53 14 q 107 35 86 14 q 128 86 128 56 l 132 86 m 131 747 l 128 747 q 106 799 128 779 q 54 819 85 819 q 47 819 53 819 q 39 819 40 819 l 39 833 l 132 833 l 131 747 m 361 86 l 364 86 q 385 35 365 56 q 439 14 406 14 q 446 14 440 14 q 454 14 451 14 l 453 0 l 360 0 l 361 86 z "},"þ":{"ha":814,"x_min":56,"x_max":826,"o":"m 356 667 l 490 667 q 679 635 607 667 q 785 551 751 604 q 822 436 819 499 q 790 290 826 353 q 692 196 753 228 q 558 168 631 164 q 417 221 486 172 l 415 232 q 427 233 415 232 q 458 240 439 235 q 500 261 478 246 q 541 303 522 276 q 571 375 560 331 q 578 413 576 393 q 579 447 581 432 q 535 565 576 521 q 421 608 494 608 l 368 608 q 365 622 368 608 q 358 651 361 636 q 356 667 356 667 m 379 833 l 379 0 l 147 0 l 147 833 l 379 833 m 151 88 l 154 0 l 56 0 l 56 14 q 64 14 56 14 q 72 14 72 14 q 126 35 104 14 q 147 88 147 57 l 151 88 m 151 746 l 147 746 q 126 799 147 778 q 72 819 104 819 q 64 819 72 819 q 56 819 56 819 l 56 833 l 154 833 l 151 746 m 375 88 l 379 88 q 401 35 379 57 q 456 14 424 14 q 463 14 456 14 q 469 14 469 14 l 471 0 l 372 0 l 375 88 m 375 746 l 372 833 l 471 833 l 469 819 q 463 819 469 819 q 456 819 456 819 q 401 799 424 819 q 378 746 379 778 l 375 746 z "},"q":{"ha":1060,"x_min":42,"x_max":1603,"o":"m 526 850 q 729 821 639 850 q 883 735 819 792 q 979 599 946 679 q 1013 415 1013 518 q 979 234 1013 314 q 883 98 946 154 q 729 13 819 42 q 526 -17 639 -17 q 324 13 414 -17 q 172 98 235 42 q 75 234 108 154 q 42 415 42 314 q 75 599 42 518 q 172 735 108 679 q 324 821 235 792 q 526 850 414 850 m 526 42 q 656 86 603 42 q 736 215 708 131 q 764 415 764 299 q 736 618 764 533 q 656 747 708 703 q 526 792 603 792 q 399 747 453 792 q 318 618 346 703 q 290 415 290 533 q 318 215 290 299 q 399 86 346 131 q 526 42 453 42 m 525 -17 l 464 40 q 626 25 560 32 q 744 8 693 18 q 842 -15 796 -1 q 943 -47 889 -28 q 1071 -93 997 -65 q 1233 -140 1158 -126 q 1374 -151 1308 -154 q 1494 -130 1439 -149 q 1594 -78 1550 -111 l 1603 -82 q 1569 -215 1601 -156 q 1479 -310 1538 -274 q 1340 -358 1421 -347 q 1164 -347 1260 -368 q 961 -267 1068 -325 q 833 -184 889 -226 q 726 -104 776 -142 q 627 -43 675 -67 q 525 -17 579 -19 z "},"r":{"ha":928,"x_min":51,"x_max":997,"o":"m 364 833 l 503 833 q 613 823 558 833 q 713 788 668 813 q 785 719 758 764 q 813 606 813 675 q 796 512 813 560 q 738 428 779 464 q 628 382 697 393 q 713 331 675 368 q 771 261 751 293 q 791 223 778 247 q 823 168 804 199 q 864 106 842 138 q 912 47 892 67 q 952 20 932 26 q 997 14 972 14 l 997 0 l 857 0 q 730 9 783 0 q 637 47 676 18 q 560 136 597 76 q 535 183 547 160 q 512 231 522 207 q 494 280 501 256 q 481 326 486 304 q 449 390 468 372 q 417 408 429 407 l 417 419 q 424 419 418 419 q 438 419 429 419 q 489 432 464 419 q 534 475 514 444 q 563 564 554 506 q 565 584 564 571 q 565 615 567 597 q 546 702 563 671 q 506 748 529 733 q 461 767 482 763 q 431 771 440 771 q 403 772 415 772 q 375 771 390 771 q 372 788 374 772 q 367 818 369 803 q 364 833 364 833 m 376 833 l 376 0 l 139 0 l 139 833 l 376 833 m 143 86 l 146 0 l 51 0 l 51 14 q 58 14 53 14 q 67 14 63 14 q 117 35 96 14 q 139 86 139 56 l 143 86 m 143 747 l 139 747 q 118 799 139 779 q 68 819 97 819 q 58 819 64 819 q 51 819 53 819 l 51 833 l 146 833 l 143 747 m 374 86 l 376 86 q 401 33 376 51 q 451 14 425 14 q 456 14 451 14 q 465 14 461 14 l 465 0 l 371 0 l 374 86 z "},"ŕ":{"ha":928,"x_min":51,"x_max":997,"o":"m 364 833 l 503 833 q 613 823 558 833 q 713 788 668 813 q 785 719 758 764 q 813 606 813 675 q 796 512 813 560 q 738 428 779 464 q 628 382 697 393 q 713 331 675 368 q 771 261 751 293 q 791 223 778 247 q 823 168 804 199 q 864 106 842 138 q 912 47 892 67 q 952 20 932 26 q 997 14 972 14 l 997 0 l 857 0 q 730 9 783 0 q 637 47 676 18 q 560 136 597 76 q 535 183 547 160 q 512 231 522 207 q 494 280 501 256 q 481 326 486 304 q 449 390 468 372 q 417 408 429 407 l 417 419 q 424 419 418 419 q 438 419 429 419 q 489 432 464 419 q 534 475 514 444 q 563 564 554 506 q 565 584 564 571 q 565 615 567 597 q 546 702 563 671 q 506 748 529 733 q 461 767 482 763 q 431 771 440 771 q 403 772 415 772 q 375 771 390 771 q 372 788 374 772 q 367 818 369 803 q 364 833 364 833 m 376 833 l 376 0 l 139 0 l 139 833 l 376 833 m 143 86 l 146 0 l 51 0 l 51 14 q 58 14 53 14 q 67 14 63 14 q 117 35 96 14 q 139 86 139 56 l 143 86 m 143 747 l 139 747 q 118 799 139 779 q 68 819 97 819 q 58 819 64 819 q 51 819 53 819 l 51 833 l 146 833 l 143 747 m 374 86 l 376 86 q 401 33 376 51 q 451 14 425 14 q 456 14 451 14 q 465 14 461 14 l 465 0 l 371 0 l 374 86 z "},"ř":{"ha":928,"x_min":51,"x_max":997,"o":"m 364 833 l 503 833 q 613 823 558 833 q 713 788 668 813 q 785 719 758 764 q 813 606 813 675 q 796 512 813 560 q 738 428 779 464 q 628 382 697 393 q 713 331 675 368 q 771 261 751 293 q 791 223 778 247 q 823 168 804 199 q 864 106 842 138 q 912 47 892 67 q 952 20 932 26 q 997 14 972 14 l 997 0 l 857 0 q 730 9 783 0 q 637 47 676 18 q 560 136 597 76 q 535 183 547 160 q 512 231 522 207 q 494 280 501 256 q 481 326 486 304 q 449 390 468 372 q 417 408 429 407 l 417 419 q 424 419 418 419 q 438 419 429 419 q 489 432 464 419 q 534 475 514 444 q 563 564 554 506 q 565 584 564 571 q 565 615 567 597 q 546 702 563 671 q 506 748 529 733 q 461 767 482 763 q 431 771 440 771 q 403 772 415 772 q 375 771 390 771 q 372 788 374 772 q 367 818 369 803 q 364 833 364 833 m 376 833 l 376 0 l 139 0 l 139 833 l 376 833 m 143 86 l 146 0 l 51 0 l 51 14 q 58 14 53 14 q 67 14 63 14 q 117 35 96 14 q 139 86 139 56 l 143 86 m 143 747 l 139 747 q 118 799 139 779 q 68 819 97 819 q 58 819 64 819 q 51 819 53 819 l 51 833 l 146 833 l 143 747 m 374 86 l 376 86 q 401 33 376 51 q 451 14 425 14 q 456 14 451 14 q 465 14 461 14 l 465 0 l 371 0 l 374 86 z "},"ŗ":{"ha":928,"x_min":51,"x_max":997,"o":"m 364 833 l 503 833 q 613 823 558 833 q 713 788 668 813 q 785 719 758 764 q 813 606 813 675 q 796 512 813 560 q 738 428 779 464 q 628 382 697 393 q 713 331 675 368 q 771 261 751 293 q 791 223 778 247 q 823 168 804 199 q 864 106 842 138 q 912 47 892 67 q 952 20 932 26 q 997 14 972 14 l 997 0 l 857 0 q 730 9 783 0 q 637 47 676 18 q 560 136 597 76 q 535 183 547 160 q 512 231 522 207 q 494 280 501 256 q 481 326 486 304 q 449 390 468 372 q 417 408 429 407 l 417 419 q 424 419 418 419 q 438 419 429 419 q 489 432 464 419 q 534 475 514 444 q 563 564 554 506 q 565 584 564 571 q 565 615 567 597 q 546 702 563 671 q 506 748 529 733 q 461 767 482 763 q 431 771 440 771 q 403 772 415 772 q 375 771 390 771 q 372 788 374 772 q 367 818 369 803 q 364 833 364 833 m 376 833 l 376 0 l 139 0 l 139 833 l 376 833 m 143 86 l 146 0 l 51 0 l 51 14 q 58 14 53 14 q 67 14 63 14 q 117 35 96 14 q 139 86 139 56 l 143 86 m 143 747 l 139 747 q 118 799 139 779 q 68 819 97 819 q 58 819 64 819 q 51 819 53 819 l 51 833 l 146 833 l 143 747 m 374 86 l 376 86 q 401 33 376 51 q 451 14 425 14 q 456 14 451 14 q 465 14 461 14 l 465 0 l 371 0 l 374 86 m 488 -167 q 510 -110 488 -131 q 563 -89 532 -89 q 634 -124 610 -89 q 658 -207 658 -160 q 613 -319 658 -276 q 494 -364 568 -362 l 490 -350 q 523 -324 510 -342 q 536 -285 536 -307 q 531 -258 536 -272 q 513 -229 526 -243 q 494 -200 501 -215 q 488 -167 488 -185 z "},"s":{"ha":739,"x_min":57,"x_max":690,"o":"m 333 850 q 399 848 357 850 q 487 842 442 846 q 567 833 532 838 q 610 824 601 828 l 586 646 l 576 646 q 529 750 576 710 q 400 790 482 790 q 294 763 333 790 q 251 690 256 736 q 264 642 250 663 q 302 608 278 622 q 354 579 326 593 l 553 471 q 653 385 615 442 q 683 243 690 328 q 635 101 679 160 q 515 13 592 43 q 332 -17 438 -17 q 214 -7 267 -17 q 125 20 161 3 q 71 60 89 38 q 60 131 57 89 q 76 215 63 174 q 107 283 89 257 l 117 283 q 141 166 114 221 q 224 77 168 111 q 357 42 279 43 q 473 78 436 42 q 510 160 510 114 q 481 228 510 197 q 389 289 453 260 l 217 386 q 101 489 138 422 q 76 638 64 556 q 118 754 85 707 q 206 826 151 801 q 333 850 261 850 m 613 838 l 610 814 l 444 814 l 444 838 l 613 838 z "},"ś":{"ha":739,"x_min":57,"x_max":690,"o":"m 333 850 q 399 848 357 850 q 487 842 442 846 q 567 833 532 838 q 610 824 601 828 l 586 646 l 576 646 q 529 750 576 710 q 400 790 482 790 q 294 763 333 790 q 251 690 256 736 q 264 642 250 663 q 302 608 278 622 q 354 579 326 593 l 553 471 q 653 385 615 442 q 683 243 690 328 q 635 101 679 160 q 515 13 592 43 q 332 -17 438 -17 q 214 -7 267 -17 q 125 20 161 3 q 71 60 89 38 q 60 131 57 89 q 76 215 63 174 q 107 283 89 257 l 117 283 q 141 166 114 221 q 224 77 168 111 q 357 42 279 43 q 473 78 436 42 q 510 160 510 114 q 481 228 510 197 q 389 289 453 260 l 217 386 q 101 489 138 422 q 76 638 64 556 q 118 754 85 707 q 206 826 151 801 q 333 850 261 850 m 613 838 l 610 814 l 444 814 l 444 838 l 613 838 z "},"š":{"ha":739,"x_min":57,"x_max":690,"o":"m 333 850 q 399 848 357 850 q 487 842 442 846 q 567 833 532 838 q 610 824 601 828 l 586 646 l 576 646 q 529 750 576 710 q 400 790 482 790 q 294 763 333 790 q 251 690 256 736 q 264 642 250 663 q 302 608 278 622 q 354 579 326 593 l 553 471 q 653 385 615 442 q 683 243 690 328 q 635 101 679 160 q 515 13 592 43 q 332 -17 438 -17 q 214 -7 267 -17 q 125 20 161 3 q 71 60 89 38 q 60 131 57 89 q 76 215 63 174 q 107 283 89 257 l 117 283 q 141 166 114 221 q 224 77 168 111 q 357 42 279 43 q 473 78 436 42 q 510 160 510 114 q 481 228 510 197 q 389 289 453 260 l 217 386 q 101 489 138 422 q 76 638 64 556 q 118 754 85 707 q 206 826 151 801 q 333 850 261 850 m 613 838 l 610 814 l 444 814 l 444 838 l 613 838 z "},"ş":{"ha":739,"x_min":58,"x_max":690,"o":"m 322 -11 l 400 -11 l 340 -79 q 387 -72 360 -72 q 442 -80 414 -72 q 486 -108 469 -87 q 501 -165 503 -129 q 460 -245 499 -212 q 365 -288 421 -278 q 253 -281 310 -299 l 253 -267 q 314 -256 282 -267 q 369 -223 346 -246 q 394 -164 392 -200 q 375 -120 397 -135 q 320 -103 353 -106 q 263 -112 288 -101 q 259 -106 263 -112 q 256 -99 256 -99 l 322 -11 m 333 850 q 399 848 357 850 q 486 842 442 846 q 566 833 531 838 q 610 824 601 828 l 586 646 l 575 646 q 528 750 575 710 q 399 790 482 790 q 294 763 333 790 q 251 690 256 736 q 264 642 250 663 q 301 608 278 622 q 353 579 325 593 l 553 471 q 653 385 615 442 q 683 243 690 328 q 635 101 679 160 q 514 13 590 43 q 331 -17 438 -17 q 214 -7 267 -17 q 124 20 161 3 q 69 60 88 38 q 60 131 58 89 q 76 215 63 174 q 107 283 89 257 l 115 283 q 141 166 114 221 q 224 77 168 111 q 357 42 279 43 q 473 78 436 42 q 510 160 510 114 q 482 228 510 197 q 389 289 454 260 l 217 386 q 101 489 138 422 q 76 638 65 556 q 117 754 85 707 q 205 826 150 801 q 333 850 260 850 m 613 838 l 610 814 l 444 814 l 444 838 l 613 838 z "},"ș":{"ha":739,"x_min":57,"x_max":690,"o":"m 333 850 q 399 848 357 850 q 487 842 442 846 q 567 833 532 838 q 610 824 601 828 l 586 646 l 576 646 q 529 750 576 710 q 400 790 482 790 q 294 763 333 790 q 251 690 256 736 q 264 642 250 663 q 302 608 278 622 q 354 579 326 593 l 553 471 q 653 385 615 442 q 683 243 690 328 q 635 101 679 160 q 515 13 592 43 q 332 -17 438 -17 q 214 -7 267 -17 q 125 20 161 3 q 71 60 89 38 q 60 131 57 89 q 76 215 63 174 q 107 283 89 257 l 117 283 q 141 166 114 221 q 224 77 168 111 q 357 42 279 43 q 473 78 436 42 q 510 160 510 114 q 481 228 510 197 q 389 289 453 260 l 217 386 q 101 489 138 422 q 76 638 64 556 q 118 754 85 707 q 206 826 151 801 q 333 850 261 850 m 613 838 l 610 814 l 444 814 l 444 838 l 613 838 m 294 -167 q 317 -110 294 -131 q 369 -89 339 -89 q 441 -124 417 -89 q 465 -207 465 -160 q 420 -319 465 -276 q 301 -364 375 -362 l 297 -350 q 330 -324 317 -342 q 343 -285 343 -307 q 338 -258 343 -272 q 319 -229 333 -243 q 301 -200 308 -215 q 294 -167 294 -185 z "},"ß":{"ha":1478,"x_min":57,"x_max":1429,"o":"m 333 850 q 399 848 357 850 q 487 842 442 846 q 567 833 532 838 q 610 824 601 828 l 586 646 l 576 646 q 529 750 576 710 q 400 790 482 790 q 294 763 333 790 q 251 690 256 736 q 264 642 250 663 q 302 608 278 622 q 354 579 326 593 l 553 471 q 653 385 615 442 q 683 243 690 328 q 635 101 679 160 q 515 13 592 43 q 332 -17 438 -17 q 214 -7 267 -17 q 125 20 161 3 q 71 60 89 38 q 60 131 57 89 q 76 215 63 174 q 107 283 89 257 l 117 283 q 141 166 114 221 q 224 77 168 111 q 357 42 279 43 q 473 78 436 42 q 510 160 510 114 q 481 228 510 197 q 389 289 453 260 l 217 386 q 101 489 138 422 q 76 638 64 556 q 118 754 85 707 q 206 826 151 801 q 333 850 261 850 m 613 838 l 610 814 l 444 814 l 444 838 l 613 838 m 1072 850 q 1138 848 1096 850 q 1226 842 1181 846 q 1306 833 1271 838 q 1349 824 1340 828 l 1325 646 l 1315 646 q 1268 750 1315 710 q 1139 790 1221 790 q 1033 763 1072 790 q 990 690 994 736 q 1003 642 989 663 q 1041 608 1017 622 q 1093 579 1065 593 l 1292 471 q 1392 385 1354 442 q 1422 243 1429 328 q 1374 101 1418 160 q 1253 13 1331 43 q 1071 -17 1176 -17 q 953 -7 1006 -17 q 864 20 900 3 q 810 60 828 38 q 799 131 796 89 q 815 215 801 174 q 846 283 828 257 l 856 283 q 880 166 853 221 q 963 77 907 111 q 1096 42 1018 43 q 1212 78 1175 42 q 1249 160 1249 114 q 1220 228 1249 197 q 1128 289 1192 260 l 956 386 q 840 489 876 422 q 815 638 803 556 q 857 754 824 707 q 945 826 890 801 q 1072 850 1000 850 m 1351 838 l 1349 814 l 1183 814 l 1183 838 l 1351 838 z "},"t":{"ha":842,"x_min":13,"x_max":831,"o":"m 540 829 l 540 0 l 303 0 l 303 829 l 540 829 m 831 835 l 831 774 l 13 774 l 13 835 l 831 835 m 831 779 l 831 615 l 817 615 l 817 625 q 778 733 817 694 q 671 774 740 772 l 671 779 l 831 779 m 831 856 l 831 821 l 688 835 q 742 838 713 835 q 797 847 772 842 q 831 856 822 851 m 306 86 l 306 0 l 214 0 l 214 14 q 221 14 214 14 q 228 14 228 14 q 281 35 260 14 q 303 86 301 56 l 306 86 m 535 86 l 540 86 q 561 35 539 56 q 614 14 583 14 q 621 14 614 14 q 628 14 628 14 l 628 0 l 535 0 l 535 86 m 171 779 l 171 774 q 64 733 101 772 q 26 625 26 694 l 26 615 l 13 615 l 13 779 l 171 779 m 13 856 q 47 847 24 851 q 100 838 71 842 q 156 835 129 835 l 13 821 l 13 856 z "},"ŧ":{"ha":842,"x_min":13,"x_max":831,"o":"m 540 829 l 540 0 l 303 0 l 303 829 l 540 829 m 831 835 l 831 774 l 13 774 l 13 835 l 831 835 m 831 779 l 831 615 l 817 615 l 817 625 q 778 733 817 694 q 671 774 740 772 l 671 779 l 831 779 m 831 856 l 831 821 l 688 835 q 742 838 713 835 q 797 847 772 842 q 831 856 822 851 m 306 86 l 306 0 l 214 0 l 214 14 q 221 14 214 14 q 228 14 228 14 q 281 35 260 14 q 303 86 301 56 l 306 86 m 535 86 l 540 86 q 561 35 539 56 q 614 14 583 14 q 621 14 614 14 q 628 14 628 14 l 628 0 l 535 0 l 535 86 m 171 779 l 171 774 q 64 733 101 772 q 26 625 26 694 l 26 615 l 13 615 l 13 779 l 171 779 m 13 856 q 47 847 24 851 q 100 838 71 842 q 156 835 129 835 l 13 821 l 13 856 m 719 478 l 719 419 l 129 419 l 129 478 l 719 478 z "},"ť":{"ha":842,"x_min":13,"x_max":831,"o":"m 640 1158 l 631 1169 l 426 1079 l 207 1169 l 199 1158 l 418 931 l 435 931 l 640 1158 m 540 829 l 540 0 l 303 0 l 303 829 l 540 829 m 831 835 l 831 774 l 13 774 l 13 835 l 831 835 m 831 779 l 831 615 l 817 615 l 817 625 q 778 733 817 694 q 671 774 740 772 l 671 779 l 831 779 m 831 856 l 831 821 l 688 835 q 742 838 713 835 q 797 847 772 842 q 831 856 822 851 m 306 86 l 306 0 l 214 0 l 214 14 q 221 14 214 14 q 228 14 228 14 q 281 35 260 14 q 303 86 301 56 l 306 86 m 535 86 l 540 86 q 561 35 539 56 q 614 14 583 14 q 621 14 614 14 q 628 14 628 14 l 628 0 l 535 0 l 535 86 m 171 779 l 171 774 q 64 733 101 772 q 26 625 26 694 l 26 615 l 13 615 l 13 779 l 171 779 m 13 856 q 47 847 24 851 q 100 838 71 842 q 156 835 129 835 l 13 821 l 13 856 z "},"ţ":{"ha":842,"x_min":13,"x_max":831,"o":"m 540 829 l 540 0 l 303 0 l 303 829 l 540 829 m 831 835 l 831 774 l 13 774 l 13 835 l 831 835 m 831 779 l 831 615 l 817 615 l 817 625 q 778 733 817 694 q 671 774 740 772 l 671 779 l 831 779 m 831 856 l 831 821 l 688 835 q 742 838 713 835 q 797 847 772 842 q 831 856 822 851 m 306 86 l 306 0 l 214 0 l 214 14 q 221 14 214 14 q 228 14 228 14 q 281 35 260 14 q 303 86 301 56 l 306 86 m 535 86 l 540 86 q 561 35 539 56 q 614 14 583 14 q 621 14 614 14 q 628 14 628 14 l 628 0 l 535 0 l 535 86 m 171 779 l 171 774 q 64 733 101 772 q 26 625 26 694 l 26 615 l 13 615 l 13 779 l 171 779 m 13 856 q 47 847 24 851 q 100 838 71 842 q 156 835 129 835 l 13 821 l 13 856 z "},"ț":{"ha":842,"x_min":13,"x_max":831,"o":"m 540 829 l 540 0 l 303 0 l 303 829 l 540 829 m 831 835 l 831 774 l 13 774 l 13 835 l 831 835 m 831 779 l 831 615 l 817 615 l 817 625 q 778 733 817 694 q 671 774 740 772 l 671 779 l 831 779 m 831 856 l 831 821 l 688 835 q 742 838 713 835 q 797 847 772 842 q 831 856 822 851 m 306 86 l 306 0 l 214 0 l 214 14 q 221 14 214 14 q 228 14 228 14 q 281 35 260 14 q 303 86 301 56 l 306 86 m 535 86 l 540 86 q 561 35 539 56 q 614 14 583 14 q 621 14 614 14 q 628 14 628 14 l 628 0 l 535 0 l 535 86 m 171 779 l 171 774 q 64 733 101 772 q 26 625 26 694 l 26 615 l 13 615 l 13 779 l 171 779 m 13 856 q 47 847 24 851 q 100 838 71 842 q 156 835 129 835 l 13 821 l 13 856 m 342 -165 q 364 -108 342 -129 q 417 -87 386 -87 q 488 -123 464 -87 q 513 -206 513 -158 q 467 -318 513 -275 q 349 -362 422 -361 l 344 -349 q 377 -323 364 -340 q 390 -283 390 -306 q 385 -256 390 -271 q 367 -228 381 -242 q 349 -199 356 -214 q 342 -165 342 -183 z "},"u":{"ha":981,"x_min":32,"x_max":960,"o":"m 349 833 l 349 310 q 406 114 349 185 q 563 43 463 43 q 720 110 664 43 q 778 294 776 176 l 778 833 l 879 833 l 879 307 q 788 69 879 156 q 528 -17 697 -17 q 214 69 315 -17 q 113 304 113 154 l 113 833 l 349 833 m 115 833 l 115 763 l 113 763 q 94 805 113 788 q 51 822 76 822 q 42 822 51 822 q 32 822 32 822 l 32 833 l 115 833 m 431 833 l 431 822 q 420 822 431 822 q 410 822 410 822 q 367 805 385 822 q 349 763 349 788 l 346 763 l 346 833 l 431 833 m 781 833 l 781 763 l 778 763 q 759 805 776 788 q 717 822 742 822 q 707 822 717 822 q 697 822 697 822 l 697 833 l 781 833 m 960 833 l 960 822 q 950 822 960 822 q 940 822 940 822 q 897 805 915 822 q 879 763 879 788 l 876 763 l 876 833 l 960 833 z "},"ú":{"ha":981,"x_min":32,"x_max":960,"o":"m 349 833 l 349 310 q 406 114 349 185 q 563 43 463 43 q 720 110 664 43 q 778 294 776 176 l 778 833 l 879 833 l 879 307 q 788 69 879 156 q 528 -17 697 -17 q 214 69 315 -17 q 113 304 113 154 l 113 833 l 349 833 m 115 833 l 115 763 l 113 763 q 94 805 113 788 q 51 822 76 822 q 42 822 51 822 q 32 822 32 822 l 32 833 l 115 833 m 431 833 l 431 822 q 420 822 431 822 q 410 822 410 822 q 367 805 385 822 q 349 763 349 788 l 346 763 l 346 833 l 431 833 m 781 833 l 781 763 l 778 763 q 759 805 776 788 q 717 822 742 822 q 707 822 717 822 q 697 822 697 822 l 697 833 l 781 833 m 960 833 l 960 822 q 950 822 960 822 q 940 822 940 822 q 897 805 915 822 q 879 763 879 788 l 876 763 l 876 833 l 960 833 z "},"û":{"ha":981,"x_min":32,"x_max":960,"o":"m 349 833 l 349 310 q 406 114 349 185 q 563 43 463 43 q 720 110 664 43 q 778 294 776 176 l 778 833 l 879 833 l 879 307 q 788 69 879 156 q 528 -17 697 -17 q 214 69 315 -17 q 113 304 113 154 l 113 833 l 349 833 m 115 833 l 115 763 l 113 763 q 94 805 113 788 q 51 822 76 822 q 42 822 51 822 q 32 822 32 822 l 32 833 l 115 833 m 431 833 l 431 822 q 420 822 431 822 q 410 822 410 822 q 367 805 385 822 q 349 763 349 788 l 346 763 l 346 833 l 431 833 m 781 833 l 781 763 l 778 763 q 759 805 776 788 q 717 822 742 822 q 707 822 717 822 q 697 822 697 822 l 697 833 l 781 833 m 960 833 l 960 822 q 950 822 960 822 q 940 822 940 822 q 897 805 915 822 q 879 763 879 788 l 876 763 l 876 833 l 960 833 z "},"ü":{"ha":981,"x_min":32,"x_max":960,"o":"m 349 833 l 349 310 q 406 114 349 185 q 563 43 463 43 q 720 110 664 43 q 778 294 776 176 l 778 833 l 879 833 l 879 307 q 788 69 879 156 q 528 -17 697 -17 q 214 69 315 -17 q 113 304 113 154 l 113 833 l 349 833 m 115 833 l 115 763 l 113 763 q 94 805 113 788 q 51 822 76 822 q 42 822 51 822 q 32 822 32 822 l 32 833 l 115 833 m 431 833 l 431 822 q 420 822 431 822 q 410 822 410 822 q 367 805 385 822 q 349 763 349 788 l 346 763 l 346 833 l 431 833 m 781 833 l 781 763 l 778 763 q 759 805 776 788 q 717 822 742 822 q 707 822 717 822 q 697 822 697 822 l 697 833 l 781 833 m 960 833 l 960 822 q 950 822 960 822 q 940 822 940 822 q 897 805 915 822 q 879 763 879 788 l 876 763 l 876 833 l 960 833 z "},"ù":{"ha":981,"x_min":32,"x_max":960,"o":"m 349 833 l 349 310 q 406 114 349 185 q 563 43 463 43 q 720 110 664 43 q 778 294 776 176 l 778 833 l 879 833 l 879 307 q 788 69 879 156 q 528 -17 697 -17 q 214 69 315 -17 q 113 304 113 154 l 113 833 l 349 833 m 115 833 l 115 763 l 113 763 q 94 805 113 788 q 51 822 76 822 q 42 822 51 822 q 32 822 32 822 l 32 833 l 115 833 m 431 833 l 431 822 q 420 822 431 822 q 410 822 410 822 q 367 805 385 822 q 349 763 349 788 l 346 763 l 346 833 l 431 833 m 781 833 l 781 763 l 778 763 q 759 805 776 788 q 717 822 742 822 q 707 822 717 822 q 697 822 697 822 l 697 833 l 781 833 m 960 833 l 960 822 q 950 822 960 822 q 940 822 940 822 q 897 805 915 822 q 879 763 879 788 l 876 763 l 876 833 l 960 833 z "},"ű":{"ha":981,"x_min":32,"x_max":960,"o":"m 349 833 l 349 310 q 406 114 349 185 q 563 43 463 43 q 720 110 664 43 q 778 294 776 176 l 778 833 l 879 833 l 879 307 q 788 69 879 156 q 528 -17 697 -17 q 214 69 315 -17 q 113 304 113 154 l 113 833 l 349 833 m 115 833 l 115 763 l 113 763 q 94 805 113 788 q 51 822 76 822 q 42 822 51 822 q 32 822 32 822 l 32 833 l 115 833 m 431 833 l 431 822 q 420 822 431 822 q 410 822 410 822 q 367 805 385 822 q 349 763 349 788 l 346 763 l 346 833 l 431 833 m 781 833 l 781 763 l 778 763 q 759 805 776 788 q 717 822 742 822 q 707 822 717 822 q 697 822 697 822 l 697 833 l 781 833 m 960 833 l 960 822 q 950 822 960 822 q 940 822 940 822 q 897 805 915 822 q 879 763 879 788 l 876 763 l 876 833 l 960 833 z "},"ū":{"ha":981,"x_min":32,"x_max":960,"o":"m 349 833 l 349 310 q 406 114 349 185 q 563 43 463 43 q 720 110 664 43 q 778 294 776 176 l 778 833 l 879 833 l 879 307 q 788 69 879 156 q 528 -17 697 -17 q 214 69 315 -17 q 113 304 113 154 l 113 833 l 349 833 m 115 833 l 115 763 l 113 763 q 94 805 113 788 q 51 822 76 822 q 42 822 51 822 q 32 822 32 822 l 32 833 l 115 833 m 431 833 l 431 822 q 420 822 431 822 q 410 822 410 822 q 367 805 385 822 q 349 763 349 788 l 346 763 l 346 833 l 431 833 m 781 833 l 781 763 l 778 763 q 759 805 776 788 q 717 822 742 822 q 707 822 717 822 q 697 822 697 822 l 697 833 l 781 833 m 960 833 l 960 822 q 950 822 960 822 q 940 822 940 822 q 897 805 915 822 q 879 763 879 788 l 876 763 l 876 833 l 960 833 z "},"ų":{"ha":981,"x_min":32,"x_max":960,"o":"m 349 833 l 349 310 q 406 114 349 185 q 563 43 463 43 q 720 110 664 43 q 778 294 776 176 l 778 833 l 879 833 l 879 307 q 788 69 879 156 q 528 -17 697 -17 q 214 69 315 -17 q 113 304 113 154 l 113 833 l 349 833 m 115 833 l 115 763 l 113 763 q 94 805 113 788 q 51 822 76 822 q 42 822 51 822 q 32 822 32 822 l 32 833 l 115 833 m 431 833 l 431 822 q 420 822 431 822 q 410 822 410 822 q 367 805 385 822 q 349 763 349 788 l 346 763 l 346 833 l 431 833 m 781 833 l 781 763 l 778 763 q 759 805 776 788 q 717 822 742 822 q 707 822 717 822 q 697 822 697 822 l 697 833 l 781 833 m 960 833 l 960 822 q 950 822 960 822 q 940 822 940 822 q 897 805 915 822 q 879 763 879 788 l 876 763 l 876 833 l 960 833 z "},"ů":{"ha":981,"x_min":32,"x_max":960,"o":"m 349 833 l 349 310 q 406 114 349 185 q 563 43 463 43 q 720 110 664 43 q 778 294 776 176 l 778 833 l 879 833 l 879 307 q 788 69 879 156 q 528 -17 697 -17 q 214 69 315 -17 q 113 304 113 154 l 113 833 l 349 833 m 115 833 l 115 763 l 113 763 q 94 805 113 788 q 51 822 76 822 q 42 822 51 822 q 32 822 32 822 l 32 833 l 115 833 m 431 833 l 431 822 q 420 822 431 822 q 410 822 410 822 q 367 805 385 822 q 349 763 349 788 l 346 763 l 346 833 l 431 833 m 781 833 l 781 763 l 778 763 q 759 805 776 788 q 717 822 742 822 q 707 822 717 822 q 697 822 697 822 l 697 833 l 781 833 m 960 833 l 960 822 q 950 822 960 822 q 940 822 940 822 q 897 805 915 822 q 879 763 879 788 l 876 763 l 876 833 l 960 833 z "},"v":{"ha":872,"x_min":-49,"x_max":922,"o":"m 446 -17 l 29 826 l 306 826 l 544 281 l 446 -17 m 446 -17 l 442 165 l 738 829 l 843 829 l 525 161 q 510 127 521 150 q 488 77 500 104 q 468 24 476 50 q 457 -17 460 -1 l 446 -17 m 699 744 q 695 801 714 782 q 653 821 676 821 l 642 821 l 642 833 l 922 833 l 922 819 q 917 819 922 819 q 911 819 911 819 q 854 803 885 819 q 803 744 824 786 l 699 744 m 342 744 l 69 744 q 19 803 50 786 q -39 819 -11 819 q -44 819 -39 819 q -49 819 -49 819 l -49 833 l 400 833 l 400 821 l 389 821 q 347 801 365 821 q 342 744 328 782 z "},"w":{"ha":1194,"x_min":-37,"x_max":1232,"o":"m 47 825 l 297 825 l 472 392 l 374 -14 l 47 825 m 685 853 l 715 719 l 418 121 q 410 101 418 121 q 393 50 401 81 q 385 -14 385 19 l 374 -14 l 333 150 l 674 853 l 685 853 m 685 851 l 960 347 l 883 -14 l 579 547 l 685 851 m 1142 825 l 914 121 q 908 100 914 121 q 897 47 901 79 q 896 -14 892 15 l 883 -14 l 838 107 l 1049 825 l 1142 825 m 1025 746 q 1019 801 1035 783 q 979 819 1003 819 l 969 819 l 969 833 l 1232 833 l 1232 819 q 1227 819 1232 819 q 1222 819 1222 819 q 1160 802 1193 819 q 1115 744 1128 785 l 1025 746 m 331 746 l 78 744 q 33 802 63 785 q -28 819 3 819 q -33 819 -28 819 q -37 819 -37 819 l -37 833 l 386 833 l 386 819 l 374 819 q 334 801 351 819 q 331 746 317 783 z "},"ẃ":{"ha":1194,"x_min":-37,"x_max":1232,"o":"m 47 825 l 297 825 l 472 392 l 374 -14 l 47 825 m 685 853 l 715 719 l 418 121 q 410 101 418 121 q 393 50 401 81 q 385 -14 385 19 l 374 -14 l 333 150 l 674 853 l 685 853 m 685 851 l 960 347 l 883 -14 l 579 547 l 685 851 m 1142 825 l 914 121 q 908 100 914 121 q 897 47 901 79 q 896 -14 892 15 l 883 -14 l 838 107 l 1049 825 l 1142 825 m 1025 746 q 1019 801 1035 783 q 979 819 1003 819 l 969 819 l 969 833 l 1232 833 l 1232 819 q 1227 819 1232 819 q 1222 819 1222 819 q 1160 802 1193 819 q 1115 744 1128 785 l 1025 746 m 331 746 l 78 744 q 33 802 63 785 q -28 819 3 819 q -33 819 -28 819 q -37 819 -37 819 l -37 833 l 386 833 l 386 819 l 374 819 q 334 801 351 819 q 331 746 317 783 z "},"ŵ":{"ha":1194,"x_min":-37,"x_max":1232,"o":"m 47 825 l 297 825 l 472 392 l 374 -14 l 47 825 m 685 853 l 715 719 l 418 121 q 410 101 418 121 q 393 50 401 81 q 385 -14 385 19 l 374 -14 l 333 150 l 674 853 l 685 853 m 685 851 l 960 347 l 883 -14 l 579 547 l 685 851 m 1142 825 l 914 121 q 908 100 914 121 q 897 47 901 79 q 896 -14 892 15 l 883 -14 l 838 107 l 1049 825 l 1142 825 m 1025 746 q 1019 801 1035 783 q 979 819 1003 819 l 969 819 l 969 833 l 1232 833 l 1232 819 q 1227 819 1232 819 q 1222 819 1222 819 q 1160 802 1193 819 q 1115 744 1128 785 l 1025 746 m 331 746 l 78 744 q 33 802 63 785 q -28 819 3 819 q -33 819 -28 819 q -37 819 -37 819 l -37 833 l 386 833 l 386 819 l 374 819 q 334 801 351 819 q 331 746 317 783 z "},"ẅ":{"ha":1194,"x_min":-37,"x_max":1232,"o":"m 47 825 l 297 825 l 472 392 l 374 -14 l 47 825 m 685 853 l 715 719 l 418 121 q 410 101 418 121 q 393 50 401 81 q 385 -14 385 19 l 374 -14 l 333 150 l 674 853 l 685 853 m 685 851 l 960 347 l 883 -14 l 579 547 l 685 851 m 1142 825 l 914 121 q 908 100 914 121 q 897 47 901 79 q 896 -14 892 15 l 883 -14 l 838 107 l 1049 825 l 1142 825 m 1025 746 q 1019 801 1035 783 q 979 819 1003 819 l 969 819 l 969 833 l 1232 833 l 1232 819 q 1227 819 1232 819 q 1222 819 1222 819 q 1160 802 1193 819 q 1115 744 1128 785 l 1025 746 m 331 746 l 78 744 q 33 802 63 785 q -28 819 3 819 q -33 819 -28 819 q -37 819 -37 819 l -37 833 l 386 833 l 386 819 l 374 819 q 334 801 351 819 q 331 746 317 783 z "},"ẁ":{"ha":1194,"x_min":-37,"x_max":1232,"o":"m 47 825 l 297 825 l 472 392 l 374 -14 l 47 825 m 685 853 l 715 719 l 418 121 q 410 101 418 121 q 393 50 401 81 q 385 -14 385 19 l 374 -14 l 333 150 l 674 853 l 685 853 m 685 851 l 960 347 l 883 -14 l 579 547 l 685 851 m 1142 825 l 914 121 q 908 100 914 121 q 897 47 901 79 q 896 -14 892 15 l 883 -14 l 838 107 l 1049 825 l 1142 825 m 1025 746 q 1019 801 1035 783 q 979 819 1003 819 l 969 819 l 969 833 l 1232 833 l 1232 819 q 1227 819 1232 819 q 1222 819 1222 819 q 1160 802 1193 819 q 1115 744 1128 785 l 1025 746 m 331 746 l 78 744 q 33 802 63 785 q -28 819 3 819 q -33 819 -28 819 q -37 819 -37 819 l -37 833 l 386 833 l 386 819 l 374 819 q 334 801 351 819 q 331 746 317 783 z "},"x":{"ha":914,"x_min":-29,"x_max":944,"o":"m 336 833 l 860 1 l 590 1 l 69 833 l 336 833 m 222 85 q 221 37 204 60 q 263 14 238 14 q 269 14 263 14 q 276 14 276 14 l 276 0 l -29 0 l -29 14 l -12 14 q 54 34 24 14 q 106 81 85 54 l 222 85 m 364 422 l 433 376 l 161 1 l 50 6 l 364 422 m 538 85 l 810 81 q 860 34 828 54 q 929 14 892 14 l 944 14 l 944 0 l 482 0 l 482 14 q 489 14 482 14 q 496 14 496 14 q 537 37 521 14 q 538 85 553 60 m 444 836 l 444 822 q 437 822 444 822 q 429 822 429 822 q 390 799 406 822 q 388 751 374 775 l 118 756 q 69 802 101 782 q 0 822 36 822 l -17 822 l -17 836 l 444 836 m 831 833 l 538 400 l 489 476 l 719 833 l 831 833 m 914 836 l 914 822 l 897 822 q 828 802 860 822 q 778 756 796 782 l 667 751 q 667 799 682 775 q 626 822 651 822 q 619 822 626 822 q 613 822 613 822 l 613 836 l 914 836 z "},"y":{"ha":881,"x_min":-56,"x_max":939,"o":"m 293 832 l 557 382 l 331 369 l 31 832 l 293 832 m 561 383 l 561 0 l 324 0 l 324 381 l 561 383 m 746 832 l 853 832 l 546 356 l 475 368 l 746 832 m 697 747 q 697 797 713 774 q 654 819 681 819 q 647 819 654 819 q 639 819 639 819 l 639 833 l 939 833 l 939 819 l 922 819 q 852 799 883 819 q 801 751 821 779 l 697 747 m 343 749 l 83 753 q 32 800 64 781 q -39 819 0 819 l -56 819 l -56 833 l 399 833 l 399 819 q 392 819 399 819 q 385 819 385 819 q 343 797 357 819 q 343 749 329 774 m 328 86 l 328 0 l 232 0 l 232 14 q 240 14 232 14 q 249 14 247 14 q 301 35 279 14 q 324 86 324 56 l 328 86 m 557 86 l 561 86 q 585 35 563 56 q 638 14 607 14 q 645 14 638 14 q 653 14 653 14 l 653 0 l 557 0 l 557 86 z "},"ý":{"ha":881,"x_min":-56,"x_max":939,"o":"m 293 832 l 557 382 l 331 369 l 31 832 l 293 832 m 561 383 l 561 0 l 324 0 l 324 381 l 561 383 m 746 832 l 853 832 l 546 356 l 475 368 l 746 832 m 697 747 q 697 797 713 774 q 654 819 681 819 q 647 819 654 819 q 639 819 639 819 l 639 833 l 939 833 l 939 819 l 922 819 q 852 799 883 819 q 801 751 821 779 l 697 747 m 343 749 l 83 753 q 32 800 64 781 q -39 819 0 819 l -56 819 l -56 833 l 399 833 l 399 819 q 392 819 399 819 q 385 819 385 819 q 343 797 357 819 q 343 749 329 774 m 328 86 l 328 0 l 232 0 l 232 14 q 240 14 232 14 q 249 14 247 14 q 301 35 279 14 q 324 86 324 56 l 328 86 m 557 86 l 561 86 q 585 35 563 56 q 638 14 607 14 q 645 14 638 14 q 653 14 653 14 l 653 0 l 557 0 l 557 86 z "},"ŷ":{"ha":881,"x_min":-56,"x_max":939,"o":"m 293 832 l 557 382 l 331 369 l 31 832 l 293 832 m 561 383 l 561 0 l 324 0 l 324 381 l 561 383 m 746 832 l 853 832 l 546 356 l 475 368 l 746 832 m 697 747 q 697 797 713 774 q 654 819 681 819 q 647 819 654 819 q 639 819 639 819 l 639 833 l 939 833 l 939 819 l 922 819 q 852 799 883 819 q 801 751 821 779 l 697 747 m 343 749 l 83 753 q 32 800 64 781 q -39 819 0 819 l -56 819 l -56 833 l 399 833 l 399 819 q 392 819 399 819 q 385 819 385 819 q 343 797 357 819 q 343 749 329 774 m 328 86 l 328 0 l 232 0 l 232 14 q 240 14 232 14 q 249 14 247 14 q 301 35 279 14 q 324 86 324 56 l 328 86 m 557 86 l 561 86 q 585 35 563 56 q 638 14 607 14 q 645 14 638 14 q 653 14 653 14 l 653 0 l 557 0 l 557 86 z "},"ÿ":{"ha":881,"x_min":-56,"x_max":939,"o":"m 293 832 l 557 382 l 331 369 l 31 832 l 293 832 m 561 383 l 561 0 l 324 0 l 324 381 l 561 383 m 746 832 l 853 832 l 546 356 l 475 368 l 746 832 m 697 747 q 697 797 713 774 q 654 819 681 819 q 647 819 654 819 q 639 819 639 819 l 639 833 l 939 833 l 939 819 l 922 819 q 852 799 883 819 q 801 751 821 779 l 697 747 m 343 749 l 83 753 q 32 800 64 781 q -39 819 0 819 l -56 819 l -56 833 l 399 833 l 399 819 q 392 819 399 819 q 385 819 385 819 q 343 797 357 819 q 343 749 329 774 m 328 86 l 328 0 l 232 0 l 232 14 q 240 14 232 14 q 249 14 247 14 q 301 35 279 14 q 324 86 324 56 l 328 86 m 557 86 l 561 86 q 585 35 563 56 q 638 14 607 14 q 645 14 638 14 q 653 14 653 14 l 653 0 l 557 0 l 557 86 z "},"ỳ":{"ha":881,"x_min":-56,"x_max":939,"o":"m 293 832 l 557 382 l 331 369 l 31 832 l 293 832 m 561 383 l 561 0 l 324 0 l 324 381 l 561 383 m 746 832 l 853 832 l 546 356 l 475 368 l 746 832 m 697 747 q 697 797 713 774 q 654 819 681 819 q 647 819 654 819 q 639 819 639 819 l 639 833 l 939 833 l 939 819 l 922 819 q 852 799 883 819 q 801 751 821 779 l 697 747 m 343 749 l 83 753 q 32 800 64 781 q -39 819 0 819 l -56 819 l -56 833 l 399 833 l 399 819 q 392 819 399 819 q 385 819 385 819 q 343 797 357 819 q 343 749 329 774 m 328 86 l 328 0 l 232 0 l 232 14 q 240 14 232 14 q 249 14 247 14 q 301 35 279 14 q 324 86 324 56 l 328 86 m 557 86 l 561 86 q 585 35 563 56 q 638 14 607 14 q 645 14 638 14 q 653 14 653 14 l 653 0 l 557 0 l 557 86 z "},"z":{"ha":842,"x_min":42,"x_max":826,"o":"m 786 850 q 786 845 786 850 q 786 840 786 840 l 328 0 l 42 0 l 42 11 l 479 775 l 60 775 l 60 835 l 649 835 q 703 837 675 835 q 756 843 732 839 q 786 850 779 847 m 764 58 l 756 0 l 135 0 l 135 58 l 764 58 m 826 274 l 772 0 l 507 0 l 554 58 q 668 84 617 58 q 756 158 719 110 q 813 274 793 207 l 826 274 m 60 779 l 222 779 l 222 775 q 113 735 151 775 q 74 624 74 694 l 74 615 l 60 615 l 60 779 m 60 856 q 97 847 71 851 q 154 838 124 842 q 211 835 185 835 l 60 821 l 60 856 z "},"ź":{"ha":842,"x_min":42,"x_max":826,"o":"m 786 850 q 786 845 786 850 q 786 840 786 840 l 328 0 l 42 0 l 42 11 l 479 775 l 60 775 l 60 835 l 649 835 q 703 837 675 835 q 756 843 732 839 q 786 850 779 847 m 764 58 l 756 0 l 135 0 l 135 58 l 764 58 m 826 274 l 772 0 l 507 0 l 554 58 q 668 84 617 58 q 756 158 719 110 q 813 274 793 207 l 826 274 m 60 779 l 222 779 l 222 775 q 113 735 151 775 q 74 624 74 694 l 74 615 l 60 615 l 60 779 m 60 856 q 97 847 71 851 q 154 838 124 842 q 211 835 185 835 l 60 821 l 60 856 z "},"ž":{"ha":842,"x_min":42,"x_max":826,"o":"m 786 850 q 786 845 786 850 q 786 840 786 840 l 328 0 l 42 0 l 42 11 l 479 775 l 60 775 l 60 835 l 649 835 q 703 837 675 835 q 756 843 732 839 q 786 850 779 847 m 764 58 l 756 0 l 135 0 l 135 58 l 764 58 m 826 274 l 772 0 l 507 0 l 554 58 q 668 84 617 58 q 756 158 719 110 q 813 274 793 207 l 826 274 m 60 779 l 222 779 l 222 775 q 113 735 151 775 q 74 624 74 694 l 74 615 l 60 615 l 60 779 m 60 856 q 97 847 71 851 q 154 838 124 842 q 211 835 185 835 l 60 821 l 60 856 z "},"ż":{"ha":842,"x_min":42,"x_max":826,"o":"m 786 850 q 786 845 786 850 q 786 840 786 840 l 328 0 l 42 0 l 42 11 l 479 775 l 60 775 l 60 835 l 649 835 q 703 837 675 835 q 756 843 732 839 q 786 850 779 847 m 764 58 l 756 0 l 135 0 l 135 58 l 764 58 m 826 274 l 772 0 l 507 0 l 554 58 q 668 84 617 58 q 756 158 719 110 q 813 274 793 207 l 826 274 m 60 779 l 222 779 l 222 775 q 113 735 151 775 q 74 624 74 694 l 74 615 l 60 615 l 60 779 m 60 856 q 97 847 71 851 q 154 838 124 842 q 211 835 185 835 l 60 821 l 60 856 z "},"ﬁ":{"ha":1244,"x_min":39,"x_max":1206,"o":"m 365 833 l 365 0 l 129 0 l 129 833 l 365 833 m 633 442 l 633 382 l 363 382 l 363 442 l 633 442 m 696 833 l 696 774 l 363 774 l 363 833 l 696 833 m 633 385 l 633 249 l 619 249 l 619 256 q 586 345 619 310 q 497 382 553 381 l 497 385 l 633 385 m 633 574 l 633 439 l 497 439 l 497 442 q 586 479 553 443 q 619 568 619 515 l 619 574 l 633 574 m 696 778 l 696 611 l 682 611 l 682 621 q 644 732 682 692 q 535 774 606 772 l 535 778 l 696 778 m 696 854 l 696 821 l 554 833 q 608 837 579 833 q 660 845 636 840 q 696 854 685 850 m 132 86 l 135 0 l 39 0 l 39 14 q 46 14 39 14 q 54 14 53 14 q 106 35 85 14 q 129 86 128 56 l 132 86 m 132 746 l 129 746 q 106 799 128 778 q 54 819 85 819 q 46 819 53 819 q 39 819 39 819 l 39 833 l 135 833 l 132 746 m 363 86 l 365 86 q 388 35 367 56 q 440 14 408 14 q 447 14 440 14 q 456 14 454 14 l 454 0 l 360 0 l 363 86 m 1113 833 l 1113 0 l 878 0 l 878 833 l 1113 833 m 882 86 l 882 0 l 786 0 l 786 14 q 793 14 786 14 q 801 14 800 14 q 854 35 832 14 q 878 86 876 56 l 882 86 m 1110 86 l 1114 86 q 1136 35 1114 56 q 1190 14 1158 14 q 1197 14 1190 14 q 1206 14 1204 14 l 1206 0 l 1110 0 l 1110 86 m 1110 747 l 1110 833 l 1204 833 l 1204 819 q 1197 819 1204 819 q 1190 819 1190 819 q 1136 799 1158 819 q 1114 747 1114 779 l 1110 747 m 882 747 l 878 747 q 854 799 876 779 q 801 819 832 819 q 793 819 800 819 q 786 819 786 819 l 786 833 l 882 833 l 882 747 z "},"ﬂ":{"ha":1515,"x_min":39,"x_max":1515,"o":"m 365 833 l 365 0 l 129 0 l 129 833 l 365 833 m 633 442 l 633 382 l 363 382 l 363 442 l 633 442 m 696 833 l 696 774 l 363 774 l 363 833 l 696 833 m 633 385 l 633 249 l 619 249 l 619 256 q 586 345 619 310 q 497 382 553 381 l 497 385 l 633 385 m 633 574 l 633 439 l 497 439 l 497 442 q 586 479 553 443 q 619 568 619 515 l 619 574 l 633 574 m 696 778 l 696 611 l 682 611 l 682 621 q 644 732 682 692 q 535 774 606 772 l 535 778 l 696 778 m 696 854 l 696 821 l 554 833 q 608 837 579 833 q 660 845 636 840 q 696 854 685 850 m 132 86 l 135 0 l 39 0 l 39 14 q 46 14 39 14 q 54 14 53 14 q 106 35 85 14 q 129 86 128 56 l 132 86 m 132 746 l 129 746 q 106 799 128 778 q 54 819 85 819 q 46 819 53 819 q 39 819 39 819 l 39 833 l 135 833 l 132 746 m 363 86 l 365 86 q 388 35 367 56 q 440 14 408 14 q 447 14 440 14 q 456 14 454 14 l 454 0 l 360 0 l 363 86 m 1113 833 l 1113 0 l 875 0 l 875 833 l 1113 833 m 1419 60 l 1465 0 l 1110 0 l 1110 60 l 1419 60 m 1515 274 l 1468 0 l 1219 0 l 1261 60 q 1366 85 1318 60 q 1449 159 1414 111 q 1501 274 1485 207 l 1515 274 m 879 86 l 882 0 l 786 0 l 786 14 q 793 14 786 14 q 801 14 800 14 q 853 35 832 14 q 875 86 875 56 l 879 86 m 1108 747 l 1108 833 l 1203 833 l 1203 819 q 1194 819 1201 819 q 1188 819 1188 819 q 1134 799 1156 819 q 1113 747 1113 779 l 1108 747 m 879 747 l 875 747 q 853 799 875 779 q 801 819 832 819 q 793 819 800 819 q 786 819 786 819 l 786 833 l 879 833 l 879 747 z "},"Δ":{"ha":906,"x_min":7,"x_max":899,"o":"m 460 992 l 899 14 l 899 0 l 7 0 l 7 14 l 446 992 l 460 992 m 407 761 l 101 64 l 708 64 l 407 761 z "},"Ω":{"ha":1201,"x_min":36,"x_max":1165,"o":"m 1082 0 l 665 0 l 643 213 q 744 267 697 235 q 827 344 792 299 q 883 449 863 389 q 903 585 903 508 q 881 719 903 657 q 817 829 858 782 q 722 902 776 876 q 604 928 668 928 q 483 901 539 928 q 386 828 428 875 q 322 718 344 782 q 299 579 299 654 q 333 409 299 482 q 424 288 367 336 q 556 213 482 240 l 533 0 l 117 0 l 117 210 l 458 210 q 295 247 371 217 q 164 326 219 276 q 77 442 108 376 q 46 585 46 507 q 86 748 44 674 q 204 876 128 822 q 382 961 281 931 q 603 992 483 992 q 823 961 722 992 q 998 875 924 931 q 1114 745 1072 819 q 1156 585 1156 671 q 1124 441 1156 507 q 1036 325 1093 375 q 903 245 979 275 q 740 210 828 215 l 1082 210 l 1082 0 m 50 328 q 97 258 75 283 q 145 221 118 232 q 213 210 172 210 l 228 210 l 228 0 l 103 0 l 36 328 l 50 328 m 1165 328 l 1099 0 l 974 0 l 974 210 l 988 210 q 1056 221 1029 210 q 1105 258 1083 232 q 1151 328 1126 283 l 1165 328 z "},"μ":{"ha":1193,"x_min":-19,"x_max":1213,"o":"m 982 850 l 993 692 l 603 113 q 590 90 603 113 q 565 36 576 68 q 553 -28 553 4 l 540 -28 l 475 93 l 982 850 m 115 88 l 115 0 l -19 0 l -19 14 q -9 14 -18 14 q 0 14 0 14 q 59 33 33 14 q 89 88 85 53 l 115 88 m 182 68 q 191 34 181 54 q 229 14 201 14 l 249 14 l 249 0 l 164 0 l 175 68 l 182 68 m 197 850 l 208 850 l 263 700 l 174 0 l 78 0 l 197 850 m 208 850 l 631 271 l 540 -28 l 174 481 l 208 850 m 994 850 l 1117 0 l 869 0 l 807 444 l 982 850 l 994 850 m 1078 88 l 1104 88 q 1136 33 1111 53 q 1192 14 1161 14 q 1202 14 1192 14 q 1213 14 1213 14 l 1213 0 l 1078 0 l 1078 88 m 860 68 l 868 68 l 879 0 l 793 0 l 793 14 l 814 14 q 852 34 843 14 q 860 68 861 54 z "},"π":{"ha":1065,"x_min":43,"x_max":1024,"o":"m 379 833 l 379 0 l 135 0 l 135 833 l 379 833 m 139 89 l 139 0 l 43 0 l 43 14 q 51 14 43 14 q 58 14 58 14 q 113 36 90 14 q 135 89 135 58 l 139 89 m 376 89 l 379 89 q 403 36 381 58 q 457 14 425 14 q 464 14 457 14 q 471 14 471 14 l 472 0 l 376 0 l 376 89 m 139 744 l 135 744 q 113 798 135 776 q 58 819 90 819 q 51 819 58 819 q 43 819 43 819 l 43 833 l 139 833 l 139 744 m 932 833 l 932 0 l 688 0 l 688 833 l 932 833 m 690 89 l 690 0 l 594 0 l 596 14 q 603 14 596 14 q 610 14 610 14 q 664 36 642 14 q 688 89 686 58 l 690 89 m 928 89 l 932 89 q 955 36 932 58 q 1008 14 978 14 q 1016 14 1008 14 q 1024 14 1024 14 l 1024 0 l 928 0 l 928 89 m 928 744 l 928 833 l 1024 833 l 1024 819 q 1016 819 1024 819 q 1008 819 1008 819 q 955 798 978 819 q 932 744 932 776 l 928 744 m 719 769 l 690 769 l 690 694 l 688 694 q 665 747 686 725 q 613 769 643 769 l 454 769 q 402 747 424 769 q 379 694 381 725 l 376 694 l 376 769 l 343 769 l 343 833 l 719 833 l 719 769 z "},"⁄":{"ha":818,"x_min":28,"x_max":750,"o":"m 28 13 l 88 -26 l 750 961 l 692 1001 l 28 13 z "},"½":{"ha":1168,"x_min":39,"x_max":1113,"o":"m 340 428 l 340 436 l 322 436 q 292 448 306 436 q 279 478 279 460 l 279 993 l 272 993 q 217 972 249 981 q 149 956 185 963 q 84 947 114 950 q 39 942 54 943 l 39 935 l 50 935 q 90 923 75 935 q 104 878 104 911 l 104 479 q 92 449 104 461 q 61 436 79 436 l 44 436 l 44 428 l 340 428 m 135 13 l 194 -26 l 857 961 l 799 1001 l 135 13 m 690 358 l 632 507 q 726 554 668 539 q 844 569 785 569 q 962 551 910 569 q 1045 497 1014 532 q 1076 411 1076 461 q 1053 324 1076 365 q 994 250 1029 283 q 922 192 960 217 q 856 153 885 167 l 996 153 q 1058 173 1031 153 q 1106 236 1085 193 l 1113 236 l 1058 0 l 638 0 l 638 7 q 725 117 681 63 q 807 225 769 172 q 868 329 844 278 q 892 431 892 381 q 865 503 892 476 q 793 526 838 531 q 723 480 747 522 q 699 358 699 438 l 690 358 z "},"¼":{"ha":1058,"x_min":44,"x_max":1019,"o":"m 346 428 l 346 436 l 328 436 q 298 448 311 436 q 285 478 285 460 l 285 993 l 278 993 q 222 972 254 981 q 155 956 190 963 q 90 947 119 950 q 44 942 60 943 l 44 935 l 56 935 q 95 923 81 935 q 110 878 110 911 l 110 479 q 97 449 110 461 q 67 436 85 436 l 50 436 l 50 428 l 346 428 m 165 13 l 225 -26 l 888 961 l 829 1001 l 165 13 m 744 390 l 910 567 l 918 567 l 918 1 l 744 1 l 744 390 m 910 567 l 917 501 l 625 229 l 954 229 q 990 238 979 229 q 1010 263 1001 246 l 1019 263 l 992 139 l 479 139 l 479 147 l 910 567 m 918 56 q 932 22 918 36 q 965 8 946 8 l 975 8 l 975 0 l 689 0 l 689 8 l 697 8 q 731 22 718 8 q 744 56 744 35 l 918 56 z "},"¾":{"ha":1125,"x_min":33,"x_max":1099,"o":"m 232 992 q 380 956 326 990 q 433 858 433 922 q 410 790 433 815 q 354 755 386 764 q 290 754 322 746 q 361 742 322 756 q 428 697 400 729 q 457 606 457 665 q 417 486 457 533 q 313 418 376 439 q 177 403 250 397 q 39 439 104 408 l 40 446 q 158 463 104 444 q 246 521 213 482 q 279 617 279 560 q 257 691 279 664 q 202 731 235 718 q 136 743 169 743 l 138 750 q 231 787 193 749 q 263 879 268 825 q 229 938 258 922 q 169 950 200 953 q 106 910 125 946 q 89 797 88 875 l 81 797 l 33 939 q 116 978 64 964 q 232 992 168 992 m 243 13 l 303 -26 l 965 961 l 907 1001 l 243 13 m 825 390 l 990 567 l 999 567 l 999 1 l 825 1 l 825 390 m 990 567 l 997 501 l 706 229 l 1035 229 q 1071 238 1060 229 q 1090 263 1082 246 l 1100 263 l 1072 139 l 560 139 l 560 147 l 990 567 m 999 56 q 1013 22 999 36 q 1046 8 1026 8 l 1056 8 l 1056 0 l 769 0 l 769 8 l 778 8 q 812 22 799 8 q 825 56 825 35 l 999 56 z "},"¹":{"ha":383,"x_min":44,"x_max":346,"o":"m 346 428 l 346 436 l 328 436 q 298 448 311 436 q 285 478 285 460 l 285 993 l 278 993 q 222 972 254 981 q 155 956 190 963 q 90 947 119 950 q 44 942 60 943 l 44 935 l 56 935 q 95 923 81 935 q 110 878 110 911 l 110 479 q 97 449 110 461 q 67 436 85 436 l 50 436 l 50 428 l 346 428 z "},"²":{"ha":569,"x_min":44,"x_max":525,"o":"m 103 786 l 44 935 q 139 982 81 967 q 257 997 197 997 q 374 978 322 997 q 458 924 426 960 q 489 839 489 889 q 465 752 489 793 q 407 678 442 711 q 335 619 372 644 q 268 581 297 594 l 408 581 q 470 601 443 581 q 518 664 497 621 l 525 664 l 471 428 l 50 428 l 50 435 q 138 545 93 490 q 219 653 182 600 q 281 757 257 706 q 304 858 304 808 q 277 931 304 904 q 206 954 250 958 q 135 908 160 950 q 111 786 111 865 l 103 786 z "},"³":{"ha":501,"x_min":33,"x_max":457,"o":"m 232 992 q 380 956 326 990 q 433 858 433 922 q 410 790 433 815 q 354 755 386 764 q 290 754 322 746 q 361 742 322 756 q 428 697 400 729 q 457 606 457 665 q 417 486 457 533 q 313 418 376 439 q 177 403 250 397 q 39 439 104 408 l 40 446 q 158 463 104 444 q 246 521 213 482 q 279 617 279 560 q 257 691 279 664 q 202 731 235 718 q 136 743 169 743 l 138 750 q 231 787 193 749 q 263 879 268 825 q 229 938 258 922 q 169 950 200 953 q 106 910 125 946 q 89 797 88 875 l 81 797 l 33 939 q 116 978 64 964 q 232 992 168 992 z "},"ª":{"ha":536,"x_min":-6,"x_max":542,"o":"m 261 988 l 499 528 l 331 528 l 201 810 l 261 988 m 118 571 q 119 540 108 551 q 144 529 131 529 l 151 529 l 151 524 l -6 524 l -6 529 q -3 529 -6 529 q 0 529 0 529 q 33 539 17 529 q 60 571 50 549 l 118 571 m 261 988 l 263 875 l 97 525 l 39 525 l 217 888 q 230 915 221 896 q 247 956 239 935 q 256 988 254 976 l 261 988 m 317 658 l 317 622 l 125 622 l 125 658 l 317 658 m 311 571 l 476 571 q 503 539 488 549 q 536 529 519 529 q 539 529 536 529 q 542 529 542 529 l 542 524 l 279 524 l 279 529 l 286 529 q 310 540 299 529 q 311 571 321 551 z "},"º":{"ha":558,"x_min":31,"x_max":529,"o":"m 279 988 q 414 959 358 988 q 499 879 469 931 q 529 754 529 828 q 499 629 529 682 q 414 549 469 576 q 279 522 358 522 q 145 549 201 522 q 60 629 89 576 q 31 754 31 682 q 60 879 31 828 q 145 959 89 931 q 279 988 201 988 m 279 557 q 354 609 329 557 q 379 754 379 661 q 354 900 379 847 q 279 953 329 953 q 224 928 246 953 q 190 860 201 904 q 179 754 179 817 q 190 648 179 692 q 224 581 201 604 q 279 557 246 557 z "},"*":{"ha":540,"x_min":50,"x_max":492,"o":"m 407 658 l 340 633 l 285 739 l 271 833 l 281 840 l 365 799 l 450 714 l 407 658 m 136 657 l 93 714 l 176 799 l 263 840 l 271 833 l 258 739 l 203 633 l 136 657 m 53 914 l 92 972 l 199 919 l 265 851 l 263 840 l 168 825 l 50 844 l 53 914 m 271 1074 l 339 1054 l 322 936 l 278 851 l 265 851 l 222 936 l 203 1054 l 271 1074 m 490 915 l 492 844 l 374 825 l 281 840 l 278 851 l 343 919 l 450 974 l 490 915 m 276 853 l 281 850 l 282 842 l 281 839 l 272 833 q 269 833 271 833 q 268 833 268 833 l 261 839 l 261 843 l 264 851 l 268 853 l 276 853 z "},"\\":{"ha":601,"x_min":13,"x_max":589,"o":"m 88 1001 l 589 17 l 514 -19 l 13 968 l 88 1001 z "},"•":{"ha":525,"x_min":71,"x_max":451,"o":"m 289 279 q 238 279 263 269 q 171 304 196 293 q 131 331 146 315 q 106 370 117 346 q 81 436 94 394 q 81 489 71 461 q 106 555 94 531 q 131 594 117 579 q 171 622 146 610 q 238 646 196 633 q 289 646 263 656 q 356 622 331 633 q 395 594 381 610 q 422 555 410 579 q 447 489 433 531 q 451 462 451 474 q 446 432 451 450 q 421 368 432 392 q 395 329 410 344 q 356 303 381 314 q 289 279 331 293 z "},":":{"ha":328,"x_min":51,"x_max":276,"o":"m 164 515 q 85 549 118 515 q 51 628 51 582 q 85 708 51 675 q 164 740 118 740 q 244 708 211 740 q 276 628 276 675 q 244 549 276 582 q 164 515 211 515 m 164 -17 q 85 17 118 -17 q 51 96 51 50 q 85 176 51 143 q 164 208 118 208 q 244 176 211 208 q 276 96 276 143 q 244 17 276 50 q 164 -17 211 -17 z "},",":{"ha":340,"x_min":51,"x_max":296,"o":"m 90 185 q 153 208 118 207 q 222 190 189 208 q 269 136 254 172 q 288 22 296 79 q 249 -83 281 -36 q 168 -153 217 -129 q 63 -168 119 -178 l 58 -151 q 104 -115 86 -140 q 121 -56 122 -89 q 88 14 119 -22 q 58 72 65 40 q 60 135 51 104 q 90 185 68 165 z "},"…":{"ha":981,"x_min":51,"x_max":931,"o":"m 492 -17 q 413 17 446 -17 q 379 96 379 50 q 413 176 379 143 q 492 208 446 208 q 572 176 539 208 q 604 96 604 143 q 572 17 604 50 q 492 -17 539 -17 m 817 -17 q 738 17 771 -17 q 704 96 704 50 q 738 176 704 143 q 817 208 771 208 q 897 176 864 208 q 929 96 929 143 q 897 17 929 50 q 817 -17 864 -17 m 164 -17 q 85 17 118 -17 q 51 96 51 50 q 85 176 51 143 q 164 208 118 208 q 244 176 211 208 q 276 96 276 143 q 244 17 276 50 q 164 -17 211 -17 z "},"!":{"ha":392,"x_min":71,"x_max":321,"o":"m 193 -17 q 114 17 147 -17 q 81 96 81 50 q 114 176 81 143 q 193 208 147 208 q 273 176 240 208 q 306 96 306 143 q 273 17 306 50 q 193 -17 240 -17 m 236 303 l 154 303 l 99 515 l 71 975 l 321 975 l 292 515 l 236 303 z "},"¡":{"ha":392,"x_min":71,"x_max":321,"o":"m 199 992 q 278 958 246 992 q 311 879 311 925 q 278 799 311 832 q 199 767 246 767 q 119 799 153 767 q 86 879 86 832 q 119 958 86 925 q 199 992 153 992 m 157 671 l 238 671 l 293 460 l 321 0 l 71 0 l 100 460 l 157 671 z "},"#":{"ha":815,"x_min":28,"x_max":750,"o":"m 294 972 l 372 972 l 201 0 l 124 0 l 294 972 m 572 972 l 650 972 l 479 0 l 401 0 l 572 972 m 750 690 l 750 615 l 89 615 l 89 690 l 750 690 m 689 376 l 689 301 l 28 301 l 28 376 l 689 376 z "},".":{"ha":328,"x_min":51,"x_max":276,"o":"m 164 -17 q 85 17 118 -17 q 51 96 51 50 q 85 176 51 143 q 164 208 118 208 q 244 176 211 208 q 276 96 276 143 q 244 17 276 50 q 164 -17 211 -17 z "},"·":{"ha":325,"x_min":50,"x_max":275,"o":"m 163 379 q 83 413 117 379 q 50 492 50 446 q 83 572 50 539 q 163 604 117 604 q 242 572 210 604 q 275 492 275 539 q 242 413 275 446 q 163 379 210 379 z "},"?":{"ha":663,"x_min":6,"x_max":615,"o":"m 6 868 q 113 958 38 924 q 293 992 188 992 q 532 928 449 992 q 615 747 615 864 q 605 677 615 708 q 576 618 594 646 q 531 564 557 590 q 472 509 504 538 q 403 449 439 481 q 360 406 381 428 q 335 358 340 385 q 349 294 329 331 l 338 286 q 245 347 282 306 q 214 451 208 389 q 232 512 217 486 q 268 560 247 538 q 309 608 289 583 q 343 669 329 633 q 356 758 357 706 q 320 883 354 839 q 221 928 286 928 q 115 875 153 928 q 78 714 78 822 l 64 714 l 6 868 m 301 -17 q 222 17 256 -17 q 188 96 188 50 q 222 176 188 143 q 301 208 256 208 q 380 176 347 208 q 413 96 413 143 q 380 17 413 50 q 301 -17 347 -17 z "},"¿":{"ha":701,"x_min":47,"x_max":657,"o":"m 657 104 q 551 15 626 49 q 371 -19 476 -19 q 131 45 214 -19 q 47 225 47 110 q 58 295 47 264 q 88 354 68 326 q 133 408 107 382 q 192 463 160 435 q 260 524 224 492 q 304 566 285 544 q 328 615 324 588 q 314 678 333 642 l 325 686 q 418 625 382 667 q 449 521 454 583 q 431 460 446 486 q 394 412 415 435 q 353 364 374 389 q 320 303 333 339 q 307 214 307 267 q 344 89 308 133 q 442 44 379 44 q 548 97 510 44 q 585 258 586 150 l 599 258 l 657 104 m 361 989 q 442 956 410 989 q 475 876 475 924 q 442 797 475 829 q 361 764 410 764 q 283 797 315 764 q 250 876 250 829 q 283 956 250 924 q 361 989 315 989 z "},"\"":{"ha":525,"x_min":47,"x_max":481,"o":"m 83 972 l 250 992 q 244 922 251 965 q 216 834 236 879 q 160 751 196 789 q 68 694 124 713 l 47 701 q 79 804 69 763 q 90 884 89 846 q 83 972 90 922 m 314 972 l 479 992 q 473 922 481 965 q 445 834 465 879 q 390 751 425 789 q 299 694 354 713 l 276 701 q 308 804 299 763 q 319 884 318 846 q 314 972 319 922 z "},"'":{"ha":292,"x_min":43,"x_max":247,"o":"m 79 972 l 246 992 q 240 922 247 965 q 212 834 232 879 q 156 751 192 789 q 64 694 119 713 l 43 701 q 75 804 65 763 q 85 884 85 846 q 79 972 86 922 z "},";":{"ha":340,"x_min":51,"x_max":296,"o":"m 90 185 q 153 208 118 207 q 222 190 189 208 q 269 136 254 172 q 288 22 296 79 q 249 -83 281 -36 q 168 -153 217 -129 q 63 -168 119 -178 l 58 -151 q 104 -115 86 -140 q 121 -56 122 -89 q 88 14 119 -22 q 58 72 65 40 q 60 135 51 104 q 90 185 68 165 m 164 554 q 85 588 118 554 q 51 667 51 621 q 85 747 51 714 q 164 779 118 779 q 244 747 211 779 q 276 667 276 714 q 244 588 276 621 q 164 554 211 554 z "},"/":{"ha":601,"x_min":13,"x_max":589,"o":"m 514 1001 l 589 968 l 88 -19 l 13 17 l 514 1001 z "},"_":{"ha":694,"x_min":0,"x_max":694,"o":"m 0 -83 l 694 -83 l 694 -147 l 0 -147 l 0 -83 z "},"{":{"ha":546,"x_min":118,"x_max":514,"o":"m 181 472 q 179 531 188 490 q 160 622 171 571 q 150 722 150 674 q 188 869 150 801 q 304 977 225 936 q 511 1018 383 1018 l 514 1007 q 426 953 450 990 q 400 860 403 915 q 396 739 397 806 q 385 591 396 646 q 352 508 374 536 q 299 465 331 479 q 229 439 268 451 q 300 411 269 428 q 352 364 331 394 q 385 283 374 333 q 396 154 396 232 q 394 57 397 103 q 397 -26 392 11 q 422 -89 401 -62 q 492 -128 443 -115 l 489 -139 q 288 -97 361 -139 q 182 10 214 -56 q 150 153 150 76 q 160 256 150 206 q 177 347 169 307 q 176 406 185 386 q 153 428 171 422 q 118 436 135 435 l 118 450 q 155 454 138 451 q 181 472 172 457 z "},"}":{"ha":546,"x_min":33,"x_max":429,"o":"m 36 1018 q 244 977 164 1018 q 360 869 324 936 q 397 722 397 801 q 387 622 397 674 q 368 531 376 571 q 367 472 360 490 q 392 454 374 457 q 429 450 411 451 l 429 436 q 395 428 413 435 q 371 406 378 422 q 371 347 364 386 q 388 256 378 307 q 397 153 397 206 q 366 10 397 76 q 260 -97 335 -56 q 58 -139 186 -139 l 56 -128 q 126 -89 104 -115 q 152 -26 147 -62 q 153 57 157 11 q 150 154 150 103 q 162 283 150 232 q 195 364 174 333 q 249 411 217 394 q 318 439 281 428 q 249 465 281 451 q 195 508 217 479 q 162 591 174 536 q 150 739 150 646 q 149 860 151 806 q 122 953 146 915 q 33 1007 97 990 l 36 1018 z "},"[":{"ha":618,"x_min":167,"x_max":563,"o":"m 167 1003 l 558 1003 l 558 989 l 414 928 l 414 -50 l 563 -111 l 563 -125 l 167 -125 l 167 1003 z "},"]":{"ha":618,"x_min":56,"x_max":451,"o":"m 451 1003 l 451 -125 l 56 -125 l 56 -111 l 204 -50 l 204 928 l 60 989 l 60 1003 l 451 1003 z "},"(":{"ha":626,"x_min":125,"x_max":586,"o":"m 586 1006 q 466 899 515 972 q 391 717 417 825 q 367 467 365 608 q 396 196 369 313 q 470 -1 422 79 q 583 -126 518 -81 l 575 -139 q 376 -49 460 -108 q 236 92 292 11 q 153 269 181 174 q 125 464 125 364 q 152 665 125 571 q 235 832 179 758 q 376 953 292 906 q 578 1017 461 1001 l 586 1006 z "},")":{"ha":626,"x_min":42,"x_max":503,"o":"m 42 1006 l 50 1017 q 250 953 165 1001 q 391 832 335 906 q 475 665 447 758 q 503 464 503 571 q 474 269 501 364 q 392 92 447 174 q 251 -49 336 11 q 53 -139 167 -108 l 44 -126 q 157 -1 110 -81 q 231 196 204 79 q 260 467 257 313 q 237 717 263 608 q 162 899 211 825 q 42 1006 113 972 z "},"—":{"ha":1111,"x_min":0,"x_max":1111,"o":"m 0 443 l 1111 443 l 1111 365 l 0 365 l 0 443 z "},"–":{"ha":694,"x_min":0,"x_max":694,"o":"m 0 443 l 694 443 l 694 365 l 0 365 l 0 443 z "},"-":{"ha":528,"x_min":43,"x_max":485,"o":"m 56 456 l 472 456 l 485 406 l 472 354 l 56 354 l 43 406 l 56 456 z "},"­":{"ha":528,"x_min":43,"x_max":485,"o":"m 56 456 l 472 456 l 485 406 l 472 354 l 56 354 l 43 406 l 56 456 z "},"«":{"ha":728,"x_min":56,"x_max":646,"o":"m 56 406 l 354 122 l 367 132 l 246 406 l 365 674 l 354 681 l 56 406 m 335 406 l 633 122 l 646 132 l 525 406 l 644 674 l 633 681 l 335 406 z "},"»":{"ha":728,"x_min":83,"x_max":674,"o":"m 674 406 l 375 681 l 364 674 l 482 406 l 363 132 l 375 122 l 674 406 m 394 406 l 96 681 l 85 674 l 204 406 l 83 132 l 96 122 l 394 406 z "},"‹":{"ha":449,"x_min":56,"x_max":367,"o":"m 56 406 l 354 122 l 367 132 l 246 406 l 365 674 l 354 681 l 56 406 z "},"›":{"ha":449,"x_min":83,"x_max":394,"o":"m 394 406 l 96 681 l 85 674 l 204 406 l 83 132 l 96 122 l 394 406 z "},"„":{"ha":658,"x_min":51,"x_max":614,"o":"m 389 194 q 458 221 419 219 q 533 202 497 222 q 585 142 568 182 q 606 16 614 79 q 563 -98 597 -47 q 474 -175 528 -149 q 357 -192 421 -201 l 353 -172 q 403 -132 383 -160 q 422 -67 424 -104 q 385 10 419 -31 q 353 72 361 36 q 355 141 346 107 q 389 194 364 175 m 94 194 q 164 221 125 219 q 238 202 203 222 q 290 142 274 182 q 311 16 319 79 q 268 -98 303 -47 q 180 -175 233 -149 q 63 -192 126 -201 l 58 -172 q 109 -132 89 -160 q 127 -67 129 -104 q 90 10 125 -31 q 59 72 67 36 q 60 141 51 107 q 94 194 69 175 z "},"“":{"ha":669,"x_min":44,"x_max":618,"o":"m 575 768 q 508 744 547 744 q 433 763 468 743 q 381 821 399 782 q 360 947 351 883 q 403 1060 368 1010 q 492 1138 438 1111 q 607 1154 546 1164 l 613 1136 q 561 1096 581 1124 q 544 1031 542 1068 q 581 954 546 993 q 611 891 604 926 q 610 823 618 856 q 575 768 601 790 m 267 768 q 199 744 239 744 q 125 763 160 743 q 72 821 90 782 q 51 947 43 883 q 94 1060 60 1010 q 183 1138 129 1111 q 299 1154 238 1164 l 304 1136 q 253 1096 272 1124 q 235 1031 233 1068 q 272 954 238 993 q 303 891 296 926 q 301 823 310 856 q 267 768 293 790 z "},"”":{"ha":658,"x_min":51,"x_max":614,"o":"m 389 1135 q 458 1161 419 1160 q 533 1142 497 1163 q 585 1082 568 1122 q 606 956 614 1019 q 563 842 597 893 q 474 765 528 792 q 357 749 421 739 l 353 768 q 403 808 383 781 q 422 873 424 836 q 385 950 419 910 q 353 1012 361 976 q 355 1081 346 1047 q 389 1135 364 1115 m 94 1135 q 164 1161 125 1160 q 238 1142 203 1163 q 290 1082 274 1122 q 311 956 319 1019 q 268 842 303 893 q 180 765 233 792 q 63 749 126 739 l 58 768 q 109 808 89 781 q 127 873 129 836 q 90 950 125 910 q 59 1012 67 976 q 60 1081 51 1047 q 94 1135 69 1115 z "},"‘":{"ha":363,"x_min":44,"x_max":311,"o":"m 268 768 q 201 744 240 744 q 126 763 161 743 q 74 821 92 782 q 53 947 44 883 q 96 1060 61 1010 q 185 1138 131 1111 q 300 1154 239 1164 l 306 1136 q 254 1096 274 1124 q 237 1031 235 1068 q 274 954 239 993 q 304 891 297 926 q 303 823 311 856 q 268 768 294 790 z "},"’":{"ha":363,"x_min":51,"x_max":319,"o":"m 94 1135 q 164 1161 125 1160 q 238 1142 203 1163 q 290 1082 274 1122 q 311 956 319 1019 q 268 842 303 893 q 180 765 233 792 q 63 749 126 739 l 58 768 q 109 808 89 781 q 127 873 129 836 q 90 950 125 910 q 59 1012 67 976 q 60 1081 51 1047 q 94 1135 69 1115 z "},"‚":{"ha":363,"x_min":51,"x_max":319,"o":"m 94 201 q 164 228 125 226 q 238 209 203 229 q 290 149 274 189 q 311 23 319 86 q 268 -91 303 -40 q 180 -168 233 -142 q 63 -185 126 -194 l 58 -165 q 109 -125 89 -153 q 127 -60 129 -97 q 90 17 125 -24 q 59 78 67 43 q 60 148 51 114 q 94 201 69 182 z "}," ":{"ha":347,"x_min":0,"x_max":0,"o":""}}}
